<svg width="750" height="500" viewBox="0 0 750 500" fill="none" xmlns="http://www.w3.org/2000/svg">
<path d="M732.739 316.326C732.739 316.326 731.679 315.605 734.01 312.482C734.75 311.491 734.892 310.645 734.741 309.952C734.425 308.499 732.761 307.735 731.444 308.368C726.389 310.797 720.574 310.605 716.046 309.815C713.61 309.39 713.27 305.971 715.559 305.02C720.38 303.017 726.053 300.144 727.229 297.346C727.681 296.269 727.776 295.466 727.646 294.869C727.41 293.784 727.746 292.613 728.749 292.184C729.731 291.764 730.593 291.182 731.044 290.379C732.035 288.614 729.764 286.635 728.147 285.515C727.438 285.024 726.994 284.183 727.093 283.313C727.17 282.635 727.122 281.7 726.7 280.529C726.134 278.96 718.209 276.967 711.863 275.607C709.982 275.204 709.344 272.876 710.645 271.429C711.252 270.754 711.705 270.061 712.021 269.498C712.442 268.749 713.192 268.287 714.036 268.257C717.061 268.152 723.987 267.54 725.956 264.191C728.499 259.867 724.261 258.665 717.055 255.061C712.699 252.882 705.175 247.109 699.899 242.879C700.836 242.855 701.773 242.777 702.701 242.625C701.077 241.354 699.554 240.134 698.245 239.072C698.021 238.89 697.843 238.681 697.702 238.457C698.024 237.84 698.598 237.353 699.381 237.203C702.19 236.662 705.309 235.827 706.671 234.64C707.261 234.125 707.609 233.699 707.79 233.346C708.216 232.516 708.963 231.917 709.88 231.903C718.016 231.773 714.725 226.471 714.725 226.471C704.113 223.102 696.807 217.056 693.123 213.409C691.818 212.117 692.312 209.881 694.026 209.269C696.446 208.405 699.536 207.024 701.585 205.087C702.729 204.006 702.901 203.163 702.581 202.511C701.963 201.256 702.306 199.722 703.594 199.232C706.518 198.121 708.782 196.229 704.34 193.313C701.309 191.323 697.379 188.994 693.812 186.952C691.779 185.787 692.36 182.643 694.665 182.296C695.65 182.147 696.287 182.021 696.287 182.021C700.756 179.97 700.736 177.435 699.61 175.418C699.697 174.649 699.51 173.895 699.17 173.195C699.038 173.53 698.856 173.81 698.649 174.064C697.55 172.783 696.287 171.93 696.287 171.93C690.771 168.739 683.879 162.973 678.63 158.267C676.888 156.706 678.044 153.862 680.359 153.891C680.986 153.899 681.572 153.833 682.088 153.67C685.902 152.469 677.85 147.664 677.85 147.664C677.85 147.664 681.877 148.866 683.572 147.664C685.267 146.463 679.122 140.937 679.122 140.937C671.089 135.598 661.41 122.631 655.989 114.926C655.013 113.539 653.014 113.539 652.038 114.926C646.616 122.631 636.938 135.599 628.905 140.937C628.905 140.937 627.366 142.321 626.04 143.854L624.223 144.104C624.101 144.545 624.148 144.903 624.454 145.12C624.584 145.212 624.73 145.285 624.884 145.351C624.21 146.361 623.882 147.259 624.454 147.664C624.884 147.969 625.464 148.118 626.09 148.172C624.922 149.331 624.319 150.502 625.763 151.06C624.782 152.147 624.422 153.193 625.938 153.67C626.454 153.832 627.039 153.898 627.666 153.891C629.982 153.863 631.137 156.706 629.395 158.267C624.146 162.973 617.254 168.74 611.738 171.93C611.738 171.93 602.837 177.936 611.738 182.021C611.738 182.021 612.375 182.147 613.36 182.296C615.665 182.644 616.246 185.788 614.213 186.952C610.647 188.994 606.716 191.323 603.685 193.313C599.242 196.229 601.507 198.121 604.431 199.232C605.719 199.721 606.062 201.255 605.444 202.511C605.123 203.162 605.295 204.005 606.439 205.087C608.489 207.023 611.578 208.405 613.998 209.269C615.712 209.881 616.206 212.117 614.901 213.409C611.217 217.056 603.912 223.102 593.299 226.471C593.299 226.471 590.009 231.772 598.144 231.903C599.06 231.918 599.808 232.516 600.234 233.346C600.415 233.698 600.762 234.125 601.353 234.64C602.714 235.827 605.834 236.662 608.642 237.203C610.691 237.598 611.325 240.29 609.692 241.616C604.45 245.869 595.775 252.658 590.968 255.062C583.763 258.666 579.524 259.867 582.067 264.192C584.036 267.541 590.962 268.153 593.987 268.258C594.831 268.288 595.582 268.75 596.002 269.499C596.319 270.062 596.771 270.755 597.378 271.43C597.714 271.803 597.916 272.235 598.005 272.677C597.667 272.746 597.325 272.818 596.973 272.892C597.329 273.032 597.694 273.136 598.057 273.248C598.036 274.331 597.348 275.353 596.16 275.608C589.814 276.968 581.889 278.961 581.324 280.53C580.902 281.701 580.854 282.636 580.931 283.314C581.03 284.184 580.586 285.025 579.877 285.516C578.26 286.636 575.99 288.616 576.981 290.38C577.432 291.184 578.294 291.765 579.275 292.185C580.278 292.614 580.614 293.785 580.378 294.87C580.248 295.467 580.343 296.271 580.795 297.347C581.97 300.145 587.644 303.018 592.465 305.021C594.754 305.972 594.414 309.391 591.978 309.816C587.45 310.606 581.635 310.798 576.58 308.369C575.263 307.736 573.598 308.5 573.283 309.953C573.132 310.646 573.275 311.492 574.014 312.483C576.345 315.606 575.286 316.327 575.286 316.327C575.286 316.327 569.988 312.242 572.319 318.489C573.634 322.014 578.121 324.774 581.781 326.509C583.373 327.264 583.622 329.332 582.389 330.608C581.667 331.355 581.361 332.343 582.067 333.625C584.186 337.469 593.087 342.034 602.836 342.995C607.842 343.488 613.742 342.778 618.298 341.97C620.011 341.666 621.234 343.29 620.853 345.026C620.635 346.02 621.124 347.008 622.968 347.8C626.493 349.316 630.297 347.986 632.9 346.576C634.14 345.905 635.707 346.398 636.261 347.716C636.693 348.743 637.702 349.394 639.921 348.472C642.299 347.484 644.484 346.068 646.145 344.837V364.465C646.145 364.993 646.563 374.854 647.08 374.854L666.736 365.421C667.252 365.421 667.671 364.993 667.671 364.465V348.282C667.814 348.345 667.955 348.412 668.099 348.472C670.318 349.394 671.327 348.743 671.759 347.716C672.314 346.398 673.881 345.905 675.12 346.576C677.723 347.986 681.527 349.316 685.052 347.8C686.896 347.007 687.385 346.02 687.167 345.026C686.786 343.291 688.009 341.667 689.722 341.97C694.278 342.778 700.179 343.488 705.185 342.995C714.934 342.034 723.834 337.469 725.953 333.625C726.659 332.344 726.353 331.356 725.631 330.608C724.398 329.332 724.647 327.264 726.239 326.509C729.899 324.773 734.386 322.013 735.701 318.489C738.037 312.241 732.739 316.326 732.739 316.326Z" fill="#263238"/>
<path d="M618.31 360.314C618.31 360.314 617.332 359.663 619.484 356.844C620.167 355.949 620.298 355.186 620.159 354.56C619.868 353.248 618.331 352.559 617.115 353.13C612.448 355.322 607.079 355.149 602.899 354.436C600.65 354.052 600.336 350.966 602.449 350.108C606.9 348.3 612.138 345.707 613.223 343.181C613.64 342.209 613.728 341.484 613.608 340.945C613.39 339.966 613.7 338.908 614.626 338.521C615.532 338.142 616.328 337.617 616.745 336.892C617.66 335.299 615.564 333.512 614.071 332.501C613.416 332.058 613.006 331.299 613.098 330.514C613.169 329.902 613.125 329.058 612.735 328.001C612.213 326.585 604.896 324.786 599.037 323.558C597.3 323.194 596.711 321.093 597.913 319.787C598.473 319.178 598.892 318.553 599.184 318.044C599.572 317.368 600.265 316.951 601.044 316.924C603.837 316.829 610.231 316.277 612.049 313.254C614.397 309.351 610.484 308.266 603.831 305.014C599.809 303.047 592.863 297.836 587.992 294.018C588.857 293.996 589.722 293.926 590.578 293.789C589.079 292.642 587.673 291.541 586.464 290.582C586.257 290.418 586.093 290.229 585.963 290.027C586.261 289.47 586.791 289.031 587.513 288.895C590.106 288.407 592.986 287.653 594.243 286.581C594.788 286.116 595.109 285.731 595.276 285.413C595.669 284.664 596.359 284.123 597.205 284.11C604.716 283.992 601.678 279.207 601.678 279.207C591.88 276.166 585.135 270.709 581.734 267.417C580.529 266.251 580.985 264.233 582.568 263.68C584.802 262.9 587.655 261.653 589.547 259.906C590.604 258.93 590.762 258.169 590.466 257.581C589.896 256.448 590.212 255.063 591.402 254.622C594.101 253.62 596.192 251.912 592.09 249.28C589.292 247.484 585.663 245.382 582.37 243.539C580.493 242.488 581.029 239.65 583.158 239.336C584.068 239.202 584.655 239.088 584.655 239.088C588.781 237.237 588.763 234.948 587.723 233.128C587.803 232.434 587.63 231.754 587.317 231.121C587.195 231.423 587.027 231.677 586.836 231.906C585.821 230.75 584.655 229.979 584.655 229.979C579.562 227.099 573.2 221.894 568.353 217.647C566.745 216.238 567.812 213.671 569.95 213.697C570.529 213.704 571.07 213.644 571.546 213.498C575.067 212.414 567.633 208.077 567.633 208.077C567.633 208.077 571.351 209.162 572.915 208.077C574.48 206.993 568.806 202.005 568.806 202.005C561.389 197.186 552.454 185.482 547.449 178.527C546.548 177.275 544.702 177.275 543.801 178.527C538.796 185.482 529.86 197.186 522.443 202.005C522.443 202.005 521.022 203.254 519.798 204.638L518.12 204.864C518.007 205.262 518.051 205.585 518.334 205.781C518.454 205.864 518.589 205.93 518.731 205.989C518.109 206.901 517.806 207.712 518.334 208.077C518.731 208.352 519.267 208.487 519.845 208.536C518.767 209.582 518.21 210.64 519.543 211.143C518.637 212.124 518.305 213.068 519.704 213.499C520.18 213.646 520.721 213.705 521.3 213.698C523.438 213.672 524.504 216.239 522.897 217.648C518.051 221.895 511.688 227.1 506.595 229.98C506.595 229.98 498.378 235.401 506.595 239.088C506.595 239.088 507.183 239.202 508.092 239.336C510.221 239.65 510.757 242.488 508.88 243.539C505.587 245.382 501.958 247.485 499.16 249.28C495.058 251.912 497.149 253.62 499.849 254.622C501.038 255.064 501.355 256.448 500.784 257.581C500.488 258.169 500.647 258.93 501.703 259.906C503.595 261.654 506.448 262.901 508.682 263.68C510.264 264.232 510.72 266.251 509.516 267.417C506.115 270.708 499.37 276.166 489.573 279.207C489.573 279.207 486.535 283.992 494.046 284.11C494.892 284.123 495.582 284.664 495.976 285.413C496.143 285.731 496.464 286.116 497.009 286.581C498.265 287.652 501.146 288.406 503.739 288.895C505.631 289.251 506.216 291.682 504.708 292.878C499.868 296.717 491.86 302.844 487.422 305.015C480.77 308.268 476.857 309.352 479.204 313.255C481.022 316.278 487.416 316.83 490.209 316.925C490.988 316.952 491.681 317.369 492.07 318.045C492.362 318.554 492.78 319.179 493.341 319.788C493.651 320.125 493.837 320.515 493.92 320.914C493.608 320.977 493.292 321.041 492.967 321.108C493.295 321.234 493.633 321.328 493.968 321.43C493.948 322.408 493.313 323.33 492.216 323.56C486.357 324.788 479.041 326.586 478.518 328.003C478.128 329.06 478.084 329.904 478.155 330.516C478.247 331.301 477.836 332.06 477.182 332.503C475.689 333.514 473.593 335.301 474.508 336.894C474.924 337.619 475.72 338.144 476.626 338.523C477.552 338.91 477.862 339.967 477.644 340.947C477.524 341.486 477.612 342.211 478.029 343.183C479.114 345.709 484.352 348.301 488.803 350.11C490.917 350.969 490.603 354.055 488.354 354.438C484.173 355.151 478.805 355.324 474.138 353.132C472.922 352.561 471.385 353.25 471.094 354.562C470.955 355.188 471.086 355.951 471.769 356.846C473.921 359.665 472.943 360.316 472.943 360.316C472.943 360.316 468.052 356.629 470.204 362.268C471.419 365.45 475.561 367.94 478.94 369.507C480.41 370.188 480.64 372.055 479.501 373.207C478.834 373.882 478.552 374.773 479.204 375.93C481.161 379.4 489.378 383.52 498.379 384.388C503.001 384.833 508.448 384.192 512.655 383.463C514.237 383.189 515.365 384.655 515.014 386.221C514.813 387.118 515.265 388.01 516.967 388.725C520.222 390.093 523.734 388.893 526.137 387.621C527.281 387.015 528.728 387.46 529.24 388.65C529.639 389.577 530.57 390.165 532.619 389.332C534.814 388.44 536.832 387.162 538.365 386.051V403.768C538.365 404.244 538.751 404.631 539.228 404.631H557.376C557.853 404.631 558.239 404.245 558.239 403.768V389.161C558.371 389.218 558.501 389.278 558.634 389.332C560.683 390.165 561.615 389.577 562.013 388.65C562.525 387.46 563.972 387.015 565.116 387.621C567.52 388.893 571.032 390.094 574.286 388.725C575.988 388.009 576.44 387.118 576.239 386.221C575.888 384.655 577.016 383.189 578.598 383.463C582.804 384.192 588.252 384.834 592.874 384.388C601.874 383.52 610.092 379.4 612.048 375.93C612.7 374.773 612.417 373.882 611.751 373.207C610.612 372.055 610.843 370.188 612.312 369.507C615.691 367.94 619.834 365.449 621.048 362.268C623.201 356.628 618.31 360.314 618.31 360.314Z" fill="#263238"/>
</svg>
