<svg width="750" height="500" viewBox="0 0 750 500" fill="none" xmlns="http://www.w3.org/2000/svg">
<path d="M296.454 145.268C296.454 145.276 296.361 145.282 296.211 145.283C296.061 145.284 295.854 145.279 295.625 145.265C295.397 145.25 295.19 145.229 295.042 145.208C294.893 145.188 294.802 145.169 294.803 145.162C294.804 145.154 294.897 145.158 295.046 145.168C295.218 145.18 295.413 145.193 295.629 145.208C295.845 145.221 296.04 145.233 296.212 145.243C296.362 145.252 296.454 145.26 296.454 145.268Z" fill="#E0E0E0"/>
<path d="M296.589 145.02C296.589 145.028 296.496 145.034 296.346 145.035C296.196 145.036 295.989 145.031 295.76 145.017C295.532 145.002 295.325 144.981 295.177 144.96C295.028 144.94 294.937 144.921 294.938 144.914C294.939 144.906 295.032 144.91 295.181 144.92C295.353 144.932 295.548 144.945 295.764 144.96C295.98 144.973 296.175 144.985 296.347 144.995C296.497 145.004 296.589 145.012 296.589 145.02Z" fill="#E0E0E0"/>
<path d="M290.163 144.808C290.163 144.808 290.409 144.347 290.677 144.219C290.945 144.091 293.352 143.831 293.352 143.831L297.469 144.201C297.469 144.201 297.339 144.63 296.694 144.685C296.049 144.74 295.315 144.73 295.315 144.73C295.315 144.73 294.881 145.221 294.184 145.408C293.487 145.595 292.563 145.674 291.898 145.271C291.233 144.868 290.707 145.401 290.451 144.971C290.338 144.782 290.163 144.808 290.163 144.808Z" fill="#E0E0E0"/>
<path d="M298.135 138.171C297.993 138.563 297.82 138.944 297.617 139.308C297.555 139.419 297.48 139.538 297.358 139.577C297.605 138.993 297.737 138.36 297.745 137.726C297.676 137.938 297.599 138.148 297.513 138.354C297.449 138.508 297.379 138.661 297.297 138.807C297.08 139.19 296.775 139.516 296.474 139.838C296.242 140.086 296.026 140.353 295.759 140.562C295.22 140.984 295.181 140.956 294.59 141.355C294.408 141.478 294.057 141.665 293.932 141.845C293.869 141.936 293.833 142.041 293.794 142.145C293.477 142.984 292.962 143.748 292.302 144.356L293.667 144.614C294.217 144.554 294.721 144.241 295.081 143.821C295.441 143.401 295.667 142.879 295.808 142.344C295.842 142.214 295.874 142.077 295.963 141.977C296.037 141.894 296.141 141.845 296.234 141.785C296.394 141.682 296.529 141.54 296.623 141.375C296.519 141.452 296.389 141.493 296.259 141.489C296.599 141.241 296.924 140.973 297.232 140.685C297.518 140.418 297.797 140.122 297.922 139.751C297.813 139.905 297.664 140.031 297.493 140.113C297.89 139.546 298.117 138.862 298.135 138.171Z" fill="#E0E0E0"/>
<path d="M290.739 144.521C290.712 144.513 290.682 144.525 290.664 144.546C290.646 144.568 290.641 144.597 290.645 144.625C290.653 144.679 290.701 144.725 290.756 144.729C290.81 144.733 290.865 144.695 290.879 144.642C290.892 144.589 290.861 144.528 290.809 144.51C290.775 144.498 290.736 144.503 290.7 144.509" fill="#E0E0E0"/>
<path d="M290.236 144.683C290.236 144.683 289.885 144.749 289.755 144.958C289.625 145.167 289.611 145.349 289.641 145.358C289.641 145.358 289.694 145.246 289.96 145.149C290.226 145.052 290.494 144.994 290.494 144.994L290.236 144.683Z" fill="#E0E0E0"/>
<path d="M292.883 143.51C292.418 143.101 291.953 142.692 291.489 142.283C291.328 142.141 291.165 141.998 291.04 141.823C290.779 141.459 290.701 140.987 290.439 140.623C290.412 140.728 290.386 140.834 290.359 140.939C290.284 140.669 290.172 140.41 290.026 140.172C289.997 140.293 289.969 140.415 289.94 140.536C289.856 140.161 289.695 139.803 289.471 139.491C289.357 139.628 289.297 139.808 289.305 139.986C289.182 139.658 289.035 139.34 288.865 139.033C288.535 139.874 288.678 140.823 288.901 141.698C288.945 141.869 288.992 142.041 289.081 142.194C289.179 142.362 289.324 142.498 289.472 142.624C290.108 143.168 290.856 143.603 291.352 144.277L293.406 144.174C293.313 144.13 292.94 143.561 292.883 143.51Z" fill="#E0E0E0"/>
<path d="M293.428 144.174L293.408 144.175C293.417 144.179 293.425 144.18 293.428 144.174Z" fill="#E0E0E0"/>
<path d="M295.807 142.341C295.841 142.211 295.873 142.074 295.962 141.974C296.036 141.891 296.14 141.842 296.233 141.782C296.393 141.679 296.528 141.537 296.622 141.372C296.518 141.449 296.388 141.49 296.258 141.486C296.598 141.238 296.923 140.97 297.231 140.682C297.517 140.415 297.796 140.119 297.921 139.748C297.812 139.902 297.663 140.028 297.492 140.11C297.89 139.545 298.117 138.861 298.135 138.17C297.993 138.562 297.82 138.943 297.617 139.307C297.555 139.418 297.48 139.537 297.358 139.576C297.605 138.992 297.737 138.359 297.745 137.725C297.676 137.937 297.599 138.147 297.513 138.353C297.449 138.507 297.379 138.66 297.297 138.806C297.08 139.189 296.775 139.515 296.474 139.837C296.242 140.085 296.01 140.333 295.759 140.561L296.952 139.987L296.348 140.736L297.018 140.422C297.018 140.422 295.927 141.35 295.754 141.812C295.581 142.274 295.736 142.595 295.736 142.595L295.807 142.341Z" fill="#E0E0E0"/>
<path d="M291.04 141.824C290.779 141.46 290.701 140.988 290.439 140.624C290.412 140.729 290.386 140.835 290.359 140.94C290.284 140.67 290.172 140.411 290.026 140.173C289.997 140.294 289.969 140.416 289.94 140.537C289.856 140.162 289.695 139.804 289.471 139.492C289.357 139.629 289.297 139.809 289.305 139.987C289.182 139.659 289.035 139.341 288.865 139.034C288.535 139.875 288.678 140.824 288.901 141.699C288.945 141.87 288.992 142.042 289.081 142.195L289.137 141.47C289.137 141.47 289.168 140.525 289.427 140.895C289.686 141.265 290.201 141.865 290.201 141.865L290.091 141.222C290.091 141.222 290.454 141.777 290.681 141.846C290.911 141.913 291.04 141.824 291.04 141.824Z" fill="#E0E0E0"/>
<path d="M293.874 141.945C293.874 141.945 293.874 141.944 293.874 141.941C293.883 141.938 293.876 141.947 293.876 141.949C293.874 141.957 293.869 141.97 293.863 141.985C293.851 142.016 293.832 142.062 293.806 142.12C293.754 142.237 293.676 142.404 293.576 142.609C293.475 142.814 293.352 143.056 293.204 143.32C293.13 143.451 293.05 143.589 292.956 143.725C292.908 143.793 292.86 143.862 292.792 143.923C292.742 143.953 292.701 143.955 292.658 143.966C292.615 143.974 292.572 143.983 292.529 143.989C291.84 144.094 291.211 144.147 290.762 144.213C290.651 144.225 290.57 144.29 290.504 144.349C290.439 144.41 290.39 144.471 290.352 144.521C290.276 144.622 290.24 144.684 290.236 144.681C290.234 144.68 290.241 144.664 290.257 144.634C290.273 144.604 290.298 144.561 290.334 144.508C290.37 144.455 290.417 144.392 290.482 144.326C290.546 144.264 290.635 144.189 290.755 144.173C291.207 144.096 291.834 144.037 292.521 143.932C292.564 143.926 292.606 143.917 292.647 143.91C292.687 143.901 292.732 143.892 292.756 143.879C292.815 143.827 292.864 143.758 292.911 143.693C293.003 143.56 293.084 143.424 293.159 143.294C293.309 143.033 293.435 142.793 293.54 142.591C293.641 142.394 293.724 142.232 293.786 142.111C293.812 142.059 293.834 142.016 293.853 141.98C293.86 141.968 293.865 141.957 293.871 141.946C293.874 141.943 293.873 141.937 293.876 141.942C293.875 141.944 293.874 141.945 293.874 141.945Z" fill="#E0E0E0"/>
<path d="M296.344 140.68C296.346 140.681 296.34 140.695 296.327 140.722C296.315 140.749 296.293 140.786 296.262 140.833C296.2 140.926 296.096 141.053 295.943 141.182C295.79 141.312 295.591 141.443 295.363 141.575C295.25 141.641 295.131 141.709 295.019 141.795C294.907 141.88 294.806 141.985 294.725 142.109C294.559 142.358 294.469 142.635 294.367 142.877C294.269 143.122 294.153 143.333 294.038 143.496C293.924 143.66 293.815 143.781 293.737 143.86C293.698 143.9 293.666 143.929 293.644 143.948C293.622 143.967 293.608 143.975 293.608 143.975C293.605 143.972 293.648 143.928 293.721 143.844C293.794 143.761 293.897 143.637 294.005 143.472C294.114 143.307 294.224 143.1 294.319 142.855C294.418 142.614 294.507 142.334 294.679 142.075C294.763 141.946 294.871 141.835 294.987 141.748C295.103 141.66 295.225 141.593 295.339 141.527C295.567 141.398 295.766 141.272 295.92 141.148C296.074 141.025 296.18 140.905 296.247 140.817C296.31 140.731 296.339 140.677 296.344 140.68Z" fill="#E0E0E0"/>
<path d="M293.597 145.081C293.603 145.095 293.491 145.145 293.347 145.123C293.203 145.102 293.11 145.022 293.12 145.01C293.129 144.996 293.225 145.048 293.355 145.066C293.485 145.087 293.592 145.065 293.597 145.081Z" fill="#E0E0E0"/>
<path d="M294.141 144.999C294.148 145.012 293.964 145.093 293.722 145.073C293.481 145.056 293.311 144.949 293.319 144.937C293.326 144.921 293.498 145.001 293.726 145.016C293.954 145.035 294.136 144.983 294.141 144.999Z" fill="#E0E0E0"/>
<path d="M295.63 145.208C295.414 145.193 295.219 145.18 295.047 145.168C294.898 145.158 294.805 145.154 294.804 145.162C294.803 145.17 294.894 145.188 295.043 145.208C295.192 145.228 295.398 145.25 295.626 145.265C295.854 145.28 296.061 145.285 296.212 145.283C296.362 145.282 296.455 145.275 296.455 145.268C296.455 145.26 296.363 145.252 296.213 145.243C296.041 145.233 295.845 145.221 295.63 145.208Z" fill="#E0E0E0"/>
<path d="M447.975 128.611C444.841 127.806 441.533 128.534 438.413 129.394C438.671 125.164 436.271 120.885 432.526 118.901C428.781 116.917 423.893 117.334 420.538 119.924C417.491 111.888 411.116 104.87 402.899 102.351C394.682 99.8322 384.777 102.532 379.955 109.647C375.447 116.299 376.696 126.447 382.93 131.302C371.762 124.61 363.072 133.3 364.105 142.717C389.437 141.971 416.029 143.112 441.361 142.366C443.961 142.289 446.63 142.199 449.029 141.194C451.428 140.189 453.535 138.052 453.723 135.457C453.957 132.229 451.109 129.416 447.975 128.611Z" fill="#EBEBEB"/>
<path d="M692.308 79.3893C688.533 78.4193 684.548 79.2963 680.79 80.3323C681.101 75.2363 678.21 70.0823 673.698 67.6923C669.187 65.3023 663.298 65.8043 659.257 68.9243C655.587 59.2433 647.907 50.7903 638.009 47.7553C628.111 44.7203 616.179 47.9733 610.371 56.5443C604.941 64.5573 606.445 76.7813 613.955 82.6293C600.502 74.5683 590.034 85.0363 591.278 96.3803L682.932 96.9943C686.064 96.9023 690.427 96.8853 693.317 95.6753C696.207 94.4643 699.248 92.3033 699.231 87.6353C699.219 83.7373 696.084 80.3593 692.308 79.3893Z" fill="#EBEBEB"/>
<path d="M349.318 81.8331C344.324 80.5501 339.053 81.7101 334.081 83.0801C334.493 76.3391 330.667 69.5211 324.7 66.3591C318.732 63.1971 310.943 63.8621 305.597 67.9891C300.742 55.1831 290.583 44.0011 277.489 39.9861C264.395 35.9721 248.611 40.2751 240.928 51.6121C233.745 62.2111 235.735 78.3831 245.669 86.1191C227.872 75.4551 214.025 89.3031 215.671 104.309L336.916 105.122C341.06 105 346.831 104.978 350.654 103.377C354.478 101.775 358.499 98.9171 358.478 92.7411C358.459 87.5851 354.312 83.1171 349.318 81.8331Z" fill="#F5F5F5"/>
<path d="M144.847 64.5685C142.201 63.8885 139.409 64.5035 136.775 65.2295C136.993 61.6585 134.967 58.0465 131.805 56.3715C128.644 54.6965 124.517 55.0485 121.685 57.2355C119.113 50.4515 113.731 44.5275 106.795 42.4005C99.859 40.2745 91.497 42.5535 87.427 48.5595C83.622 54.1745 84.676 62.7415 89.939 66.8395C80.511 61.1905 73.175 68.5265 74.047 76.4755L138.276 76.9065C140.471 76.8415 143.528 76.8305 145.554 75.9815C147.579 75.1335 149.71 73.6185 149.699 70.3475C149.689 67.6155 147.492 65.2485 144.847 64.5685Z" fill="#EBEBEB"/>
<path d="M514.933 75.5943C513.05 75.1103 511.063 75.5473 509.189 76.0643C509.344 73.5233 507.902 70.9523 505.652 69.7603C503.402 68.5683 500.465 68.8193 498.45 70.3743C496.62 65.5463 492.789 61.3303 487.853 59.8173C482.917 58.3043 476.966 59.9263 474.069 64.2003C471.361 68.1963 472.111 74.2933 475.856 77.2103C469.146 73.1903 463.926 78.4103 464.546 84.0683L510.257 84.3743C511.819 84.3283 513.995 84.3203 515.436 83.7163C516.878 83.1123 518.394 82.0343 518.386 79.7063C518.379 77.7633 516.816 76.0783 514.933 75.5943Z" fill="#FAFAFA"/>
<path d="M41.996 158.772C41.996 221.328 43.806 271.936 43.806 271.936L718.658 270.885L656.067 194.159L552.583 210.212L392.864 237.463L364.1 247.141L287.561 231.691L41.996 158.772Z" fill="#EBEBEB"/>
<path d="M299.649 173.945C299.649 173.953 299.556 173.959 299.406 173.96C299.256 173.961 299.049 173.956 298.82 173.942C298.592 173.927 298.385 173.906 298.237 173.885C298.088 173.865 297.997 173.846 297.998 173.839C297.999 173.831 298.092 173.835 298.241 173.845C298.413 173.857 298.608 173.87 298.824 173.885C299.04 173.898 299.235 173.91 299.407 173.92C299.556 173.929 299.649 173.937 299.649 173.945Z" fill="#263238"/>
<path d="M299.783 173.697C299.783 173.705 299.69 173.711 299.54 173.712C299.39 173.713 299.183 173.708 298.955 173.694C298.727 173.679 298.52 173.658 298.372 173.637C298.223 173.617 298.132 173.598 298.133 173.591C298.134 173.583 298.227 173.587 298.376 173.597C298.548 173.609 298.743 173.622 298.959 173.637C299.175 173.65 299.37 173.662 299.542 173.672C299.691 173.681 299.784 173.689 299.783 173.697Z" fill="#263238"/>
<path d="M293.357 173.485C293.357 173.485 293.603 173.024 293.871 172.896C294.139 172.768 296.546 172.508 296.546 172.508L300.663 172.878C300.663 172.878 300.533 173.307 299.888 173.361C299.243 173.416 298.509 173.406 298.509 173.406C298.509 173.406 298.075 173.897 297.378 174.084C296.681 174.272 295.757 174.35 295.092 173.947C294.427 173.543 293.901 174.077 293.645 173.647C293.532 173.459 293.357 173.485 293.357 173.485Z" fill="#263238"/>
<path d="M301.329 166.847C301.187 167.239 301.014 167.62 300.811 167.984C300.749 168.095 300.674 168.214 300.552 168.253C300.799 167.669 300.931 167.036 300.938 166.401C300.87 166.613 300.792 166.823 300.706 167.029C300.641 167.183 300.572 167.336 300.489 167.482C300.272 167.865 299.968 168.191 299.667 168.513C299.435 168.761 299.219 169.028 298.951 169.237C298.412 169.659 298.374 169.631 297.782 170.03C297.6 170.152 297.249 170.34 297.125 170.52C297.062 170.611 297.026 170.716 296.987 170.82C296.67 171.659 296.155 172.423 295.495 173.031L296.86 173.289C297.41 173.229 297.914 172.916 298.274 172.496C298.634 172.076 298.86 171.554 299.001 171.019C299.035 170.889 299.067 170.752 299.156 170.652C299.23 170.569 299.334 170.52 299.427 170.46C299.587 170.357 299.722 170.215 299.816 170.05C299.712 170.127 299.582 170.168 299.452 170.164C299.792 169.916 300.117 169.648 300.425 169.36C300.711 169.093 300.99 168.797 301.115 168.426C301.006 168.58 300.856 168.707 300.686 168.788C301.084 168.222 301.311 167.538 301.329 166.847Z" fill="#263238"/>
<path d="M293.933 173.198C293.906 173.19 293.876 173.202 293.858 173.223C293.84 173.245 293.835 173.275 293.839 173.302C293.847 173.356 293.895 173.401 293.95 173.406C294.004 173.41 294.059 173.372 294.073 173.319C294.086 173.266 294.055 173.205 294.003 173.187C293.969 173.174 293.931 173.18 293.894 173.186" fill="#263238"/>
<path d="M293.431 173.359C293.431 173.359 293.08 173.425 292.95 173.634C292.82 173.843 292.806 174.025 292.836 174.035C292.836 174.035 292.889 173.923 293.155 173.826C293.421 173.729 293.689 173.671 293.689 173.671L293.431 173.359Z" fill="#263238"/>
<path d="M296.077 172.187C295.612 171.778 295.147 171.369 294.683 170.96C294.522 170.818 294.359 170.675 294.234 170.5C293.973 170.136 293.895 169.664 293.633 169.3C293.606 169.405 293.58 169.51 293.553 169.616C293.478 169.347 293.366 169.087 293.22 168.849C293.191 168.97 293.163 169.092 293.134 169.213C293.05 168.838 292.889 168.48 292.665 168.168C292.551 168.305 292.491 168.485 292.499 168.663C292.376 168.335 292.229 168.016 292.059 167.71C291.729 168.551 291.872 169.5 292.095 170.375C292.139 170.546 292.186 170.718 292.275 170.871C292.373 171.039 292.518 171.175 292.666 171.301C293.302 171.845 294.05 172.28 294.546 172.954L296.6 172.851C296.507 172.807 296.135 172.238 296.077 172.187Z" fill="#263238"/>
<path d="M296.622 172.851L296.602 172.852C296.611 172.856 296.619 172.857 296.622 172.851Z" fill="#263238"/>
<path d="M299.002 171.017C299.036 170.887 299.068 170.75 299.157 170.65C299.231 170.567 299.335 170.518 299.428 170.458C299.588 170.355 299.723 170.213 299.817 170.048C299.713 170.125 299.583 170.166 299.453 170.162C299.793 169.914 300.118 169.646 300.426 169.358C300.712 169.091 300.991 168.795 301.116 168.424C301.007 168.578 300.857 168.705 300.687 168.786C301.085 168.221 301.312 167.537 301.33 166.846C301.188 167.238 301.015 167.619 300.812 167.983C300.75 168.094 300.675 168.213 300.553 168.252C300.8 167.668 300.932 167.035 300.939 166.4C300.871 166.612 300.793 166.822 300.707 167.028C300.642 167.182 300.573 167.335 300.49 167.481C300.273 167.864 299.969 168.19 299.668 168.512C299.436 168.76 299.204 169.008 298.952 169.236L300.145 168.662L299.541 169.411L300.211 169.097C300.211 169.097 299.12 170.025 298.947 170.487C298.774 170.949 298.929 171.27 298.929 171.27L299.002 171.017Z" fill="#263238"/>
<path d="M294.234 170.501C293.973 170.137 293.895 169.665 293.633 169.301C293.606 169.406 293.58 169.511 293.553 169.617C293.478 169.348 293.366 169.088 293.22 168.85C293.191 168.971 293.163 169.093 293.134 169.214C293.05 168.839 292.889 168.481 292.665 168.169C292.551 168.306 292.491 168.486 292.499 168.664C292.376 168.336 292.229 168.017 292.059 167.711C291.729 168.552 291.872 169.501 292.095 170.376C292.139 170.547 292.186 170.719 292.275 170.872L292.331 170.147C292.331 170.147 292.362 169.202 292.621 169.572C292.88 169.942 293.395 170.542 293.395 170.542L293.285 169.898C293.285 169.898 293.648 170.453 293.875 170.522C294.105 170.59 294.234 170.501 294.234 170.501Z" fill="#263238"/>
<path d="M297.068 170.622C297.068 170.622 297.068 170.621 297.068 170.618C297.076 170.615 297.07 170.624 297.07 170.626C297.068 170.634 297.063 170.646 297.057 170.662C297.045 170.693 297.026 170.739 297 170.797C296.948 170.914 296.871 171.081 296.77 171.286C296.669 171.491 296.546 171.733 296.398 171.997C296.323 172.129 296.243 172.266 296.15 172.402C296.102 172.47 296.054 172.539 295.986 172.6C295.936 172.63 295.895 172.632 295.852 172.643C295.809 172.651 295.766 172.66 295.723 172.666C295.033 172.771 294.405 172.824 293.956 172.89C293.845 172.902 293.764 172.967 293.698 173.026C293.633 173.087 293.584 173.148 293.546 173.198C293.469 173.299 293.434 173.36 293.43 173.358C293.428 173.357 293.435 173.341 293.451 173.311C293.467 173.281 293.492 173.238 293.528 173.185C293.564 173.132 293.611 173.069 293.676 173.003C293.74 172.941 293.829 172.866 293.949 172.85C294.401 172.773 295.028 172.714 295.714 172.609C295.757 172.603 295.799 172.594 295.84 172.587C295.88 172.578 295.925 172.569 295.949 172.556C296.008 172.504 296.057 172.435 296.104 172.37C296.196 172.237 296.277 172.101 296.352 171.97C296.502 171.709 296.628 171.469 296.733 171.267C296.834 171.07 296.917 170.908 296.979 170.787C297.005 170.735 297.028 170.692 297.046 170.656C297.053 170.644 297.058 170.633 297.064 170.622C297.067 170.619 297.066 170.613 297.069 170.618C297.069 170.621 297.068 170.622 297.068 170.622Z" fill="#263238"/>
<path d="M299.538 169.357C299.54 169.358 299.534 169.372 299.521 169.399C299.509 169.426 299.487 169.463 299.456 169.51C299.394 169.603 299.29 169.73 299.137 169.859C298.984 169.989 298.784 170.12 298.557 170.252C298.444 170.318 298.324 170.387 298.213 170.472C298.101 170.557 298 170.662 297.918 170.786C297.752 171.035 297.662 171.312 297.56 171.554C297.462 171.799 297.346 172.01 297.231 172.173C297.117 172.338 297.009 172.458 296.93 172.538C296.891 172.578 296.859 172.607 296.837 172.626C296.815 172.645 296.803 172.654 296.801 172.653C296.798 172.65 296.841 172.606 296.914 172.522C296.987 172.439 297.089 172.315 297.198 172.15C297.307 171.985 297.417 171.778 297.512 171.533C297.611 171.292 297.7 171.012 297.872 170.753C297.956 170.624 298.064 170.513 298.18 170.426C298.296 170.339 298.418 170.271 298.532 170.205C298.76 170.076 298.959 169.95 299.113 169.826C299.267 169.703 299.373 169.583 299.44 169.495C299.504 169.408 299.533 169.354 299.538 169.357Z" fill="#263238"/>
<path d="M296.791 173.758C296.797 173.772 296.685 173.822 296.541 173.8C296.397 173.779 296.304 173.699 296.314 173.687C296.323 173.673 296.419 173.725 296.549 173.743C296.679 173.764 296.787 173.742 296.791 173.758Z" fill="#263238"/>
<path d="M297.335 173.675C297.342 173.688 297.157 173.769 296.916 173.749C296.675 173.732 296.505 173.625 296.513 173.613C296.52 173.597 296.692 173.677 296.92 173.692C297.148 173.711 297.33 173.658 297.335 173.675Z" fill="#263238"/>
<path d="M298.824 173.885C298.608 173.87 298.413 173.857 298.241 173.845C298.092 173.835 297.999 173.831 297.998 173.839C297.997 173.847 298.088 173.865 298.237 173.885C298.385 173.905 298.592 173.927 298.82 173.942C299.048 173.957 299.256 173.962 299.406 173.96C299.556 173.959 299.649 173.952 299.649 173.945C299.649 173.937 299.557 173.929 299.407 173.92C299.235 173.91 299.04 173.898 298.824 173.885Z" fill="#263238"/>
<path d="M292.952 141.963C292.952 141.975 292.804 141.985 292.565 141.987C292.326 141.989 291.996 141.981 291.632 141.958C291.268 141.935 290.94 141.9 290.703 141.868C290.466 141.836 290.321 141.807 290.323 141.794C290.324 141.781 290.472 141.788 290.71 141.804C290.983 141.823 291.295 141.844 291.638 141.868C291.982 141.889 292.293 141.907 292.566 141.924C292.805 141.938 292.952 141.95 292.952 141.963Z" fill="#263238"/>
<path d="M293.167 141.567C293.167 141.579 293.019 141.59 292.78 141.591C292.541 141.593 292.211 141.585 291.847 141.562C291.483 141.539 291.155 141.504 290.918 141.472C290.681 141.44 290.536 141.411 290.538 141.398C290.539 141.385 290.687 141.392 290.925 141.408C291.198 141.427 291.51 141.448 291.853 141.472C292.197 141.493 292.508 141.511 292.781 141.528C293.019 141.542 293.167 141.554 293.167 141.567Z" fill="#263238"/>
<path d="M282.93 141.228C282.93 141.228 283.322 140.494 283.749 140.29C284.175 140.086 288.009 139.672 288.009 139.672L294.566 140.261C294.566 140.261 294.358 140.944 293.331 141.031C292.304 141.118 291.135 141.103 291.135 141.103C291.135 141.103 290.444 141.885 289.333 142.184C288.223 142.483 286.752 142.608 285.692 141.965C284.632 141.322 283.795 142.171 283.388 141.487C283.21 141.188 282.93 141.228 282.93 141.228Z" fill="#263238"/>
<path d="M295.628 130.656C295.402 131.281 295.126 131.887 294.802 132.467C294.703 132.644 294.583 132.833 294.39 132.895C294.784 131.964 294.994 130.956 295.006 129.946C294.897 130.284 294.774 130.618 294.637 130.946C294.534 131.192 294.424 131.435 294.292 131.667C293.946 132.277 293.461 132.797 292.982 133.309C292.613 133.704 292.268 134.129 291.842 134.462C290.983 135.134 290.922 135.089 289.98 135.725C289.691 135.92 289.131 136.219 288.933 136.506C288.833 136.651 288.775 136.819 288.713 136.983C288.208 138.32 287.388 139.536 286.337 140.504L288.512 140.915C289.388 140.819 290.191 140.321 290.765 139.652C291.339 138.983 291.699 138.152 291.923 137.299C291.977 137.092 292.028 136.874 292.17 136.714C292.287 136.581 292.453 136.504 292.602 136.408C292.857 136.244 293.071 136.018 293.221 135.754C293.055 135.876 292.848 135.942 292.642 135.936C293.184 135.541 293.701 135.113 294.191 134.656C294.646 134.231 295.091 133.759 295.29 133.168C295.116 133.414 294.878 133.615 294.606 133.745C295.239 132.846 295.6 131.757 295.628 130.656Z" fill="#263238"/>
<path d="M283.848 140.773C283.805 140.76 283.757 140.779 283.728 140.814C283.7 140.848 283.691 140.896 283.697 140.94C283.71 141.026 283.787 141.098 283.873 141.105C283.96 141.112 284.047 141.05 284.068 140.966C284.089 140.882 284.039 140.785 283.957 140.755C283.902 140.735 283.841 140.744 283.784 140.753" fill="#263238"/>
<path d="M283.048 141.03C283.048 141.03 282.489 141.135 282.282 141.468C282.075 141.801 282.053 142.09 282.1 142.106C282.1 142.106 282.184 141.927 282.608 141.773C283.032 141.619 283.458 141.526 283.458 141.526L283.048 141.03Z" fill="#263238"/>
<path d="M287.263 139.163C286.523 138.512 285.782 137.86 285.042 137.208C284.785 136.982 284.526 136.754 284.327 136.476C283.911 135.896 283.786 135.145 283.37 134.565C283.328 134.733 283.285 134.9 283.243 135.068C283.124 134.639 282.945 134.226 282.712 133.846C282.667 134.039 282.621 134.233 282.576 134.426C282.442 133.829 282.186 133.259 281.83 132.761C281.649 132.979 281.553 133.266 281.566 133.549C281.37 133.027 281.136 132.519 280.866 132.031C280.34 133.371 280.568 134.882 280.924 136.277C280.993 136.549 281.069 136.824 281.211 137.067C281.368 137.335 281.598 137.551 281.833 137.752C282.846 138.619 284.037 139.311 284.828 140.386L288.1 140.222C287.948 140.149 287.354 139.243 287.263 139.163Z" fill="#263238"/>
<path d="M288.132 140.221L288.1 140.223C288.114 140.23 288.126 140.232 288.132 140.221Z" fill="#263238"/>
<path d="M291.921 137.3C291.975 137.093 292.026 136.875 292.168 136.715C292.285 136.582 292.451 136.505 292.6 136.409C292.855 136.245 293.069 136.019 293.219 135.755C293.053 135.877 292.846 135.943 292.64 135.937C293.182 135.542 293.699 135.114 294.189 134.657C294.644 134.232 295.089 133.76 295.288 133.169C295.114 133.415 294.876 133.616 294.604 133.746C295.238 132.846 295.599 131.757 295.628 130.656C295.402 131.281 295.126 131.887 294.802 132.467C294.703 132.644 294.583 132.833 294.39 132.895C294.784 131.964 294.994 130.956 295.006 129.946C294.897 130.284 294.774 130.618 294.637 130.946C294.534 131.192 294.424 131.435 294.292 131.667C293.946 132.277 293.461 132.797 292.982 133.309C292.613 133.704 292.243 134.099 291.842 134.462L293.742 133.548L292.78 134.741L293.847 134.24C293.847 134.24 292.109 135.718 291.833 136.453C291.557 137.188 291.804 137.7 291.804 137.7L291.921 137.3Z" fill="#263238"/>
<path d="M284.328 136.476C283.912 135.896 283.787 135.145 283.371 134.565C283.329 134.733 283.286 134.9 283.244 135.068C283.125 134.639 282.946 134.226 282.713 133.846C282.668 134.039 282.622 134.233 282.577 134.426C282.443 133.829 282.187 133.259 281.831 132.761C281.65 132.979 281.554 133.266 281.567 133.549C281.371 133.027 281.137 132.519 280.867 132.031C280.341 133.371 280.569 134.882 280.925 136.277C280.994 136.549 281.07 136.824 281.212 137.067L281.301 135.912C281.301 135.912 281.35 134.407 281.764 134.996C282.178 135.585 282.997 136.541 282.997 136.541L282.822 135.516C282.822 135.516 283.4 136.4 283.762 136.509C284.124 136.618 284.328 136.476 284.328 136.476Z" fill="#263238"/>
<path d="M288.841 136.669C288.841 136.669 288.841 136.667 288.842 136.663C288.855 136.658 288.845 136.672 288.846 136.676C288.842 136.689 288.835 136.709 288.826 136.734C288.807 136.784 288.776 136.857 288.735 136.95C288.653 137.136 288.529 137.403 288.369 137.729C288.208 138.055 288.013 138.441 287.777 138.861C287.659 139.07 287.531 139.289 287.382 139.506C287.305 139.614 287.229 139.724 287.12 139.821C287.041 139.868 286.974 139.872 286.906 139.89C286.838 139.903 286.77 139.917 286.701 139.927C285.603 140.095 284.601 140.178 283.886 140.284C283.709 140.304 283.58 140.407 283.475 140.501C283.372 140.599 283.294 140.695 283.233 140.775C283.111 140.936 283.055 141.034 283.049 141.03C283.046 141.029 283.057 141.002 283.082 140.955C283.107 140.907 283.147 140.839 283.204 140.754C283.262 140.67 283.337 140.569 283.44 140.464C283.542 140.365 283.684 140.246 283.874 140.22C284.593 140.097 285.593 140.004 286.686 139.837C286.754 139.827 286.821 139.813 286.887 139.801C286.951 139.787 287.023 139.772 287.061 139.752C287.155 139.67 287.233 139.56 287.308 139.456C287.455 139.243 287.584 139.027 287.704 138.82C287.942 138.405 288.144 138.022 288.311 137.701C288.471 137.388 288.604 137.129 288.703 136.936C288.745 136.853 288.78 136.785 288.81 136.728C288.82 136.708 288.83 136.691 288.839 136.674C288.843 136.669 288.843 136.66 288.848 136.667C288.843 136.669 288.841 136.669 288.841 136.669Z" fill="#263238"/>
<path d="M292.775 134.653C292.778 134.654 292.768 134.677 292.748 134.719C292.728 134.762 292.693 134.821 292.645 134.896C292.547 135.044 292.381 135.246 292.137 135.452C291.894 135.659 291.576 135.868 291.213 136.078C291.033 136.184 290.843 136.292 290.665 136.428C290.487 136.563 290.326 136.73 290.196 136.929C289.932 137.325 289.788 137.766 289.625 138.152C289.469 138.542 289.284 138.878 289.101 139.138C288.919 139.4 288.747 139.592 288.622 139.718C288.56 139.781 288.509 139.828 288.474 139.859C288.439 139.89 288.419 139.905 288.417 139.902C288.412 139.897 288.48 139.827 288.597 139.694C288.713 139.561 288.876 139.365 289.049 139.102C289.223 138.84 289.398 138.509 289.549 138.12C289.707 137.735 289.849 137.289 290.122 136.878C290.256 136.673 290.427 136.495 290.613 136.357C290.798 136.218 290.992 136.109 291.173 136.006C291.537 135.801 291.854 135.6 292.098 135.403C292.343 135.206 292.513 135.016 292.619 134.876C292.721 134.735 292.768 134.649 292.775 134.653Z" fill="#263238"/>
<path d="M288.4 141.665C288.41 141.687 288.232 141.766 288.002 141.731C287.772 141.698 287.625 141.57 287.641 141.552C287.655 141.53 287.809 141.613 288.016 141.642C288.222 141.674 288.393 141.64 288.4 141.665Z" fill="#263238"/>
<path d="M289.266 141.533C289.277 141.553 288.983 141.682 288.599 141.651C288.215 141.624 287.944 141.453 287.957 141.434C287.968 141.409 288.242 141.535 288.605 141.56C288.969 141.59 289.259 141.507 289.266 141.533Z" fill="#263238"/>
<path d="M291.638 141.867C291.294 141.844 290.983 141.822 290.71 141.803C290.472 141.787 290.325 141.78 290.323 141.793C290.322 141.805 290.467 141.834 290.703 141.867C290.94 141.9 291.268 141.934 291.632 141.957C291.996 141.98 292.326 141.988 292.565 141.986C292.804 141.984 292.952 141.974 292.952 141.962C292.952 141.949 292.805 141.937 292.567 141.922C292.293 141.907 291.982 141.888 291.638 141.867Z" fill="#263238"/>
<path d="M229.103 104.133C229.121 104.124 228.914 104.126 228.795 104.15C228.619 104.185 228.5 104.31 228.385 104.448C228.435 104.461 228.489 104.456 228.541 104.451C228.771 104.429 228.935 104.418 229.166 104.428C229.184 104.346 229.173 104.218 229.103 104.133Z" fill="#263238"/>
<path d="M232.58 104.974C231.865 104.863 231.159 104.689 230.474 104.454C230.008 104.893 229.703 105.497 229.175 105.86C228.936 106.025 228.659 106.133 228.441 106.325C228.14 106.589 227.987 106.98 227.853 107.357C227.487 108.386 227.184 109.437 226.945 110.503L227.661 109.56L227.636 110.128L228.623 108.527L228.722 109.042C228.722 109.042 230.376 107.586 230.993 107.043C231.61 106.5 232.153 105.834 232.153 105.834L232.58 104.974Z" fill="#263238"/>
<path d="M230.648 103.883C230.648 103.883 231.018 103.439 231.314 102.674C231.61 101.909 231.698 100.329 232.58 99.6882C233.462 99.0462 235.658 97.4912 235.658 97.4912L234.745 98.7742L235.856 97.8862C235.856 97.8862 235.535 98.6022 234.918 99.1452L235.812 98.7252C235.812 98.7252 235.701 99.6882 235.297 99.7552C235.242 99.7642 234.985 100.118 234.985 100.118L235.083 100.35C235.083 100.35 234.02 102.609 233.74 103.061C233.459 103.513 232.739 104.404 232.739 104.404L230.648 103.883Z" fill="#263238"/>
<path d="M229.069 104.202C229.079 104.17 229.118 103.775 229.764 103.754C230.409 103.733 230.699 103.818 230.699 103.818C230.699 103.818 232.542 104.308 232.806 104.453C233.07 104.598 234.939 104.155 234.939 104.155C234.939 104.155 235.784 105.639 234.675 106.613C233.566 107.587 232.943 107.228 232.943 107.228C232.943 107.228 232.848 106.067 232.373 105.771C232.373 105.771 231.549 105.76 231.159 105.57C230.768 105.38 230.04 104.694 229.892 104.599C229.744 104.504 229.322 104.562 229.174 104.454C229.025 104.346 229.069 104.202 229.069 104.202Z" fill="#263238"/>
<path d="M229.49 104.237C229.562 104.237 229.62 104.178 229.62 104.107C229.62 104.035 229.562 103.977 229.49 103.977C229.418 103.977 229.36 104.035 229.36 104.107C229.36 104.178 229.418 104.237 229.49 104.237Z" fill="#263238"/>
<path d="M235.083 100.349L234.985 100.117C234.985 100.117 235.242 99.7632 235.297 99.7542C235.701 99.6882 235.812 98.7242 235.812 98.7242L234.918 99.1442C235.535 98.6012 235.856 97.8852 235.856 97.8852L234.745 98.7732L235.658 97.4902C235.658 97.4902 233.461 99.0452 232.58 99.6872L233.995 99.2332L233.731 99.9002L234.848 99.4192C234.848 99.4192 234.615 99.7452 234.739 100.086C234.864 100.427 235.083 100.349 235.083 100.349Z" fill="#263238"/>
<path d="M228.723 109.041L228.624 108.526L227.637 110.127L227.662 109.559L226.946 110.502C227.185 109.436 227.488 108.385 227.854 107.356L227.835 108.312L228.386 107.909V108.602L228.867 108.158L228.723 109.041Z" fill="#263238"/>
<path d="M233.951 106.173C233.944 106.18 233.88 106.126 233.756 106.073C233.634 106.017 233.45 105.969 233.258 105.88C232.872 105.704 232.618 105.467 232.63 105.456C232.642 105.441 232.907 105.652 233.284 105.823C233.47 105.91 233.652 105.964 233.775 106.033C233.899 106.099 233.957 106.168 233.951 106.173Z" fill="#263238"/>
<path d="M234.196 105.766C234.194 105.782 233.864 105.734 233.483 105.586C233.101 105.439 232.826 105.252 232.835 105.239C232.845 105.223 233.13 105.383 233.506 105.528C233.88 105.674 234.2 105.748 234.196 105.766Z" fill="#263238"/>
<path d="M232.456 105.706C232.457 105.71 232.422 105.726 232.355 105.749C232.289 105.771 232.192 105.803 232.067 105.827C231.944 105.852 231.791 105.871 231.622 105.848C231.451 105.828 231.279 105.741 231.117 105.643C230.784 105.448 230.517 105.222 230.337 105.047C230.247 104.959 230.178 104.884 230.133 104.83C230.088 104.776 230.066 104.744 230.069 104.742C230.076 104.735 230.182 104.849 230.367 105.015C230.553 105.18 230.821 105.398 231.148 105.589C231.311 105.687 231.47 105.769 231.63 105.791C231.789 105.816 231.937 105.803 232.059 105.784C232.304 105.743 232.453 105.696 232.456 105.706Z" fill="#263238"/>
<path d="M233.886 99.5587C233.889 99.5617 233.841 99.6157 233.751 99.7097C233.653 99.8107 233.523 99.9437 233.366 100.105C233.204 100.272 233.003 100.466 232.793 100.687C232.691 100.799 232.602 100.932 232.572 101.092C232.54 101.251 232.553 101.424 232.562 101.601C232.58 101.958 232.554 102.302 232.483 102.605C232.414 102.909 232.298 103.168 232.172 103.367C232.046 103.566 231.913 103.705 231.815 103.791C231.766 103.834 231.725 103.865 231.697 103.884C231.669 103.903 231.653 103.913 231.652 103.911C231.641 103.901 231.895 103.741 232.135 103.343C232.254 103.146 232.363 102.89 232.427 102.592C232.493 102.294 232.517 101.957 232.499 101.604C232.491 101.428 232.476 101.25 232.512 101.079C232.544 100.906 232.644 100.761 232.75 100.648C232.967 100.425 233.168 100.237 233.334 100.073C233.496 99.9177 233.631 99.7887 233.733 99.6917C233.829 99.6037 233.883 99.5557 233.886 99.5587Z" fill="#263238"/>
<path d="M234.926 100.64C234.928 100.644 234.9 100.666 234.847 100.704C234.794 100.742 234.714 100.793 234.613 100.851C234.411 100.968 234.118 101.109 233.778 101.219C233.438 101.329 233.118 101.386 232.885 101.409C232.769 101.421 232.674 101.426 232.609 101.426C232.544 101.426 232.508 101.425 232.507 101.42C232.506 101.41 232.65 101.399 232.879 101.364C233.108 101.33 233.422 101.267 233.758 101.159C234.094 101.05 234.385 100.918 234.591 100.812C234.798 100.706 234.921 100.632 234.926 100.64Z" fill="#263238"/>
<path d="M234.974 99.7316C234.977 99.7336 234.962 99.7686 234.919 99.8236C234.876 99.8786 234.802 99.9486 234.698 100.014C234.593 100.08 234.46 100.141 234.314 100.207C234.167 100.272 234.003 100.341 233.831 100.409C233.485 100.545 233.167 100.656 232.937 100.733C232.706 100.809 232.562 100.852 232.559 100.844C232.556 100.836 232.695 100.778 232.922 100.691C233.166 100.597 233.471 100.48 233.808 100.351C233.98 100.283 234.144 100.217 234.291 100.154C234.439 100.091 234.572 100.036 234.676 99.9756C234.886 99.8596 234.966 99.7256 234.974 99.7316Z" fill="#263238"/>
<path d="M234.144 101.802C234.15 101.806 234.086 101.885 233.942 101.944C233.798 102.004 233.594 102.044 233.369 102.096C233.144 102.145 232.94 102.195 232.783 102.191C232.626 102.19 232.539 102.137 232.543 102.131C232.546 102.121 232.635 102.156 232.782 102.146C232.929 102.139 233.13 102.083 233.355 102.034C233.579 101.982 233.786 101.948 233.926 101.901C234.067 101.857 234.138 101.795 234.144 101.802Z" fill="#263238"/>
<path d="M228.172 108.181C228.169 108.18 228.18 108.126 228.214 108.032C228.249 107.939 228.309 107.806 228.41 107.658C228.51 107.51 228.653 107.347 228.845 107.206C229.036 107.063 229.273 106.952 229.519 106.842C229.766 106.732 229.996 106.621 230.183 106.485C230.371 106.351 230.523 106.205 230.637 106.072C230.867 105.805 230.959 105.603 230.97 105.61C230.973 105.611 230.954 105.663 230.907 105.751C230.859 105.838 230.785 105.963 230.672 106.101C230.56 106.24 230.409 106.392 230.218 106.532C230.028 106.674 229.792 106.79 229.546 106.899C229.3 107.009 229.067 107.116 228.88 107.253C228.693 107.388 228.55 107.543 228.448 107.684C228.241 107.969 228.184 108.187 228.172 108.181Z" fill="#263238"/>
<path d="M229.151 108.443C229.132 108.437 229.234 108.153 229.245 107.787C229.26 107.421 229.18 107.131 229.199 107.126C229.213 107.119 229.323 107.411 229.308 107.789C229.296 108.167 229.165 108.45 229.151 108.443Z" fill="#263238"/>
<path d="M229.907 107.828C229.889 107.826 229.9 107.61 229.882 107.346C229.865 107.081 229.825 106.869 229.842 106.865C229.858 106.86 229.927 107.071 229.944 107.342C229.964 107.612 229.923 107.83 229.907 107.828Z" fill="#263238"/>
<path d="M230.538 107.318C230.52 107.319 230.5 107.103 230.448 106.842C230.397 106.581 230.334 106.373 230.351 106.367C230.366 106.361 230.458 106.563 230.509 106.83C230.563 107.096 230.555 107.318 230.538 107.318Z" fill="#263238"/>
<path d="M231.242 106.263C231.23 106.276 231.15 106.224 231.063 106.146C230.976 106.068 230.914 105.995 230.926 105.982C230.937 105.969 231.018 106.021 231.105 106.099C231.192 106.177 231.254 106.251 231.242 106.263Z" fill="#263238"/>
<path d="M232.925 104.055C232.915 104.069 232.722 103.945 232.496 103.779C232.269 103.612 232.094 103.466 232.104 103.452C232.114 103.438 232.306 103.562 232.533 103.728C232.76 103.894 232.936 104.041 232.925 104.055Z" fill="#263238"/>
<path d="M233.74 103.002C233.748 103.016 233.442 103.155 233.034 103.166C232.831 103.171 232.652 103.148 232.522 103.141C232.392 103.132 232.312 103.133 232.311 103.123C232.31 103.115 232.391 103.098 232.523 103.096C232.655 103.092 232.836 103.108 233.032 103.102C233.427 103.093 233.735 102.984 233.74 103.002Z" fill="#263238"/>
<path d="M325.772 142.752C325.788 142.744 325.609 142.746 325.507 142.766C325.355 142.796 325.254 142.904 325.154 143.022C325.197 143.034 325.244 143.029 325.288 143.024C325.486 143.005 325.627 142.996 325.826 143.004C325.842 142.936 325.832 142.826 325.772 142.752Z" fill="#263238"/>
<path d="M328.766 143.476C328.15 143.381 327.543 143.231 326.953 143.028C326.552 143.405 326.289 143.926 325.835 144.238C325.629 144.38 325.391 144.473 325.203 144.638C324.944 144.866 324.812 145.202 324.697 145.526C324.382 146.412 324.121 147.317 323.915 148.234L324.531 147.422L324.51 147.911L325.36 146.533L325.445 146.976C325.445 146.976 326.868 145.722 327.399 145.255C327.93 144.788 328.398 144.214 328.398 144.214L328.766 143.476Z" fill="#263238"/>
<path d="M327.102 142.537C327.102 142.537 327.421 142.154 327.676 141.496C327.931 140.837 328.007 139.478 328.766 138.925C329.525 138.373 331.416 137.034 331.416 137.034L330.63 138.139L331.586 137.374C331.586 137.374 331.31 137.99 330.779 138.457L331.549 138.095C331.549 138.095 331.453 138.924 331.106 138.981C331.058 138.989 330.838 139.294 330.838 139.294L330.922 139.494C330.922 139.494 330.007 141.439 329.766 141.828C329.524 142.217 328.904 142.984 328.904 142.984L327.102 142.537Z" fill="#263238"/>
<path d="M325.742 142.811C325.751 142.784 325.785 142.444 326.34 142.426C326.895 142.408 327.145 142.481 327.145 142.481C327.145 142.481 328.732 142.903 328.959 143.028C329.186 143.153 330.795 142.771 330.795 142.771C330.795 142.771 331.522 144.048 330.568 144.887C329.614 145.725 329.077 145.416 329.077 145.416C329.077 145.416 328.995 144.416 328.586 144.162C328.586 144.162 327.877 144.153 327.541 143.989C327.205 143.825 326.577 143.235 326.45 143.153C326.323 143.071 325.959 143.121 325.832 143.028C325.705 142.935 325.742 142.811 325.742 142.811Z" fill="#263238"/>
<path d="M326.217 142.729C326.217 142.791 326.167 142.841 326.105 142.841C326.043 142.841 325.993 142.791 325.993 142.729C325.993 142.667 326.043 142.617 326.105 142.617C326.167 142.617 326.217 142.667 326.217 142.729Z" fill="#263238"/>
<path d="M330.92 139.495L330.836 139.295C330.836 139.295 331.057 138.99 331.104 138.982C331.452 138.925 331.547 138.096 331.547 138.096L330.777 138.458C331.308 137.991 331.584 137.375 331.584 137.375L330.628 138.14L331.414 137.035C331.414 137.035 329.523 138.373 328.764 138.926L329.982 138.535L329.755 139.109L330.716 138.695C330.716 138.695 330.516 138.975 330.623 139.269C330.732 139.562 330.92 139.495 330.92 139.495Z" fill="#263238"/>
<path d="M325.445 146.977L325.36 146.534L324.51 147.912L324.531 147.423L323.915 148.235C324.121 147.318 324.382 146.413 324.697 145.527L324.68 146.35L325.154 146.004V146.601L325.568 146.218L325.445 146.977Z" fill="#263238"/>
<path d="M329.945 144.508C329.939 144.514 329.883 144.468 329.777 144.422C329.672 144.374 329.514 144.333 329.348 144.256C329.016 144.105 328.797 143.9 328.807 143.891C328.817 143.878 329.046 144.06 329.37 144.207C329.531 144.282 329.687 144.329 329.793 144.388C329.901 144.445 329.95 144.504 329.945 144.508Z" fill="#263238"/>
<path d="M330.156 144.158C330.154 144.172 329.87 144.131 329.542 144.003C329.213 143.877 328.976 143.715 328.984 143.704C328.992 143.69 329.238 143.828 329.562 143.953C329.884 144.078 330.159 144.142 330.156 144.158Z" fill="#263238"/>
<path d="M328.658 144.106C328.659 144.109 328.628 144.123 328.571 144.143C328.514 144.162 328.43 144.189 328.324 144.211C328.218 144.232 328.086 144.249 327.941 144.229C327.794 144.212 327.646 144.137 327.506 144.053C327.22 143.886 326.99 143.69 326.835 143.54C326.758 143.464 326.698 143.4 326.66 143.353C326.621 143.307 326.602 143.279 326.604 143.277C326.61 143.271 326.701 143.369 326.861 143.512C327.021 143.654 327.252 143.842 327.533 144.006C327.673 144.091 327.81 144.161 327.948 144.18C328.085 144.202 328.212 144.19 328.317 144.174C328.528 144.138 328.656 144.097 328.658 144.106Z" fill="#263238"/>
<path d="M329.889 138.815C329.892 138.818 329.85 138.864 329.773 138.945C329.688 139.032 329.577 139.147 329.442 139.285C329.303 139.428 329.13 139.596 328.949 139.786C328.862 139.882 328.784 139.997 328.759 140.134C328.731 140.271 328.743 140.42 328.75 140.572C328.765 140.879 328.743 141.175 328.682 141.436C328.622 141.697 328.523 141.921 328.414 142.092C328.306 142.264 328.191 142.383 328.106 142.457C328.064 142.494 328.029 142.521 328.004 142.537C327.979 142.554 327.966 142.562 327.965 142.56C327.955 142.551 328.175 142.414 328.381 142.071C328.483 141.901 328.577 141.681 328.633 141.424C328.69 141.168 328.71 140.877 328.695 140.573C328.688 140.421 328.675 140.268 328.706 140.121C328.734 139.972 328.82 139.847 328.911 139.75C329.097 139.558 329.27 139.396 329.414 139.255C329.554 139.121 329.67 139.011 329.757 138.927C329.84 138.853 329.887 138.812 329.889 138.815Z" fill="#263238"/>
<path d="M330.785 139.746C330.787 139.749 330.763 139.769 330.717 139.801C330.671 139.834 330.603 139.878 330.515 139.928C330.341 140.029 330.089 140.15 329.796 140.245C329.503 140.339 329.228 140.388 329.028 140.408C328.928 140.418 328.847 140.423 328.79 140.423C328.734 140.423 328.703 140.422 328.703 140.418C328.703 140.409 328.826 140.4 329.023 140.37C329.22 140.341 329.49 140.286 329.78 140.193C330.069 140.099 330.32 139.985 330.497 139.894C330.674 139.803 330.78 139.739 330.785 139.746Z" fill="#263238"/>
<path d="M330.826 138.963C330.829 138.964 330.816 138.995 330.779 139.042C330.742 139.089 330.679 139.149 330.588 139.206C330.498 139.263 330.384 139.316 330.257 139.372C330.13 139.428 329.99 139.487 329.841 139.546C329.543 139.663 329.27 139.758 329.071 139.825C328.872 139.891 328.748 139.928 328.745 139.921C328.742 139.914 328.862 139.864 329.058 139.789C329.268 139.708 329.531 139.608 329.821 139.496C329.969 139.437 330.11 139.38 330.237 139.327C330.364 139.273 330.479 139.225 330.568 139.174C330.75 139.072 330.819 138.957 330.826 138.963Z" fill="#263238"/>
<path d="M330.112 140.746C330.117 140.75 330.062 140.818 329.938 140.868C329.814 140.92 329.639 140.954 329.445 140.999C329.252 141.041 329.076 141.085 328.941 141.081C328.806 141.08 328.731 141.034 328.734 141.029C328.737 141.021 328.813 141.051 328.94 141.042C329.066 141.036 329.24 140.988 329.433 140.945C329.625 140.9 329.804 140.871 329.924 140.831C330.045 140.793 330.106 140.739 330.112 140.746Z" fill="#263238"/>
<path d="M324.97 146.237C324.967 146.236 324.977 146.19 325.006 146.109C325.036 146.029 325.088 145.915 325.175 145.787C325.262 145.66 325.384 145.519 325.549 145.398C325.713 145.275 325.917 145.179 326.129 145.085C326.341 144.991 326.539 144.895 326.701 144.778C326.863 144.662 326.994 144.537 327.092 144.422C327.29 144.193 327.369 144.019 327.379 144.024C327.382 144.025 327.365 144.07 327.324 144.145C327.283 144.22 327.219 144.327 327.121 144.446C327.025 144.566 326.894 144.697 326.73 144.817C326.566 144.94 326.364 145.039 326.151 145.133C325.939 145.228 325.739 145.32 325.578 145.437C325.417 145.553 325.294 145.686 325.206 145.808C325.03 146.054 324.981 146.241 324.97 146.237Z" fill="#263238"/>
<path d="M325.814 146.462C325.798 146.457 325.885 146.212 325.895 145.897C325.908 145.582 325.839 145.332 325.856 145.328C325.868 145.322 325.963 145.573 325.95 145.899C325.938 146.225 325.825 146.468 325.814 146.462Z" fill="#263238"/>
<path d="M326.464 145.933C326.448 145.931 326.458 145.745 326.442 145.518C326.427 145.29 326.393 145.107 326.408 145.103C326.422 145.099 326.481 145.28 326.496 145.514C326.513 145.748 326.478 145.935 326.464 145.933Z" fill="#263238"/>
<path d="M327.007 145.493C326.991 145.494 326.974 145.308 326.929 145.083C326.885 144.858 326.831 144.68 326.846 144.674C326.859 144.669 326.938 144.843 326.982 145.072C327.028 145.303 327.022 145.493 327.007 145.493Z" fill="#263238"/>
<path d="M327.614 144.586C327.604 144.597 327.535 144.552 327.46 144.485C327.385 144.418 327.332 144.355 327.342 144.344C327.352 144.333 327.421 144.378 327.496 144.445C327.571 144.512 327.624 144.575 327.614 144.586Z" fill="#263238"/>
<path d="M329.063 142.684C329.054 142.696 328.889 142.59 328.693 142.446C328.498 142.303 328.347 142.176 328.355 142.165C328.364 142.153 328.529 142.259 328.725 142.403C328.92 142.546 329.071 142.672 329.063 142.684Z" fill="#263238"/>
<path d="M329.764 141.779C329.771 141.791 329.507 141.91 329.157 141.92C328.982 141.925 328.828 141.905 328.717 141.899C328.605 141.891 328.536 141.892 328.536 141.884C328.535 141.877 328.605 141.863 328.718 141.861C328.831 141.857 328.987 141.871 329.156 141.867C329.495 141.856 329.759 141.763 329.764 141.779Z" fill="#263238"/>
<g opacity="0.2">
<path d="M467.242 308.367C467.363 308.377 467.388 308.379 467.306 308.371C467.29 308.37 467.267 308.368 467.242 308.367Z" fill="#263238"/>
<path d="M285.185 308.422C285.523 308.508 285.875 308.597 286.238 308.69L286.148 308.236C285.842 308.295 285.522 308.357 285.185 308.422Z" fill="#263238"/>
<path d="M238.791 304.72C239.129 304.806 239.481 304.895 239.844 304.987L239.754 304.532C239.447 304.592 239.128 304.654 238.791 304.72Z" fill="#263238"/>
<path d="M184.427 304.71L184.572 304.747C184.568 304.726 184.564 304.705 184.56 304.684L184.427 304.71Z" fill="#263238"/>
<path d="M192.731 303.925L193.485 304.119L193.42 303.794L192.731 303.925Z" fill="#263238"/>
<path d="M318.954 308.187L318.865 308.458C319.024 308.498 319.189 308.54 319.352 308.582L319.262 308.127C319.159 308.147 319.061 308.166 318.954 308.187Z" fill="#263238"/>
<path d="M197.628 304.463L197.605 304.349L196.916 304.48L198.241 304.821L198.157 305.074L198.627 305.017L198.58 304.758L197.628 304.463Z" fill="#263238"/>
<path d="M135.982 279.273L17.129 274.816V296.736C17.129 296.736 79.58 297.582 145.324 298.482C145.632 300.071 146.057 302.265 146.567 304.899L146.574 304.937L146.619 304.951C146.965 305.059 147.323 305.17 147.683 305.283C147.379 305.319 147.076 305.356 146.762 305.394L146.683 305.404L146.693 305.47C147.088 308.041 147.531 310.929 148.002 313.993L148.063 314.393L148.189 314.009C148.309 313.643 148.43 313.273 148.552 312.9C149.12 311.161 149.671 309.473 150.187 307.891L150.209 307.822L150.126 307.797C149.74 307.682 149.364 307.569 149.002 307.461C149.408 307.39 149.809 307.32 150.178 307.256L150.229 307.247L150.243 307.206C150.88 305.279 151.469 303.5 151.985 301.94L152.201 303.027L153.287 303.363L152.306 303.483L153.357 310.273L154.951 305.399L153.817 305.059L154.999 304.854L156.581 300.116L155.158 299.75L156.638 299.468L156.917 298.642C157.682 298.652 158.446 298.663 159.211 298.673L160.245 303.128L162.05 303.606L160.42 303.776L162.167 313.443L164.816 306.504L162.931 306.02L164.896 305.728L166.837 300.749L167.379 303.085L168.465 303.373L167.484 303.475L168.535 309.29L170.129 305.116L168.995 304.824L170.177 304.648L171.759 300.59L170.336 300.277L171.816 300.036L172.284 298.851C172.741 298.857 173.199 298.864 173.656 298.87C173.951 300.176 174.334 301.87 174.783 303.855L174.79 303.888L174.835 303.9C175.181 303.992 175.539 304.088 175.899 304.184C175.595 304.215 175.292 304.247 174.977 304.279L174.898 304.287L174.908 304.343C175.303 306.545 175.746 309.018 176.217 311.642L176.278 311.985L176.404 311.656C176.524 311.342 176.645 311.025 176.767 310.707C177.335 309.217 177.886 307.772 178.402 306.417L178.424 306.358L178.341 306.337C177.955 306.238 177.579 306.142 177.217 306.049C177.624 305.988 178.024 305.929 178.393 305.873L178.444 305.865L178.458 305.83C179.19 303.934 179.859 302.204 180.427 300.734L180.445 300.686L180.377 300.671C179.833 300.553 179.316 300.44 178.819 300.332C179.399 300.235 179.947 300.144 180.444 300.061L180.475 300.056L180.483 300.034C180.559 299.837 180.63 299.65 180.7 299.469L181.47 302.786L182.556 303.074L181.575 303.176L182.626 308.991L184.22 304.817L183.086 304.525L184.268 304.349L185.081 302.263C185.145 302.546 185.21 302.835 185.278 303.134L185.284 303.163L185.323 303.173C185.623 303.253 185.934 303.336 186.246 303.419C185.982 303.446 185.719 303.473 185.447 303.501L185.378 303.508L185.387 303.557C185.729 305.467 186.114 307.613 186.522 309.89L186.575 310.187L186.684 309.901C186.788 309.629 186.893 309.354 186.999 309.077C187.491 307.785 187.969 306.53 188.417 305.355L188.436 305.304L188.364 305.286C188.029 305.2 187.703 305.117 187.389 305.036C187.665 304.995 187.933 304.955 188.192 304.916L188.237 305.166L188.341 304.894C188.363 304.891 188.387 304.887 188.409 304.884L188.453 304.877L188.465 304.847C189.018 303.415 189.528 302.094 189.976 300.934L190.163 301.741L191.105 301.991L190.254 302.08L191.166 307.125L192.548 303.504L191.564 303.251L192.59 303.099L193.676 300.312L194.159 302.395L195.17 302.663L194.257 302.759L195.236 308.174L196.72 304.287L195.664 304.016L196.765 303.852L197.891 300.963L198.576 304.755L199.191 304.945L198.623 305.014L199.292 308.716L201.59 302.696L199.954 302.276L201.659 302.023L202.733 299.269C203.059 299.273 203.384 299.278 203.71 299.282L203.814 299.73L204.756 299.98L203.905 300.069L204.817 305.114L206.2 301.493L205.216 301.24L206.242 301.088L206.928 299.327C207.952 299.341 208.978 299.355 210.005 299.369C210.081 299.703 210.157 300.043 210.238 300.399L210.245 300.428L210.284 300.438C210.584 300.518 210.895 300.601 211.207 300.684C210.944 300.711 210.68 300.738 210.408 300.766L210.339 300.773L210.348 300.822C210.69 302.732 211.075 304.878 211.483 307.154L211.536 307.451L211.645 307.165C211.749 306.893 211.854 306.618 211.96 306.341C212.452 305.049 212.93 303.794 213.378 302.619L213.397 302.568L213.325 302.55C212.99 302.464 212.664 302.381 212.35 302.3C212.703 302.247 213.05 302.195 213.37 302.147L213.414 302.14L213.426 302.109C213.792 301.161 214.139 300.264 214.462 299.427C214.986 299.434 215.51 299.441 216.034 299.449L216.039 299.469L216.981 299.719L216.13 299.808L217.042 304.853L218.425 301.232L217.441 300.979L218.467 300.827L218.988 299.491C219.841 299.503 220.694 299.515 221.548 299.526L221.911 301.536L222.672 299.542C224.014 299.561 225.357 299.579 226.702 299.598L227.912 306.294L229.812 301.318L228.46 300.97L229.869 300.761L230.303 299.648C231.712 299.668 233.121 299.687 234.532 299.707C234.748 300.663 235.002 301.786 235.286 303.043L235.292 303.072L235.331 303.082C235.631 303.162 235.942 303.245 236.254 303.328C235.99 303.355 235.727 303.382 235.455 303.41L235.386 303.417L235.395 303.466C235.737 305.376 236.122 307.522 236.53 309.798L236.583 310.095L236.692 309.809C236.796 309.537 236.901 309.262 237.007 308.985C237.5 307.693 237.978 306.438 238.425 305.263L238.445 305.212L238.373 305.194C238.038 305.108 237.712 305.025 237.398 304.944C237.751 304.891 238.098 304.839 238.419 304.792L238.463 304.785L238.475 304.755C239.028 303.323 239.539 302.002 239.986 300.842L240.174 301.65L241.116 301.9L240.265 301.989L241.177 307.034L242.56 303.413L241.576 303.16L242.602 303.008L243.839 299.836C245.387 299.857 246.935 299.879 248.482 299.9L249.203 300.091L247.789 300.239L249.305 308.625L251.603 302.605L249.967 302.185L251.672 301.932L252.443 299.955C252.942 299.962 253.441 299.969 253.941 299.976L253.918 299.978L254.83 305.023L256.213 301.402L255.229 301.149L256.255 300.997L256.638 300.014C257.824 300.03 259.01 300.047 260.195 300.063C260.214 300.146 260.232 300.225 260.251 300.309L260.258 300.338L260.297 300.348C260.597 300.428 260.908 300.511 261.22 300.594C260.956 300.621 260.693 300.648 260.421 300.676L260.352 300.683L260.361 300.732C260.703 302.642 261.088 304.788 261.496 307.064L261.549 307.361L261.658 307.075C261.762 306.803 261.867 306.528 261.973 306.251C262.465 304.959 262.943 303.704 263.391 302.529L263.411 302.478L263.339 302.46C263.004 302.374 262.678 302.291 262.364 302.21C262.717 302.157 263.064 302.106 263.385 302.058L263.429 302.051L263.441 302.021C263.696 301.361 263.941 300.726 264.176 300.117C264.858 300.126 265.54 300.136 266.222 300.145L267.057 304.763L268.44 301.142L267.456 300.889L268.482 300.737L268.699 300.18C269.701 300.194 270.703 300.208 271.705 300.222L271.926 301.446L272.39 300.231C273.881 300.252 275.371 300.272 276.859 300.293L277.927 306.203L279.827 301.227L278.475 300.88L279.884 300.671L280.014 300.338C280.131 300.34 280.248 300.341 280.364 300.343C280.422 300.608 280.49 300.919 280.57 301.285C280.839 302.475 281.222 304.17 281.684 306.215L281.69 306.244L281.729 306.254C282.029 306.334 282.34 306.417 282.652 306.5C282.388 306.527 282.125 306.554 281.853 306.582L281.784 306.589L281.793 306.638C282.135 308.548 282.52 310.694 282.928 312.97L282.981 313.267L283.09 312.981C283.194 312.709 283.299 312.434 283.405 312.157C283.897 310.865 284.375 309.61 284.823 308.435L284.843 308.384L284.771 308.366C284.436 308.28 284.11 308.197 283.796 308.116C284.149 308.063 284.496 308.011 284.817 307.964L284.861 307.957L284.873 307.927C285.426 306.495 285.937 305.174 286.384 304.014L286.571 304.822L287.513 305.072L286.662 305.161L287.574 310.206L288.957 306.585L287.973 306.332L288.999 306.18L290.371 302.66L289.137 302.388L290.421 302.179L291.087 300.493C291.891 300.504 292.694 300.515 293.496 300.527L294.035 302.848L295.601 303.263L294.187 303.411L295.702 311.797L298 305.777L296.364 305.357L298.069 305.104L299.753 300.785L300.223 302.812L301.165 303.062L300.314 303.151L301.226 308.196L302.609 304.575L301.625 304.322L302.651 304.17L304.013 300.675C304.682 300.684 305.351 300.694 306.019 300.703C306.206 301.529 306.417 302.462 306.647 303.481L306.654 303.51L306.693 303.52C306.993 303.6 307.304 303.683 307.616 303.766C307.353 303.793 307.089 303.82 306.817 303.848L306.748 303.855L306.757 303.904C307.099 305.814 307.484 307.96 307.892 310.236L307.945 310.533L308.054 310.247C308.158 309.975 308.263 309.7 308.368 309.423C308.861 308.131 309.338 306.876 309.786 305.701L309.806 305.65L309.734 305.631C309.399 305.545 309.073 305.462 308.759 305.381C309.112 305.328 309.459 305.276 309.78 305.228L309.824 305.221L309.836 305.191C310.47 303.549 311.049 302.051 311.541 300.777C311.707 300.779 311.873 300.782 312.039 300.784L312.449 302.551L313.391 302.801L312.54 302.89L313.452 307.935L314.556 305.044C314.635 305.392 314.715 305.749 314.8 306.121L314.806 306.15L314.845 306.16C315.145 306.24 315.456 306.323 315.768 306.406C315.505 306.433 315.241 306.46 314.969 306.488L314.9 306.495L314.909 306.544C315.251 308.454 315.636 310.6 316.044 312.876L316.097 313.173L316.206 312.887C316.31 312.615 316.415 312.34 316.521 312.063C317.014 310.771 317.491 309.516 317.939 308.341L317.959 308.29L317.887 308.271C317.552 308.185 317.226 308.102 316.912 308.021C317.265 307.968 317.612 307.916 317.933 307.869L317.977 307.862L317.989 307.832C318.542 306.4 319.053 305.079 319.5 303.919L319.687 304.727L320.629 304.977L319.778 305.066L320.69 310.111L322.073 306.49L321.089 306.237L322.115 306.085L323.217 303.257L323.957 307.354L324.238 307.441L323.978 307.473L324.321 309.374L326.221 304.398L324.869 304.05L326.278 303.841L326.982 302.035L327.149 302.752L328.715 303.167L327.301 303.315L328.817 311.701L331.115 305.681L329.479 305.261L331.184 305.008L332.717 301.074C332.797 301.075 332.877 301.076 332.958 301.077L333.338 302.715L334.28 302.965L333.429 303.054L334.341 308.099L335.724 304.478L334.74 304.225L335.766 304.073L336.912 301.134C337.697 301.145 338.48 301.156 339.261 301.167C339.415 301.848 339.582 302.589 339.762 303.385L339.768 303.414L339.807 303.424C340.107 303.504 340.418 303.587 340.73 303.67C340.466 303.697 340.203 303.724 339.931 303.752L339.862 303.759L339.871 303.808C340.213 305.718 340.598 307.864 341.006 310.14L341.059 310.437L341.168 310.151C341.272 309.879 341.377 309.604 341.483 309.327C341.975 308.035 342.453 306.78 342.901 305.605L342.921 305.554L342.849 305.536C342.514 305.45 342.188 305.367 341.874 305.286C342.227 305.233 342.574 305.181 342.894 305.133L342.938 305.126L342.95 305.096C343.494 303.687 343.997 302.384 344.44 301.238C344.722 301.242 345.002 301.246 345.283 301.25L345.563 302.455L346.505 302.705L345.654 302.794L346.566 307.839L347.948 304.218L346.964 303.965L347.99 303.813L348.968 301.303C349.599 301.312 350.228 301.321 350.857 301.33L351.434 304.522L352.504 301.719L351.742 301.523L352.536 301.405L352.556 301.354C353.846 301.372 355.131 301.391 356.408 301.409L356.573 302.118L357.45 302.35L356.658 302.433L357.507 307.131L358.794 303.759L357.878 303.523L358.833 303.381L359.584 301.453C360.726 301.057 466.245 296.644 468.647 296.768C461.821 296.299 135.982 279.273 135.982 279.273ZM150.603 300.785C150.99 300.71 151.361 300.638 151.713 300.569L151.817 301.093C151.398 300.987 150.992 300.884 150.603 300.785Z" fill="#263238"/>
<path d="M313.85 309.478L314.363 309.632C314.348 309.554 314.332 309.473 314.317 309.397L313.85 309.478Z" fill="#263238"/>
<path d="M323.418 307.193L322.251 307.415L323.074 307.626L323.068 307.589L323.977 307.478L323.956 307.359L323.418 307.193Z" fill="#263238"/>
</g>
<path d="M121.702 295.122C121.702 295.122 474.933 296.774 470 296.774C465.067 296.774 17.129 259.041 17.129 259.041V295.122H121.702Z" fill="#263238"/>
<path d="M220.886 267.463L221.892 272.757L220.886 273.011L221.892 273.337L222.898 278.486L221.641 278.74L222.898 279.175L223.569 282.547H217.533L219.335 275.005L220.299 274.751L219.461 274.534L220.886 267.463Z" fill="#263238"/>
<path d="M231.862 266.583L233.244 273.857L231.862 274.206L233.244 274.654L234.626 281.729L232.899 282.078L234.626 282.676L235.548 287.309H227.254L229.731 276.946L231.055 276.597L229.903 276.298L231.862 266.583Z" fill="#263238"/>
<path d="M225.396 272.699L226.175 276.797L225.396 276.994L226.175 277.246L226.953 281.232L225.98 281.428L226.953 281.765L227.473 284.376H222.8L224.195 278.537L224.942 278.341L224.293 278.172L225.396 272.699Z" fill="#263238"/>
<path d="M208.735 265.785L209.741 271.079L208.735 271.332L209.741 271.659L210.747 276.807L209.489 277.061L210.747 277.496L211.418 280.868H205.381L207.184 273.327L208.148 273.073L207.31 272.855L208.735 265.785Z" fill="#263238"/>
<path d="M195.342 261.463L196.349 266.756L195.342 267.01L196.349 267.337L197.355 272.485L196.097 272.739L197.355 273.174L198.025 276.546H191.989L193.792 269.004L194.756 268.751L193.917 268.533L195.342 261.463Z" fill="#263238"/>
<path d="M198.026 285.148L201.022 272.611L202.625 272.189L201.231 271.827L203.601 260.074L205.273 268.874L203.601 269.296L205.273 269.838L206.945 278.397L204.855 278.819L206.945 279.543L208.06 285.148" fill="#263238"/>
<path d="M211.456 282.547L213.718 273.081L214.928 272.763L213.876 272.489L215.665 263.615L216.927 270.259L215.665 270.578L216.927 270.988L218.19 277.45L216.612 277.768L218.19 278.315L219.032 282.547" fill="#263238"/>
<path d="M219.032 282.548C219.03 282.548 219.023 282.525 219.011 282.477C218.998 282.422 218.982 282.353 218.962 282.266C218.92 282.069 218.861 281.794 218.785 281.441C218.634 280.709 218.416 279.655 218.142 278.325L218.174 278.362C217.695 278.199 217.162 278.017 216.593 277.823L216.397 277.756L216.6 277.714C217.097 277.612 217.625 277.503 218.177 277.39L218.128 277.463C217.76 275.6 217.326 273.407 216.851 271.004L216.903 271.063C216.508 270.936 216.077 270.796 215.64 270.655L215.379 270.57L215.646 270.503C216.041 270.403 216.472 270.294 216.908 270.183L216.849 270.276C216.522 268.558 216.172 266.725 215.813 264.836C215.736 264.432 215.66 264.03 215.584 263.632L215.747 263.633C215.101 266.823 214.491 269.829 213.949 272.505L213.895 272.419C214.254 272.513 214.603 272.604 214.947 272.694L215.212 272.763L214.947 272.832C214.533 272.94 214.13 273.045 213.736 273.148L213.785 273.098C213.091 275.949 212.517 278.31 212.113 279.969C211.91 280.785 211.749 281.429 211.637 281.878C211.582 282.09 211.539 282.256 211.507 282.378C211.476 282.491 211.459 282.549 211.456 282.548C211.453 282.547 211.463 282.488 211.487 282.373C211.514 282.25 211.551 282.082 211.597 281.868C211.7 281.417 211.848 280.77 212.036 279.95C212.426 278.287 212.981 275.921 213.651 273.065L213.66 273.025L213.7 273.014C214.093 272.91 214.495 272.803 214.909 272.693V272.831C214.565 272.743 214.215 272.653 213.856 272.56L213.788 272.543L213.802 272.474C214.339 269.797 214.942 266.789 215.582 263.598L215.665 263.181L215.744 263.599C215.82 263.997 215.896 264.399 215.973 264.803C216.331 266.692 216.679 268.526 217.004 270.244L217.018 270.319L216.944 270.337C216.507 270.447 216.076 270.555 215.681 270.654L215.686 270.502C216.123 270.644 216.554 270.785 216.948 270.913L216.991 270.927L217 270.972C217.464 273.378 217.888 275.572 218.248 277.437L218.26 277.498L218.199 277.51C217.646 277.62 217.118 277.724 216.62 277.823L216.627 277.714C217.194 277.913 217.725 278.099 218.203 278.267L218.23 278.276L218.235 278.303C218.49 279.636 218.693 280.693 218.833 281.428C218.898 281.783 218.949 282.06 218.985 282.258C219 282.346 219.012 282.417 219.021 282.472C219.031 282.523 219.034 282.548 219.032 282.548Z" fill="#263238"/>
<path d="M186.87 275.985L189.132 266.519L190.342 266.201L189.29 265.928L191.079 257.053L192.342 263.698L191.079 264.016L192.342 264.426L193.604 270.888L192.026 271.207L193.604 271.753L194.446 275.985" fill="#263238"/>
<path d="M194.446 275.984C194.444 275.984 194.437 275.961 194.425 275.913C194.412 275.858 194.396 275.789 194.376 275.702C194.334 275.506 194.275 275.23 194.199 274.877C194.048 274.145 193.83 273.091 193.556 271.761L193.588 271.798C193.109 271.635 192.576 271.453 192.007 271.259L191.811 271.192L192.014 271.15C192.511 271.048 193.039 270.939 193.591 270.826L193.542 270.899C193.174 269.036 192.74 266.843 192.265 264.44L192.317 264.499C191.922 264.372 191.491 264.232 191.054 264.091L190.792 264.006L191.059 263.938C191.454 263.838 191.885 263.729 192.321 263.618L192.262 263.711C191.935 261.993 191.585 260.16 191.226 258.271C191.149 257.867 191.073 257.465 190.997 257.067L191.16 257.068C190.514 260.258 189.904 263.264 189.362 265.94L189.308 265.854C189.667 265.948 190.016 266.039 190.36 266.129L190.625 266.198L190.36 266.267C189.945 266.375 189.543 266.48 189.149 266.583L189.198 266.533C188.504 269.383 187.929 271.745 187.526 273.404C187.323 274.22 187.162 274.864 187.05 275.313C186.995 275.525 186.952 275.691 186.92 275.813C186.889 275.926 186.872 275.983 186.869 275.983C186.866 275.982 186.876 275.923 186.9 275.808C186.927 275.685 186.964 275.517 187.01 275.303C187.113 274.852 187.261 274.206 187.449 273.385C187.839 271.722 188.394 269.356 189.064 266.5L189.073 266.46L189.113 266.449C189.506 266.345 189.908 266.238 190.322 266.127V266.265C189.978 266.177 189.628 266.087 189.269 265.994L189.201 265.977L189.215 265.908C189.752 263.231 190.355 260.223 190.995 257.032L191.078 256.615L191.157 257.033C191.233 257.431 191.309 257.833 191.386 258.237C191.744 260.126 192.092 261.96 192.417 263.678L192.431 263.753L192.357 263.771C191.921 263.881 191.489 263.989 191.094 264.088L191.099 263.936C191.536 264.078 191.967 264.219 192.361 264.347L192.404 264.361L192.413 264.406C192.877 266.812 193.301 269.006 193.661 270.871L193.673 270.932L193.612 270.944C193.059 271.054 192.531 271.158 192.033 271.257L192.04 271.148C192.607 271.347 193.138 271.533 193.616 271.701L193.643 271.71L193.648 271.737C193.903 273.07 194.106 274.127 194.246 274.862C194.311 275.217 194.362 275.494 194.398 275.692C194.413 275.78 194.424 275.85 194.434 275.906C194.446 275.959 194.449 275.984 194.446 275.984Z" fill="#263238"/>
<path d="M270.695 272.954L271.702 278.248L270.695 278.502L271.702 278.828L272.707 283.977L271.45 284.231L272.707 284.666L273.378 288.038H267.342L269.144 280.496L270.109 280.242L269.27 280.025L270.695 272.954Z" fill="#263238"/>
<path d="M281.671 272.074L283.053 279.348L281.671 279.697L283.053 280.145L284.436 287.22L282.708 287.569L284.436 288.167L285.357 292.8H277.063L279.54 282.437L280.864 282.088L279.712 281.789L281.671 272.074Z" fill="#263238"/>
<path d="M275.205 278.19L275.984 282.288L275.205 282.485L275.984 282.737L276.763 286.723L275.789 286.92L276.763 287.256L277.282 289.867H272.609L274.004 284.029L274.751 283.832L274.102 283.664L275.205 278.19Z" fill="#263238"/>
<path d="M258.544 271.276L259.55 276.57L258.544 276.824L259.55 277.15L260.556 282.299L259.298 282.552L260.556 282.988L261.227 286.36H255.19L256.993 278.818L257.957 278.564L257.119 278.346L258.544 271.276Z" fill="#263238"/>
<path d="M245.151 266.954L246.158 272.247L245.151 272.501L246.158 272.828L247.164 277.976L245.906 278.23L247.164 278.665L247.834 282.037H241.798L243.601 274.496L244.565 274.242L243.726 274.024L245.151 266.954Z" fill="#263238"/>
<path d="M247.835 290.639L250.832 278.102L252.434 277.68L251.041 277.319L253.41 265.565L255.082 274.365L253.41 274.787L255.082 275.329L256.755 283.888L254.664 284.31L256.755 285.034L257.87 290.639" fill="#263238"/>
<path d="M261.265 288.038L263.527 278.572L264.737 278.254L263.685 277.98L265.474 269.106L266.736 275.75L265.474 276.069L266.736 276.479L267.999 282.941L266.421 283.26L267.999 283.806L268.841 288.038" fill="#263238"/>
<path d="M268.841 288.039C268.839 288.039 268.832 288.016 268.82 287.968C268.807 287.913 268.791 287.844 268.771 287.757C268.729 287.56 268.67 287.285 268.594 286.932C268.443 286.2 268.225 285.146 267.951 283.816L267.983 283.853C267.504 283.69 266.971 283.508 266.402 283.314L266.206 283.247L266.409 283.205C266.906 283.103 267.434 282.994 267.986 282.881L267.937 282.954C267.568 281.091 267.135 278.898 266.659 276.495L266.711 276.554C266.316 276.427 265.885 276.287 265.448 276.146L265.186 276.061L265.453 275.993C265.848 275.893 266.279 275.784 266.715 275.673L266.656 275.766C266.329 274.048 265.98 272.215 265.62 270.326C265.543 269.922 265.467 269.52 265.391 269.122L265.554 269.123C264.908 272.313 264.298 275.319 263.756 277.995L263.702 277.909C264.061 278.003 264.41 278.094 264.754 278.184L265.019 278.253L264.754 278.322C264.339 278.43 263.937 278.535 263.543 278.638L263.592 278.588C262.898 281.438 262.324 283.8 261.92 285.459C261.717 286.275 261.557 286.919 261.445 287.368C261.39 287.58 261.347 287.746 261.315 287.868C261.284 287.981 261.267 288.039 261.264 288.038C261.26 288.037 261.271 287.978 261.295 287.863C261.322 287.74 261.359 287.572 261.405 287.358C261.508 286.907 261.656 286.26 261.844 285.44C262.234 283.777 262.789 281.411 263.459 278.555L263.468 278.515L263.508 278.504C263.901 278.4 264.303 278.293 264.717 278.183V278.322C264.373 278.234 264.023 278.143 263.664 278.051L263.596 278.034L263.61 277.965C264.147 275.288 264.75 272.28 265.39 269.089L265.474 268.672L265.553 269.09C265.629 269.488 265.705 269.89 265.782 270.294C266.14 272.183 266.488 274.017 266.813 275.735L266.827 275.81L266.753 275.829C266.317 275.939 265.885 276.047 265.49 276.146L265.495 275.994C265.932 276.136 266.363 276.277 266.757 276.405L266.8 276.419L266.809 276.464C267.273 278.87 267.697 281.064 268.057 282.929L268.069 282.99L268.008 283.002C267.455 283.112 266.927 283.216 266.429 283.315L266.436 283.206C267.003 283.405 267.534 283.591 268.012 283.759L268.039 283.768L268.044 283.795C268.299 285.128 268.502 286.186 268.642 286.92C268.707 287.275 268.758 287.552 268.794 287.75C268.809 287.838 268.821 287.909 268.83 287.964C268.841 288.014 268.843 288.039 268.841 288.039Z" fill="#263238"/>
<path d="M236.679 281.475L238.941 272.009L240.152 271.691L239.099 271.418L240.888 262.543L242.151 269.188L240.888 269.506L242.151 269.916L243.413 276.378L241.835 276.697L243.413 277.243L244.255 281.475" fill="#263238"/>
<path d="M244.255 281.475C244.253 281.475 244.246 281.452 244.234 281.404C244.221 281.349 244.205 281.28 244.185 281.193C244.143 280.996 244.084 280.721 244.008 280.368C243.857 279.636 243.639 278.582 243.365 277.252L243.397 277.289C242.918 277.126 242.385 276.944 241.816 276.75L241.62 276.683L241.823 276.641C242.32 276.539 242.848 276.43 243.4 276.317L243.351 276.39C242.983 274.527 242.549 272.334 242.074 269.93L242.126 269.989C241.731 269.862 241.3 269.722 240.863 269.581L240.602 269.496L240.868 269.428C241.263 269.328 241.694 269.219 242.13 269.108L242.071 269.201C241.744 267.483 241.394 265.65 241.035 263.762C240.958 263.357 240.882 262.956 240.806 262.558L240.969 262.559C240.323 265.749 239.713 268.755 239.171 271.431L239.117 271.345C239.476 271.439 239.825 271.53 240.169 271.62L240.434 271.689L240.169 271.758C239.755 271.866 239.352 271.971 238.958 272.074L239.007 272.024C238.313 274.874 237.739 277.236 237.335 278.895C237.132 279.711 236.972 280.354 236.86 280.804C236.805 281.016 236.762 281.182 236.73 281.304C236.699 281.417 236.682 281.475 236.679 281.474C236.676 281.473 236.686 281.414 236.71 281.299C236.737 281.176 236.773 281.008 236.82 280.794C236.923 280.343 237.071 279.696 237.259 278.876C237.649 277.213 238.204 274.847 238.874 271.991L238.883 271.951L238.923 271.94C239.316 271.836 239.718 271.729 240.132 271.618V271.757C239.788 271.669 239.438 271.579 239.079 271.486L239.011 271.469L239.025 271.4C239.562 268.723 240.165 265.715 240.805 262.524L240.889 262.107L240.968 262.525C241.044 262.923 241.12 263.325 241.197 263.729C241.555 265.618 241.903 267.452 242.228 269.17L242.242 269.245L242.168 269.263C241.732 269.373 241.3 269.481 240.905 269.58L240.91 269.428C241.347 269.57 241.778 269.711 242.172 269.839L242.215 269.853L242.224 269.898C242.688 272.304 243.112 274.498 243.472 276.363L243.484 276.424L243.423 276.436C242.87 276.546 242.342 276.65 241.844 276.749L241.851 276.64C242.418 276.839 242.949 277.025 243.427 277.193L243.454 277.202L243.459 277.229C243.714 278.562 243.917 279.62 244.057 280.354C244.122 280.709 244.173 280.986 244.209 281.184C244.224 281.272 244.236 281.343 244.245 281.398C244.255 281.45 244.258 281.475 244.255 281.475Z" fill="#263238"/>
<path d="M317.236 273.424L318.242 278.717L317.236 278.971L318.242 279.298L319.248 284.446L317.99 284.7L319.248 285.135L319.918 288.507H313.882L315.685 280.966L316.649 280.712L315.81 280.494L317.236 273.424Z" fill="#263238"/>
<path d="M328.211 272.543L329.593 279.817L328.211 280.166L329.593 280.614L330.976 287.689L329.248 288.038L330.976 288.636L331.897 293.27H323.603L326.08 282.906L327.405 282.558L326.253 282.259L328.211 272.543Z" fill="#263238"/>
<path d="M321.745 278.659L322.524 282.758L321.745 282.954L322.524 283.207L323.303 287.192L322.329 287.389L323.303 287.726L323.822 290.336H319.149L320.544 284.498L321.291 284.301L320.642 284.133L321.745 278.659Z" fill="#263238"/>
<path d="M305.084 271.745L306.09 277.039L305.084 277.293L306.09 277.619L307.096 282.768L305.839 283.022L307.096 283.457L307.767 286.829H301.731L303.533 279.287L304.497 279.033L303.659 278.816L305.084 271.745Z" fill="#263238"/>
<path d="M291.692 267.423L292.698 272.717L291.692 272.971L292.698 273.297L293.704 278.446L292.446 278.699L293.704 279.135L294.374 282.507H288.338L290.141 274.965L291.105 274.711L290.266 274.493L291.692 267.423Z" fill="#263238"/>
<path d="M294.375 291.108L297.372 278.571L298.974 278.149L297.581 277.788L299.95 266.034L301.622 274.834L299.95 275.256L301.622 275.799L303.295 284.358L301.204 284.78L303.295 285.503L304.41 291.108" fill="#263238"/>
<path d="M307.805 288.507L310.067 279.041L311.277 278.723L310.225 278.45L312.014 269.575L313.277 276.22L312.014 276.538L313.277 276.948L314.539 283.41L312.961 283.729L314.539 284.275L315.381 288.507" fill="#263238"/>
<path d="M315.381 288.508C315.379 288.509 315.372 288.485 315.36 288.437C315.347 288.382 315.331 288.313 315.311 288.226C315.269 288.029 315.21 287.754 315.134 287.401C314.983 286.669 314.765 285.615 314.491 284.285L314.523 284.322C314.044 284.159 313.511 283.977 312.942 283.783L312.746 283.716L312.949 283.674C313.446 283.572 313.974 283.463 314.526 283.35L314.477 283.423C314.109 281.56 313.675 279.367 313.2 276.964L313.252 277.023C312.857 276.895 312.426 276.756 311.989 276.615L311.727 276.531L311.994 276.463C312.389 276.363 312.82 276.254 313.256 276.143L313.197 276.236C312.87 274.518 312.52 272.685 312.161 270.796C312.084 270.392 312.008 269.99 311.932 269.592L312.095 269.593C311.449 272.783 310.839 275.789 310.297 278.465L310.243 278.379C310.602 278.473 310.951 278.564 311.295 278.654L311.56 278.723L311.295 278.792C310.881 278.9 310.478 279.005 310.084 279.108L310.133 279.058C309.439 281.908 308.865 284.27 308.461 285.929C308.258 286.745 308.097 287.389 307.986 287.838C307.931 288.05 307.888 288.216 307.856 288.338C307.826 288.451 307.808 288.509 307.805 288.508C307.801 288.507 307.812 288.448 307.836 288.333C307.863 288.21 307.9 288.042 307.946 287.828C308.049 287.377 308.197 286.73 308.385 285.91C308.775 284.247 309.33 281.881 310 279.025L310.009 278.985L310.049 278.974C310.442 278.87 310.844 278.763 311.258 278.653V278.792C310.914 278.703 310.564 278.613 310.205 278.521L310.137 278.504L310.151 278.435C310.688 275.758 311.291 272.75 311.931 269.559L312.014 269.142L312.093 269.56C312.169 269.958 312.245 270.36 312.322 270.764C312.68 272.653 313.028 274.487 313.353 276.205L313.367 276.28L313.293 276.299C312.857 276.409 312.426 276.517 312.03 276.616L312.035 276.464C312.472 276.606 312.903 276.747 313.297 276.875L313.341 276.889L313.35 276.934C313.814 279.34 314.238 281.534 314.598 283.399L314.61 283.46L314.549 283.472C313.996 283.582 313.468 283.686 312.97 283.785L312.977 283.676C313.544 283.875 314.075 284.061 314.553 284.229L314.58 284.238L314.585 284.265C314.84 285.598 315.043 286.656 315.183 287.39C315.248 287.745 315.299 288.022 315.335 288.22C315.35 288.308 315.362 288.379 315.371 288.434C315.381 288.483 315.383 288.508 315.381 288.508Z" fill="#263238"/>
<path d="M283.219 281.945L285.482 272.479L286.692 272.161L285.639 271.888L287.428 263.014L288.691 269.658L287.428 269.976L288.691 270.386L289.954 276.848L288.375 277.167L289.954 277.713L290.796 281.945" fill="#263238"/>
<path d="M290.796 281.944C290.794 281.945 290.787 281.921 290.775 281.873C290.762 281.818 290.746 281.749 290.726 281.662C290.684 281.465 290.625 281.19 290.549 280.837C290.398 280.105 290.18 279.051 289.906 277.721L289.938 277.758C289.459 277.595 288.926 277.413 288.357 277.219L288.161 277.152L288.364 277.11C288.861 277.008 289.389 276.899 289.941 276.786L289.892 276.859C289.524 274.996 289.09 272.803 288.614 270.399L288.666 270.458C288.271 270.331 287.84 270.191 287.403 270.05L287.141 269.966L287.408 269.898C287.803 269.798 288.234 269.689 288.67 269.578L288.611 269.671C288.284 267.953 287.934 266.12 287.575 264.231C287.498 263.827 287.422 263.425 287.346 263.027L287.509 263.028C286.863 266.218 286.254 269.224 285.711 271.9L285.657 271.814C286.016 271.908 286.365 271.999 286.709 272.089L286.974 272.158L286.709 272.227C286.294 272.335 285.892 272.44 285.498 272.543L285.547 272.493C284.853 275.343 284.279 277.705 283.875 279.364C283.672 280.18 283.511 280.824 283.4 281.273C283.345 281.485 283.302 281.651 283.27 281.773C283.239 281.886 283.222 281.944 283.219 281.943C283.216 281.942 283.226 281.883 283.25 281.768C283.277 281.645 283.314 281.477 283.36 281.263C283.463 280.812 283.611 280.165 283.799 279.345C284.189 277.682 284.744 275.316 285.414 272.46L285.423 272.42L285.463 272.409C285.856 272.305 286.258 272.198 286.672 272.087V272.226C286.328 272.137 285.978 272.047 285.619 271.955L285.551 271.938L285.565 271.869C286.102 269.192 286.705 266.184 287.345 262.993L287.428 262.576L287.507 262.994C287.583 263.392 287.659 263.794 287.736 264.198C288.094 266.087 288.442 267.921 288.767 269.639L288.781 269.714L288.707 269.732C288.271 269.842 287.84 269.95 287.444 270.049L287.449 269.897C287.886 270.039 288.317 270.18 288.711 270.308L288.755 270.322L288.764 270.367C289.228 272.773 289.652 274.967 290.012 276.832L290.024 276.893L289.963 276.905C289.41 277.015 288.882 277.119 288.384 277.218L288.391 277.109C288.958 277.308 289.489 277.494 289.967 277.662L289.994 277.671L289.999 277.698C290.254 279.031 290.457 280.089 290.597 280.823C290.662 281.178 290.713 281.455 290.749 281.653C290.764 281.741 290.776 281.812 290.785 281.867C290.795 281.919 290.798 281.944 290.796 281.944Z" fill="#263238"/>
<path d="M350.213 277.107L351.219 282.4L350.213 282.654L351.219 282.981L352.225 288.129L350.967 288.383L352.225 288.818L352.895 292.19H346.859L348.662 284.648L349.626 284.395L348.787 284.177L350.213 277.107Z" fill="#263238"/>
<path d="M361.039 279.288L361.976 284.218L361.039 284.454L361.976 284.758L362.913 289.553L361.742 289.789L362.913 290.194L363.538 293.334H357.917L359.595 286.311L360.493 286.075L359.712 285.872L361.039 279.288Z" fill="#263238"/>
<path d="M354.722 282.343L355.501 286.441L354.722 286.638L355.501 286.891L356.28 290.876L355.306 291.073L356.28 291.41L356.799 294.02H352.126L353.522 288.182L354.268 287.985L353.619 287.817L354.722 282.343Z" fill="#263238"/>
<path d="M338.061 275.429L339.067 280.723L338.061 280.977L339.067 281.303L340.073 286.452L338.816 286.706L340.073 287.141L340.744 290.513H334.708L336.51 282.971L337.474 282.717L336.636 282.5L338.061 275.429Z" fill="#263238"/>
<path d="M324.669 271.106L325.675 276.4L324.669 276.654L325.675 276.98L326.681 282.129L325.423 282.382L326.681 282.818L327.352 286.19H321.315L323.118 278.648L324.082 278.394L323.243 278.176L324.669 271.106Z" fill="#263238"/>
<path d="M327.352 294.793L330.349 282.255L331.952 281.833L330.558 281.472L332.927 269.718L334.599 278.518L332.927 278.94L334.599 279.483L336.272 288.042L334.181 288.464L336.272 289.187L337.387 294.793" fill="#263238"/>
<path d="M340.782 292.191L343.044 282.725L344.254 282.407L343.202 282.134L344.991 273.259L346.254 279.904L344.991 280.222L346.254 280.632L347.516 287.094L345.938 287.413L347.516 287.959L348.358 292.191" fill="#263238"/>
<path d="M348.358 292.191C348.356 292.191 348.349 292.168 348.337 292.12C348.324 292.065 348.308 291.996 348.288 291.909C348.246 291.712 348.187 291.437 348.111 291.084C347.96 290.352 347.742 289.298 347.468 287.968L347.5 288.005C347.021 287.842 346.488 287.66 345.919 287.466L345.723 287.399L345.926 287.357C346.423 287.255 346.951 287.146 347.503 287.033L347.454 287.106C347.086 285.243 346.652 283.05 346.177 280.647L346.229 280.706C345.834 280.578 345.403 280.439 344.966 280.298L344.704 280.214L344.971 280.146C345.366 280.046 345.797 279.937 346.233 279.826L346.174 279.919C345.847 278.201 345.497 276.368 345.138 274.479C345.061 274.075 344.985 273.673 344.909 273.275L345.072 273.276C344.426 276.466 343.816 279.472 343.274 282.148L343.22 282.062C343.578 282.156 343.928 282.247 344.272 282.337L344.537 282.406L344.272 282.475C343.858 282.583 343.455 282.688 343.061 282.791L343.11 282.741C342.416 285.591 341.842 287.953 341.438 289.612C341.235 290.428 341.075 291.072 340.963 291.521C340.908 291.733 340.865 291.899 340.833 292.021C340.803 292.134 340.785 292.192 340.782 292.191C340.778 292.19 340.789 292.131 340.813 292.016C340.84 291.893 340.876 291.725 340.923 291.511C341.026 291.06 341.174 290.413 341.362 289.593C341.752 287.93 342.307 285.564 342.977 282.708L342.986 282.668L343.026 282.657C343.419 282.553 343.821 282.446 344.235 282.336V282.474C343.891 282.385 343.541 282.295 343.182 282.203L343.114 282.186L343.128 282.117C343.665 279.44 344.268 276.432 344.908 273.241L344.992 272.824L345.071 273.242C345.147 273.64 345.223 274.042 345.3 274.446C345.658 276.335 346.006 278.168 346.331 279.887L346.345 279.962L346.271 279.98C345.835 280.09 345.404 280.198 345.008 280.297L345.013 280.145C345.45 280.287 345.881 280.428 346.275 280.556L346.318 280.57L346.327 280.615C346.791 283.021 347.215 285.215 347.575 287.08L347.587 287.141L347.526 287.153C346.973 287.262 346.445 287.367 345.947 287.466L345.954 287.357C346.521 287.556 347.052 287.742 347.53 287.91L347.557 287.919L347.562 287.946C347.817 289.279 348.02 290.337 348.16 291.071C348.225 291.426 348.276 291.703 348.312 291.901C348.327 291.989 348.338 292.06 348.348 292.115C348.358 292.166 348.36 292.191 348.358 292.191Z" fill="#263238"/>
<path d="M316.196 285.628L318.459 276.161L319.669 275.843L318.616 275.57L320.405 266.696L321.668 273.34L320.405 273.659L321.668 274.068L322.931 280.53L321.352 280.849L322.931 281.395L323.772 285.628" fill="#263238"/>
<path d="M323.773 285.629C323.771 285.629 323.764 285.606 323.752 285.558C323.739 285.503 323.723 285.434 323.703 285.347C323.661 285.15 323.602 284.875 323.526 284.522C323.375 283.79 323.157 282.736 322.883 281.406L322.915 281.443C322.436 281.28 321.903 281.098 321.334 280.904L321.138 280.837L321.341 280.795C321.838 280.693 322.366 280.584 322.918 280.471L322.869 280.544C322.501 278.681 322.067 276.488 321.592 274.084L321.644 274.143C321.249 274.016 320.818 273.876 320.381 273.735L320.12 273.651L320.386 273.583C320.781 273.483 321.212 273.374 321.648 273.263L321.589 273.356C321.262 271.638 320.912 269.805 320.553 267.917C320.476 267.513 320.4 267.111 320.324 266.713L320.487 266.714C319.841 269.904 319.231 272.91 318.689 275.586L318.635 275.5C318.994 275.594 319.343 275.685 319.687 275.775L319.952 275.844L319.687 275.913C319.273 276.021 318.87 276.126 318.476 276.229L318.525 276.179C317.831 279.03 317.257 281.391 316.853 283.05C316.65 283.866 316.49 284.51 316.378 284.959C316.323 285.171 316.28 285.337 316.248 285.459C316.218 285.572 316.2 285.63 316.197 285.629C316.194 285.628 316.204 285.569 316.228 285.454C316.255 285.331 316.291 285.163 316.338 284.949C316.441 284.498 316.589 283.851 316.777 283.031C317.167 281.368 317.722 279.002 318.392 276.146L318.401 276.106L318.441 276.095C318.834 275.99 319.236 275.884 319.65 275.773V275.912C319.306 275.823 318.956 275.733 318.597 275.641L318.529 275.624L318.543 275.555C319.08 272.878 319.683 269.87 320.323 266.679L320.406 266.262L320.486 266.68C320.562 267.078 320.638 267.48 320.715 267.884C321.073 269.773 321.421 271.607 321.746 273.325L321.76 273.4L321.686 273.418C321.25 273.528 320.819 273.636 320.423 273.735L320.428 273.583C320.865 273.725 321.296 273.866 321.69 273.994L321.733 274.008L321.742 274.053C322.206 276.459 322.63 278.653 322.99 280.518L323.002 280.579L322.941 280.591C322.388 280.701 321.86 280.805 321.362 280.904L321.369 280.795C321.936 280.994 322.467 281.18 322.945 281.348L322.972 281.357L322.977 281.384C323.232 282.717 323.435 283.775 323.575 284.509C323.64 284.864 323.691 285.141 323.727 285.339C323.742 285.427 323.753 285.498 323.763 285.553C323.772 285.603 323.775 285.628 323.773 285.629Z" fill="#263238"/>
<path d="M187.025 257.896L188.184 263.998L187.025 264.291L188.184 264.667L189.344 270.602L187.894 270.895L189.344 271.396L190.117 275.283H183.159L185.237 266.59L186.348 266.297L185.382 266.046L187.025 257.896Z" fill="#263238"/>
<path d="M199.505 260.409L200.585 266.092L199.505 266.364L200.585 266.715L201.665 272.241L200.315 272.514L201.665 272.981L202.385 276.601H195.905L197.84 268.505L198.875 268.233L197.975 267.999L199.505 260.409Z" fill="#263238"/>
<path d="M192.223 263.932L193.121 268.656L192.223 268.883L193.121 269.174L194.018 273.768L192.896 273.995L194.018 274.383L194.617 277.392H189.23L190.839 270.662L191.699 270.436L190.951 270.242L192.223 263.932Z" fill="#263238"/>
<path d="M173.017 255.961L174.177 262.064L173.017 262.356L174.177 262.732L175.337 268.667L173.887 268.96L175.337 269.461L176.11 273.349H169.152L171.23 264.655L172.341 264.362L171.374 264.112L173.017 255.961Z" fill="#263238"/>
<path d="M153.875 251.939L155.206 258.942L153.875 259.278L155.206 259.71L156.537 266.522L154.873 266.858L156.537 267.433L157.424 271.895H149.438L151.823 261.917L153.098 261.581L151.989 261.293L153.875 251.939Z" fill="#263238"/>
<path d="M160.673 278.282L164.127 263.83L165.975 263.344L164.368 262.927L167.099 249.378L169.027 259.522L167.099 260.009L169.027 260.634L170.955 270.5L168.545 270.986L170.955 271.82L172.24 278.282" fill="#263238"/>
<path d="M176.154 275.283L178.761 264.372L180.156 264.004L178.943 263.69L181.005 253.46L182.461 261.119L181.005 261.486L182.461 261.958L183.917 269.408L182.097 269.775L183.917 270.405L184.887 275.283" fill="#263238"/>
<path d="M184.887 275.283C184.884 275.284 184.876 275.256 184.863 275.201C184.848 275.138 184.83 275.058 184.807 274.957C184.758 274.73 184.69 274.413 184.603 274.006C184.429 273.162 184.178 271.947 183.862 270.414L183.899 270.456C183.346 270.268 182.732 270.058 182.077 269.835L181.851 269.758L182.086 269.71C182.659 269.592 183.267 269.467 183.904 269.336L183.848 269.42C183.423 267.272 182.923 264.745 182.375 261.974L182.435 262.042C181.98 261.895 181.483 261.735 180.979 261.572L180.678 261.475L180.985 261.397C181.441 261.281 181.937 261.156 182.44 261.028L182.372 261.135C181.995 259.155 181.592 257.042 181.177 254.865C181.088 254.399 181.001 253.936 180.913 253.477L181.101 253.478C180.356 257.155 179.654 260.621 179.029 263.705L178.967 263.606C179.38 263.714 179.783 263.82 180.179 263.923L180.485 264.003L180.18 264.083C179.702 264.208 179.238 264.329 178.784 264.447L178.841 264.389C178.041 267.675 177.379 270.397 176.913 272.31C176.679 273.251 176.494 273.992 176.365 274.511C176.302 274.756 176.252 274.947 176.215 275.088C176.18 275.218 176.16 275.285 176.156 275.283C176.152 275.282 176.164 275.214 176.192 275.082C176.223 274.94 176.265 274.747 176.319 274.5C176.438 273.98 176.609 273.235 176.825 272.29C177.275 270.373 177.915 267.646 178.687 264.354L178.698 264.308L178.744 264.296C179.197 264.176 179.661 264.052 180.138 263.926V264.086C179.742 263.984 179.338 263.88 178.924 263.774L178.846 263.754L178.862 263.675C179.481 260.589 180.176 257.122 180.914 253.444L181.01 252.964L181.102 253.445C181.189 253.904 181.277 254.367 181.366 254.833C181.779 257.011 182.179 259.124 182.555 261.104L182.571 261.19L182.486 261.211C181.983 261.337 181.486 261.462 181.03 261.577L181.036 261.402C181.54 261.566 182.036 261.728 182.491 261.876L182.541 261.892L182.551 261.943C183.086 264.716 183.575 267.246 183.989 269.396L184.003 269.466L183.933 269.48C183.295 269.606 182.687 269.727 182.112 269.841L182.12 269.716C182.774 269.945 183.386 270.16 183.936 270.354L183.967 270.365L183.973 270.396C184.267 271.933 184.501 273.152 184.663 273.998C184.738 274.408 184.796 274.727 184.838 274.954C184.855 275.056 184.869 275.137 184.879 275.201C184.886 275.254 184.889 275.283 184.887 275.283Z" fill="#263238"/>
<path d="M142.665 271.151L145.659 258.628L147.26 258.206L145.867 257.845L148.234 246.104L149.905 254.894L148.234 255.316L149.905 255.858L151.575 264.408L149.487 264.829L151.575 265.551L152.689 271.151" fill="#263238"/>
<path d="M152.689 271.151C152.686 271.152 152.677 271.12 152.661 271.058C152.644 270.985 152.623 270.894 152.596 270.778C152.54 270.518 152.462 270.154 152.362 269.687C152.162 268.718 151.874 267.324 151.511 265.565L151.553 265.613C150.919 265.397 150.214 265.157 149.462 264.9L149.203 264.812L149.472 264.757C150.13 264.622 150.828 264.478 151.559 264.328L151.494 264.425C151.006 261.96 150.433 259.059 149.804 255.879L149.873 255.957C149.351 255.788 148.781 255.604 148.202 255.417L147.856 255.305L148.209 255.216C148.732 255.083 149.302 254.939 149.879 254.793L149.8 254.916C149.367 252.643 148.905 250.218 148.429 247.719C148.327 247.184 148.226 246.652 148.126 246.126L148.341 246.127C147.486 250.348 146.68 254.325 145.962 257.865L145.891 257.751C146.365 257.875 146.828 257.996 147.282 258.115L147.633 258.207L147.282 258.298C146.733 258.441 146.201 258.58 145.68 258.716L145.745 258.649C144.827 262.42 144.067 265.544 143.533 267.74C143.264 268.82 143.052 269.671 142.904 270.265C142.831 270.546 142.774 270.765 142.732 270.927C142.692 271.076 142.669 271.152 142.664 271.151C142.659 271.15 142.673 271.071 142.705 270.92C142.741 270.757 142.789 270.535 142.851 270.252C142.988 269.655 143.184 268.8 143.432 267.715C143.948 265.515 144.683 262.385 145.569 258.606L145.581 258.553L145.634 258.539C146.154 258.401 146.686 258.259 147.234 258.114V258.297C146.779 258.18 146.316 258.061 145.841 257.939L145.751 257.916L145.769 257.825C146.479 254.283 147.277 250.304 148.124 246.082L148.234 245.531L148.339 246.084C148.439 246.61 148.54 247.142 148.642 247.677C149.116 250.176 149.576 252.602 150.007 254.875L150.026 254.974L149.929 254.998C149.352 255.143 148.781 255.286 148.258 255.418L148.265 255.217C148.843 255.405 149.413 255.591 149.935 255.761L149.992 255.78L150.003 255.839C150.617 259.022 151.178 261.925 151.654 264.393L151.67 264.474L151.59 264.49C150.858 264.635 150.159 264.773 149.5 264.904L149.51 264.76C150.26 265.023 150.963 265.27 151.595 265.492L151.63 265.504L151.637 265.54C151.975 267.304 152.243 268.703 152.429 269.674C152.515 270.144 152.582 270.51 152.63 270.772C152.65 270.889 152.665 270.982 152.677 271.055C152.689 271.117 152.692 271.15 152.689 271.151Z" fill="#263238"/>
<path opacity="0.3" d="M339.907 285.603C339.907 285.603 337.917 289.946 338.153 289.868C338.389 289.79 342.25 285.808 342.25 285.808L339.907 285.603Z" fill="#FF725E"/>
<path opacity="0.3" d="M347.418 286.258L346.933 288.507L348.259 286.331L347.418 286.258Z" fill="#FF725E"/>
<path opacity="0.3" d="M351.936 286.652L352.27 287.283L353.82 286.817L351.936 286.652Z" fill="#FF725E"/>
<path opacity="0.3" d="M314.6 283.398L310.403 286.829L315.095 283.431L314.6 283.398Z" fill="#FF725E"/>
<path opacity="0.3" d="M307.077 282.73L302.309 286.592L309.09 282.906L307.077 282.73Z" fill="#FF725E"/>
<path opacity="0.3" d="M294.194 281.602L288.338 285.851L296.597 281.813L294.194 281.602Z" fill="#FF725E"/>
<path opacity="0.3" d="M280.001 280.357L271.702 284.661L275.542 279.966L280.001 280.357Z" fill="#FF725E"/>
<path opacity="0.3" d="M274.859 279.907C274.652 279.889 267.342 283.135 267.342 283.135L271.861 279.644L274.859 279.907Z" fill="#FF725E"/>
<path opacity="0.3" d="M263.38 278.9C263.342 279.06 258.209 280.175 258.209 280.175L259.831 278.589L263.38 278.9Z" fill="#FF725E"/>
<path opacity="0.3" d="M267.35 279.248L264.65 281.224L269.391 279.427L267.35 279.248Z" fill="#FF725E"/>
</svg>
