<svg width="323" height="150" viewBox="0 0 323 150" fill="none" xmlns="http://www.w3.org/2000/svg">
<path d="M311.763 124.181C300.331 120.716 294.91 125.084 294.91 125.084C294.91 125.084 294.571 119.317 289.282 116.726C285.568 114.907 280.755 114.019 277.587 116.679C280.295 111.451 279.161 104.506 274.93 100.412C270.699 96.3182 263.721 95.4122 258.585 98.2912C265.99 79.6972 255.944 56.0532 237.419 48.4762C218.895 40.8992 195.158 50.7252 187.409 69.1782C186.688 60.2942 176.568 53.5072 168.076 56.2112C171.431 49.7812 165.506 40.7302 158.271 41.2332C161.792 28.8882 157.144 14.6242 147.026 6.72317C136.908 -1.17783 121.944 -2.22983 110.82 4.17717C99.6959 10.5852 93.0979 24.0582 94.8569 36.7742C88.7579 32.4042 79.2539 33.9132 74.8089 39.9592C71.1129 22.4902 52.0499 10.3062 34.3889 12.9412C16.7279 15.5752 2.41286 31.5842 0.29786 49.3142C-1.81714 67.0442 7.51886 85.2532 22.3369 95.2152L318.284 149.097C325.703 141.817 321.711 127.197 311.763 124.181Z" fill="#EBEBEB"/>
<g opacity="0.72">
<path d="M150.757 52.4803C155.031 55.2343 157.656 60.3653 157.39 65.4423C160.665 64.5823 164.291 65.1613 167.135 66.9993C169.979 68.8373 171.997 71.9053 172.558 75.2443C171.201 72.0393 167.963 68.7963 164.662 67.6913C159.899 66.0973 156.205 67.5133 154.113 69.9913C155.213 65.0633 153.656 59.6223 150.114 56.0223C146.573 52.4223 141.158 50.7763 136.213 51.7963C140.726 49.4553 146.483 49.7263 150.757 52.4803Z" fill="white"/>
</g>
<g opacity="0.72">
<path d="M131.965 54.4891C134.271 55.9751 135.688 58.7441 135.544 61.4831C137.311 61.0191 139.268 61.3321 140.802 62.3231C142.336 63.3141 143.425 64.9701 143.728 66.7721C142.996 65.0431 141.248 63.2931 139.468 62.6971C136.898 61.8371 134.905 62.6011 133.776 63.9381C134.37 61.2791 133.529 58.3431 131.618 56.4011C129.707 54.4591 126.785 53.5701 124.117 54.1201C126.552 52.8571 129.659 53.0031 131.965 54.4891Z" fill="white"/>
</g>
</svg>
