<svg width="375" height="166" viewBox="0 0 375 166" fill="none" xmlns="http://www.w3.org/2000/svg">
<path d="M359.342 135.076C370.172 123.838 374.159 106.475 369.318 91.6374C364.477 76.8004 351.016 65.1303 335.642 62.4423C320.268 59.7543 303.646 66.1633 294.057 78.4773L278.704 110.031C300.798 126.044 322.891 142.057 344.985 158.069C352.376 163.426 362.742 168.801 369.854 163.079C372.812 160.698 374.283 156.811 374.388 153.015C374.623 144.485 367.783 136.329 359.342 135.076Z" fill="#EBEBEB"/>
<path d="M10.3518 124.181C21.7838 120.716 27.2048 125.084 27.2048 125.084C27.2048 125.084 27.5438 119.317 32.8328 116.726C36.5468 114.907 41.3598 114.019 44.5278 116.679C41.8198 111.451 42.9538 104.506 47.1848 100.412C51.4158 96.3182 58.3938 95.4122 63.5298 98.2912C56.1248 79.6972 66.1708 56.0532 84.6958 48.4762C103.22 40.8992 126.957 50.7252 134.706 69.1782C135.427 60.2942 145.547 53.5072 154.039 56.2112C150.684 49.7812 156.609 40.7302 163.844 41.2332C160.323 28.8882 164.971 14.6242 175.089 6.72317C185.207 -1.17783 200.172 -2.22983 211.295 4.17717C222.419 10.5852 229.017 24.0582 227.258 36.7742C233.357 32.4042 242.861 33.9132 247.306 39.9592C251.002 22.4902 270.065 10.3062 287.726 12.9412C305.387 15.5752 319.702 31.5842 321.817 49.3142C323.932 67.0442 314.596 85.2532 299.778 95.2152L3.83181 149.098C-3.58819 141.817 0.403798 127.197 10.3518 124.181Z" fill="#EBEBEB"/>
<g opacity="0.72">
<path d="M91.0958 96.2798C90.0988 93.6568 93.4808 88.1758 97.0978 83.7328C98.8698 81.5568 101.4 80.1208 104.025 79.1288C113.571 75.5218 124.037 80.3118 132.041 86.6418C131.654 82.5458 135.793 78.6748 139.853 79.3348C137.043 76.3768 131.462 78.7148 130.069 82.5498C124.8 79.3158 118.769 75.5628 112.615 74.9798C106.46 74.3968 101.584 75.8558 97.2288 80.2428C92.8748 84.6318 89.9918 90.0218 91.0958 96.2798Z" fill="white"/>
</g>
<g opacity="0.72">
<path d="M183.229 39.7948C178.955 42.5488 176.33 47.6798 176.596 52.7568C173.321 51.8968 169.695 52.4758 166.851 54.3138C164.007 56.1518 161.989 59.2198 161.428 62.5588C162.785 59.3538 166.023 56.1108 169.324 55.0058C174.087 53.4118 177.781 54.8278 179.873 57.3058C178.773 52.3778 180.33 46.9368 183.871 43.3368C187.412 39.7368 192.827 38.0908 197.772 39.1108C193.26 36.7698 187.503 37.0408 183.229 39.7948Z" fill="white"/>
</g>
</svg>
