<svg width="727" height="404" viewBox="0 0 727 404" fill="none" xmlns="http://www.w3.org/2000/svg">
<path d="M726.79 186.588H7.62109V403.136H726.79V186.588Z" fill="#FF725E"/>
<path opacity="0.5" d="M726.79 186.588H7.62109V403.136H726.79V186.588Z" fill="white"/>
<g opacity="0.3">
<path d="M613.841 322.597C612.326 311.01 599.759 304.639 588.594 301.188C507.605 276.15 420.165 300.029 335.57 294.576C376.533 287.593 417.496 280.61 458.46 273.627C464.394 272.615 472.22 268.129 469.348 262.839C467.717 259.835 463.624 259.477 460.206 259.495C437.284 259.614 414.362 259.733 391.44 259.852C380.121 259.911 368.801 259.97 357.482 260.028C351.822 260.057 346.163 260.087 340.503 260.116C335.378 260.143 328.246 259.041 323.551 260.435C344.019 267.463 367.149 269.366 388.637 268.099C361.205 270.655 333.591 273.366 306.005 272.665C278.714 271.971 251.65 267.615 225.058 261.624C205.289 257.17 185.74 251.805 166.248 246.279C118.384 232.71 70.3492 219.414 23.6862 202.134C18.5842 200.219 13.2642 198.326 8.04517 196.188V303.493C128.181 342.257 282.805 377.866 355.381 377.865C408.258 377.864 461.135 374.517 513.59 367.848C539.602 364.541 565.798 360.34 590.036 350.336C602.181 345.322 615.545 335.627 613.841 322.597Z" fill="#FF725E"/>
</g>
<path d="M250.875 223.7C324.988 225.527 399.027 225.984 472.83 223.475C398.866 223.989 324.854 224.064 250.875 223.7Z" fill="#FF725E"/>
<path d="M305.587 217.522C345.86 219.349 386.092 219.806 426.196 217.297C386.004 217.811 345.787 217.886 305.587 217.522Z" fill="#FF725E"/>
<path d="M301.437 231.319C341.71 233.146 381.942 233.603 422.046 231.094C381.854 231.608 341.637 231.683 301.437 231.319Z" fill="#FF725E"/>
<path d="M306.674 243.068C330.551 244.151 354.405 244.422 378.182 242.934C354.353 243.239 330.508 243.283 306.674 243.068Z" fill="#FF725E"/>
<path d="M485.746 351.669C485.746 351.669 485.183 351.295 486.422 349.672C486.815 349.157 486.891 348.718 486.811 348.358C486.643 347.603 485.759 347.206 485.059 347.535C482.373 348.797 479.284 348.697 476.878 348.287C475.584 348.066 475.403 346.29 476.619 345.796C479.18 344.756 482.194 343.264 482.819 341.81C483.059 341.251 483.11 340.834 483.041 340.523C482.915 339.959 483.094 339.351 483.627 339.128C484.148 338.91 484.607 338.608 484.846 338.19C485.372 337.273 484.166 336.245 483.307 335.664C482.93 335.409 482.694 334.972 482.747 334.52C482.788 334.168 482.762 333.682 482.538 333.074C482.237 332.259 478.027 331.224 474.656 330.518C473.657 330.309 473.318 329.099 474.009 328.348C474.331 327.997 474.572 327.638 474.74 327.345C474.963 326.956 475.362 326.716 475.811 326.701C477.418 326.646 481.097 326.329 482.144 324.589C483.495 322.343 481.243 321.719 477.415 319.847C475.101 318.715 471.104 315.717 468.301 313.52C468.799 313.508 469.297 313.467 469.789 313.388C468.926 312.728 468.117 312.094 467.422 311.542C467.303 311.448 467.209 311.339 467.134 311.223C467.305 310.903 467.61 310.65 468.026 310.571C469.518 310.29 471.176 309.856 471.899 309.24C472.213 308.973 472.397 308.751 472.493 308.568C472.719 308.137 473.116 307.826 473.603 307.818C477.925 307.75 476.177 304.997 476.177 304.997C470.539 303.247 466.658 300.107 464.701 298.213C464.008 297.542 464.27 296.381 465.181 296.063C466.467 295.614 468.108 294.897 469.197 293.891C469.805 293.329 469.896 292.891 469.726 292.553C469.398 291.901 469.58 291.104 470.264 290.85C471.817 290.273 473.02 289.29 470.66 287.776C469.05 286.743 466.962 285.533 465.067 284.472C463.987 283.867 464.295 282.234 465.52 282.054C466.043 281.977 466.382 281.911 466.382 281.911C468.757 280.846 468.746 279.529 468.147 278.482C468.193 278.083 468.094 277.691 467.914 277.327C467.844 277.501 467.747 277.647 467.637 277.779C467.053 277.113 466.382 276.67 466.382 276.67C463.451 275.013 459.79 272.018 457.001 269.574C456.076 268.763 456.69 267.286 457.92 267.301C458.253 267.305 458.564 267.271 458.838 267.186C460.864 266.562 456.586 264.066 456.586 264.066C456.586 264.066 458.725 264.69 459.626 264.066C460.527 263.442 457.262 260.572 457.262 260.572C452.994 257.799 447.852 251.064 444.972 247.062C444.454 246.342 443.391 246.342 442.873 247.062C439.993 251.064 434.851 257.799 430.583 260.572C430.583 260.572 429.765 261.291 429.061 262.087L428.095 262.217C428.03 262.446 428.055 262.632 428.218 262.745C428.287 262.793 428.365 262.831 428.447 262.865C428.089 263.39 427.915 263.856 428.218 264.066C428.446 264.224 428.755 264.302 429.087 264.33C428.467 264.932 428.146 265.54 428.913 265.83C428.392 266.395 428.201 266.938 429.006 267.186C429.28 267.27 429.591 267.305 429.924 267.301C431.154 267.286 431.768 268.763 430.843 269.574C428.054 272.018 424.393 275.013 421.463 276.67C421.463 276.67 416.734 279.79 421.463 281.911C421.463 281.911 421.801 281.977 422.325 282.054C423.55 282.235 423.858 283.868 422.778 284.472C420.883 285.533 418.795 286.743 417.185 287.776C414.825 289.29 416.028 290.273 417.581 290.85C418.265 291.104 418.448 291.901 418.119 292.553C417.949 292.891 418.04 293.329 418.648 293.891C419.737 294.897 421.378 295.614 422.664 296.063C423.575 296.381 423.837 297.542 423.144 298.213C421.187 300.107 417.306 303.247 411.668 304.997C411.668 304.997 409.92 307.75 414.242 307.818C414.729 307.826 415.126 308.137 415.352 308.568C415.448 308.751 415.633 308.973 415.946 309.24C416.669 309.856 418.326 310.29 419.818 310.571C420.907 310.776 421.244 312.175 420.376 312.863C417.591 315.072 412.983 318.598 410.429 319.847C406.601 321.719 404.349 322.343 405.7 324.589C406.746 326.329 410.426 326.646 412.033 326.701C412.481 326.716 412.88 326.956 413.104 327.345C413.272 327.638 413.513 327.997 413.835 328.348C414.013 328.542 414.121 328.766 414.168 328.996C413.989 329.032 413.807 329.069 413.62 329.107C413.809 329.18 414.003 329.234 414.196 329.292C414.185 329.855 413.819 330.386 413.188 330.518C409.817 331.225 405.606 332.26 405.306 333.074C405.082 333.682 405.056 334.168 405.097 334.52C405.15 334.972 404.914 335.409 404.537 335.664C403.678 336.246 402.472 337.274 402.998 338.19C403.238 338.608 403.696 338.909 404.217 339.128C404.75 339.351 404.928 339.959 404.803 340.523C404.734 340.833 404.784 341.25 405.025 341.81C405.649 343.263 408.664 344.755 411.225 345.796C412.441 346.29 412.26 348.066 410.966 348.287C408.56 348.697 405.471 348.797 402.785 347.535C402.085 347.206 401.201 347.603 401.033 348.358C400.953 348.718 401.029 349.157 401.422 349.672C402.66 351.294 402.097 351.669 402.097 351.669C402.097 351.669 399.282 349.548 400.521 352.792C401.22 354.623 403.603 356.056 405.548 356.958C406.394 357.35 406.526 358.424 405.871 359.087C405.487 359.475 405.325 359.988 405.7 360.654C406.826 362.651 411.555 365.022 416.734 365.521C419.394 365.777 422.528 365.408 424.949 364.989C425.859 364.831 426.509 365.675 426.306 366.576C426.19 367.092 426.45 367.605 427.43 368.017C429.303 368.804 431.324 368.114 432.707 367.382C433.366 367.033 434.198 367.289 434.493 367.974C434.723 368.507 435.259 368.846 436.438 368.367C437.701 367.854 438.862 367.118 439.744 366.479V376.674C439.744 376.948 439.966 377.17 440.24 377.17H450.683C450.957 377.17 451.179 376.948 451.179 376.674V368.269C451.255 368.302 451.33 368.336 451.407 368.367C452.586 368.846 453.122 368.508 453.352 367.974C453.647 367.289 454.479 367.033 455.138 367.382C456.521 368.114 458.542 368.805 460.415 368.017C461.394 367.605 461.655 367.092 461.539 366.576C461.337 365.675 461.986 364.831 462.896 364.989C465.316 365.409 468.451 365.778 471.111 365.521C476.29 365.022 481.019 362.651 482.145 360.654C482.52 359.988 482.358 359.475 481.974 359.087C481.319 358.424 481.451 357.35 482.297 356.958C484.242 356.057 486.625 354.623 487.324 352.792C488.561 349.548 485.746 351.669 485.746 351.669Z" fill="#263238"/>
<path d="M202.537 350.584C200.598 288.585 187.784 284.121 187.784 284.121C197.323 309.913 190.765 350.584 190.765 350.584H202.537Z" fill="#263238"/>
<path d="M206.73 350.585C208.096 306.903 217.125 303.758 217.125 303.758C210.404 321.93 215.025 350.585 215.025 350.585H206.73Z" fill="#263238"/>
<path d="M213.667 350.585C214.576 321.524 220.582 319.432 220.582 319.432C216.111 331.521 219.185 350.585 219.185 350.585H213.667Z" fill="#263238"/>
<path d="M193.936 350.584C192.986 320.222 186.711 318.036 186.711 318.036C191.382 330.667 188.171 350.584 188.171 350.584H193.936Z" fill="#263238"/>
<path d="M200.666 350.585C201.926 279.123 210.251 273.977 210.251 273.977C204.054 303.705 208.314 350.585 208.314 350.585H200.666Z" fill="#263238"/>
<path d="M241.134 369.259C239.116 315.47 225.779 311.597 225.779 311.597C235.707 333.973 228.881 369.259 228.881 369.259H241.134Z" fill="#263238"/>
<path d="M238.605 355.32C240.027 317.422 249.424 314.694 249.424 314.694C242.429 330.459 247.238 355.32 247.238 355.32H238.605Z" fill="#263238"/>
<path d="M247.214 351.298C248.16 326.086 254.411 324.27 254.411 324.27C249.757 334.758 252.957 351.298 252.957 351.298H247.214Z" fill="#263238"/>
<path d="M225.236 350.585C224.248 324.244 217.716 322.347 217.716 322.347C222.578 333.305 219.235 350.585 219.235 350.585H225.236Z" fill="#263238"/>
<path d="M230.879 350.584C229.538 314.853 220.679 312.28 220.679 312.28C227.274 327.144 222.74 350.584 222.74 350.584H230.879Z" fill="#263238"/>
<path d="M234.038 362.479C235.349 300.48 244.014 296.016 244.014 296.016C237.564 321.808 241.998 362.479 241.998 362.479H234.038Z" fill="#263238"/>
<path d="M275.516 356.123C272.396 328.278 278.7 324.732 278.7 324.732C275.5 337.377 281.58 354.692 281.58 354.692L275.516 356.123Z" fill="#263238"/>
<path d="M257.116 354.965C258.248 305.887 265.728 302.353 265.728 302.353C260.16 322.77 263.988 354.965 263.988 354.965H257.116Z" fill="#263238"/>
<path d="M259.821 350.584C259.11 331.635 254.412 330.271 254.412 330.271C257.909 338.154 255.505 350.584 255.505 350.584H259.821Z" fill="#263238"/>
<path d="M264.127 358.407C265.438 318.6 274.103 315.733 274.103 315.733C262.35 335.328 269.71 359.767 272.087 358.407H264.127Z" fill="#263238"/>
<path d="M292.867 386.938C290.928 324.939 278.114 320.475 278.114 320.475C287.653 346.267 281.095 386.938 281.095 386.938H292.867Z" fill="#263238"/>
<path d="M291.016 345.869C290.066 315.507 283.791 313.321 283.791 313.321C288.462 325.952 285.251 345.869 285.251 345.869H291.016Z" fill="#263238"/>
<path d="M287.404 381.501C288.664 310.039 296.989 304.893 296.989 304.893C290.792 334.621 295.052 381.501 295.052 381.501H287.404Z" fill="#263238"/>
<path d="M299.865 351.516C300.811 326.304 307.063 324.488 307.063 324.488C302.409 334.976 305.609 351.516 305.609 351.516H299.865Z" fill="#263238"/>
<path d="M274.288 351.516C273.3 325.175 266.768 323.278 266.768 323.278C271.63 334.236 268.287 351.516 268.287 351.516H274.288Z" fill="#263238"/>
<path d="M315.174 349.907C323.91 323.284 331.118 322.679 331.118 322.679C322.952 332.85 321.285 351.125 321.285 351.125L315.174 349.907Z" fill="#263238"/>
<path d="M308.873 351.517C308.162 332.568 303.464 331.204 303.464 331.204C306.961 339.087 304.557 351.517 304.557 351.517H308.873Z" fill="#263238"/>
<path d="M0 267.929C0 267.929 210.088 357.481 363.395 344.537C516.702 331.593 726.79 248.125 726.79 248.125V403.135H0V267.929Z" fill="#263238"/>
<path d="M294.749 357.915C294.425 357.966 293.687 355.667 293.312 351.8C293.116 349.869 293.068 347.552 293.195 344.984C293.354 342.419 293.707 339.603 294.34 336.699C294.996 333.799 295.87 331.099 296.813 328.707C297.786 326.326 298.811 324.247 299.807 322.581C301.784 319.237 303.427 317.468 303.698 317.651C304.375 318.069 299.297 326.078 296.883 337.263C294.332 348.416 295.539 357.824 294.749 357.915Z" fill="#263238"/>
<path d="M313.789 368.271C313.457 368.322 312.676 365.884 312.304 361.764C312.217 360.735 312.159 359.601 312.164 358.38C312.182 357.117 312.226 355.966 312.145 354.656C312.016 352.074 311.56 349.157 311.409 345.998C311.071 339.751 311.426 334.08 311.984 330.03C312.539 325.974 313.24 323.53 313.584 323.577C314.333 323.68 313.323 333.633 314.009 345.859C314.149 348.879 314.537 351.809 314.543 354.588C314.563 355.959 314.426 357.351 314.321 358.468C314.225 359.628 314.175 360.716 314.144 361.712C314.039 365.7 314.167 368.219 313.789 368.271Z" fill="#263238"/>
<path d="M309.784 319.599C310.503 319.6 311.079 326.44 311.07 334.875C311.061 343.313 310.471 350.151 309.752 350.15C309.033 350.149 308.457 343.311 308.466 334.873C308.475 326.437 309.065 319.598 309.784 319.599Z" fill="#263238"/>
<path d="M318.296 334.913C319.001 334.939 319.434 338.078 318.527 341.793C317.633 345.513 315.812 348.105 315.173 347.805C314.506 347.504 315.171 344.631 315.996 341.18C316.842 337.734 317.565 334.875 318.296 334.913Z" fill="#263238"/>
<path d="M242.573 321.528C243.268 321.819 241.817 326.536 241.23 332.476C240.583 338.412 241.032 343.325 240.292 343.467C239.951 343.528 239.383 342.345 238.961 340.306C238.536 338.273 238.314 335.375 238.64 332.207C238.972 329.04 239.786 326.251 240.62 324.348C241.454 322.439 242.252 321.398 242.573 321.528Z" fill="#263238"/>
<path d="M326.386 350.15L337.919 330.227L360.984 321.704L379.437 330.457L390.961 341.553L326.386 350.15Z" fill="#263238"/>
<path opacity="0.3" d="M390.961 341.554C394.679 343.873 407.509 349.867 407.781 351.126C407.552 350.067 404.218 339.13 404.218 339.13L390.961 341.554Z" fill="#FF725E"/>
<path opacity="0.3" d="M481.933 324.881L573.482 336.573C571.852 335.921 520.929 314.974 520.929 314.974L481.933 324.881Z" fill="#FF725E"/>
<path opacity="0.3" d="M581.67 297.745L663.734 298.604C662.261 298.113 638.044 280.403 638.044 280.403L581.67 297.745Z" fill="#FF725E"/>
<path opacity="0.3" d="M322.241 345.701L324.352 357.914L330.039 345.923L322.241 345.701Z" fill="#FF725E"/>
<path opacity="0.3" d="M294.89 344.279L292.223 358.461L300.287 344.743L294.89 344.279Z" fill="#FF725E"/>
<path opacity="0.3" d="M687.828 262.977L715.384 267.84C715.384 267.84 725.4 248.673 724.803 248.906C724.205 249.139 687.828 262.977 687.828 262.977Z" fill="#FF725E"/>
<path opacity="0.3" d="M154.362 319.22L113.404 345.924L184.938 326.884L154.362 319.22Z" fill="#FF725E"/>
<path opacity="0.3" d="M87.4569 299.822L50.3669 321.528L134.507 314.147L87.4569 299.822Z" fill="#FF725E"/>
</svg>
