<svg width="696" height="126" viewBox="0 0 696 126" fill="none" xmlns="http://www.w3.org/2000/svg">
<path d="M482.091 105.918L476.756 96.1548L461.131 93.4428L440.932 82.0518L430.261 68.4918L411.206 49.5078L391.007 42.9988L378.812 53.3048L368.903 75.0008L354.04 79.8828L342.988 92.9008L318.597 96.1558L305.639 88.0198L298.017 90.1898L271.34 82.5958L253.428 71.7478L241.614 55.2048C241.614 55.2048 237.041 48.9668 230.943 44.6278L219.129 32.6948L193.214 17.5078L185.211 28.8978L178.351 32.1518L140.621 60.8988L107.846 67.9498H86.122C86.122 67.9498 54.391 116.113 53.248 116.655H503.814L482.091 105.918Z" fill="#455A64"/>
<path opacity="0.3" d="M482.091 105.918L476.756 96.1548L461.131 93.4428L440.932 82.0518L430.261 68.4918L411.206 49.5078L391.007 42.9988L378.812 53.3048L368.903 75.0008L354.04 79.8828L342.988 92.9008L318.597 96.1558L305.639 88.0198L298.017 90.1898L271.34 82.5958L253.428 71.7478L241.614 55.2048C241.614 55.2048 237.041 48.9668 230.943 44.6278L219.129 32.6948L193.214 17.5078L185.211 28.8978L178.351 32.1518L140.621 60.8988L107.846 67.9498H86.122C86.122 67.9498 54.391 116.113 53.248 116.655H503.814L482.091 105.918Z" fill="#FF725E"/>
<path d="M3.06995 114.178C5.52495 112.336 41.743 35.332 41.743 35.332L66.9109 26.397L106.198 0.000976562L142.416 12.278L151.624 25.783L168.812 28.852L190.911 57.089L260.277 103.742L306.316 114.178L340.506 97.601L392.684 68.136L438.91 57.09C438.91 57.09 474.514 25.783 476.355 25.169C478.197 24.555 529.761 35.332 529.761 35.332L575.187 63.228L639.642 77.347L695.682 122.799L309.748 125.891L0.00195312 123.387L3.06995 114.178Z" fill="#455A64"/>
<path opacity="0.1" d="M66.911 26.3965L70.634 41.2605L80.537 49.5185L86.122 67.9505L103.654 76.9935L111.525 104.422L158.997 124.671L0 123.386L2.828 114.903L19.257 82.5055L41.743 35.3325L66.911 26.3965Z" fill="black"/>
<path opacity="0.1" d="M306.315 114.178L357.92 95.3614L394.297 70.7374L390.55 78.2314C390.55 78.2314 440.407 56.7314 438.909 57.0894C437.411 57.4474 392.683 68.1354 392.683 68.1354L340.505 97.6004L306.315 114.178Z" fill="#FF725E"/>
<path opacity="0.1" d="M438.909 57.0894L455.666 50.3864L474.301 26.6494L452.816 44.9374L438.909 57.0894Z" fill="#FF725E"/>
<path d="M178.35 32.1521C178.35 32.1521 178.493 32.0681 178.783 31.9231C179.088 31.7731 179.519 31.5611 180.082 31.2831C181.248 30.7201 182.953 29.8962 185.174 28.8232L185.142 28.8501C187.128 26.0011 189.821 22.1372 193.102 17.4292L193.173 17.3271L193.281 17.3902C200.274 21.4692 209.045 26.5841 219.228 32.5231L219.25 32.5361L219.268 32.5551C222.941 36.2551 226.916 40.2602 231.098 44.4722L231.069 44.4482C233.267 46.0232 235.355 47.8662 237.336 49.9032C239.305 51.9442 241.235 54.1511 242.904 56.6051C246.349 61.4211 249.935 66.4361 253.629 71.6021L253.556 71.5341C259.279 74.9971 265.302 78.6411 271.472 82.3741L271.409 82.3472C278.298 84.3072 285.519 86.3611 292.87 88.4531C294.617 88.9501 296.357 89.4461 298.087 89.9381H297.945C300.506 89.2091 303.047 88.4861 305.567 87.7691L305.678 87.7372L305.776 87.7981C310.169 90.5581 314.492 93.2741 318.731 95.9371L318.562 95.9001C326.995 94.7791 335.149 93.6961 342.954 92.6581L342.801 92.7411C346.627 88.2421 350.319 83.9012 353.864 79.7332L353.906 79.6841L353.967 79.6642C359.175 77.9602 364.123 76.3411 368.835 74.7991L368.709 74.9121C372.38 66.9101 375.708 59.6522 378.653 53.2332L378.669 53.1971L378.698 53.1721C383.383 49.2331 387.422 45.8361 390.918 42.8961L390.975 42.8481L391.045 42.8712C397.523 44.9872 402.561 46.6331 405.997 47.7551C407.695 48.3181 408.993 48.7481 409.885 49.0441C410.312 49.1901 410.638 49.3011 410.873 49.3811C411.094 49.4581 411.202 49.5061 411.202 49.5061C411.202 49.5061 411.086 49.4811 410.861 49.4151C410.623 49.3431 410.293 49.2432 409.862 49.1122C408.966 48.8322 407.66 48.4231 405.953 47.8891C402.508 46.7941 397.457 45.1892 390.962 43.1252L391.089 43.1001C387.607 46.0571 383.584 49.4732 378.919 53.4352L378.964 53.3752C376.04 59.8042 372.735 67.0731 369.091 75.0871L369.053 75.1711L368.965 75.2001C364.256 76.7521 359.311 78.3821 354.108 80.0981L354.211 80.0291C350.673 84.2031 346.989 88.5502 343.17 93.0562L343.11 93.1272L343.017 93.1391C335.213 94.1841 327.06 95.2761 318.628 96.4061L318.537 96.4182L318.459 96.3691C314.218 93.7081 309.894 90.9941 305.499 88.2361L305.708 88.2661C303.188 88.9841 300.647 89.7071 298.086 90.4361L298.015 90.4561L297.944 90.4361C296.215 89.9441 294.475 89.4481 292.727 88.9511C285.376 86.8581 278.157 84.8011 271.267 82.8401L271.234 82.8302L271.204 82.8121C265.036 79.0731 259.017 75.4242 253.297 71.9572L253.253 71.9301L253.223 71.8882C249.536 66.7182 245.957 61.6992 242.52 56.8792C240.862 54.4312 238.961 52.2531 237.007 50.2181C235.045 48.1931 232.98 46.3631 230.813 44.8031L230.797 44.7912L230.784 44.7782C226.614 40.5552 222.649 36.5402 218.986 32.8302L219.026 32.8611C208.868 26.8801 200.118 21.7281 193.142 17.6201L193.321 17.5811C190.005 22.2631 187.282 26.1071 185.275 28.9401L185.262 28.9581L185.243 28.9671C183.006 30.0091 181.29 30.8081 180.116 31.3551C179.544 31.6161 179.108 31.8162 178.799 31.9572C178.505 32.0942 178.35 32.1521 178.35 32.1521Z" fill="#FF725E"/>
<path opacity="0.3" d="M253.428 71.7471L271.6 91.9251L270.116 85.6311L303.952 103.625L286.039 87.6861L298.017 90.1881L271.34 82.5951L253.428 71.7471Z" fill="#FF725E"/>
<path opacity="0.3" d="M342.987 92.9C343.499 92.296 355.33 81.297 355.33 81.297L353.878 85.631L358.508 80.208L365.861 77.848L364.136 80.208L364.045 82.296L365.225 79.754L368.903 75.001L354.04 79.883L342.987 92.9Z" fill="#FF725E"/>
<path opacity="0.3" d="M305.639 88.0195L306.315 91.1365L309.723 94.4315L307.681 90.6425L309.283 91.2255L311.508 94.0475L314.061 95.6955L311.974 93.4435L311.508 92.1255L318.597 96.1555L305.878 88.0195" fill="#FF725E"/>
<path opacity="0.3" d="M310.438 95.7383L312.118 97.5023L315.104 98.4203L310.438 95.7383Z" fill="#FF725E"/>
<path opacity="0.3" fill-rule="evenodd" clip-rule="evenodd" d="M272.289 94.3252C272.715 94.3252 278.531 99.0092 278.531 99.0092L285.49 100.925L272.289 94.3252Z" fill="#FF725E"/>
<path opacity="0.3" fill-rule="evenodd" clip-rule="evenodd" d="M193.213 17.5068L201.18 35.7028L207.217 41.8178L204.198 34.7038L205.282 30.6838L214.598 35.7038L219.51 47.9168L228.222 54.3538L220.645 42.6538L219.849 39.6168C219.849 39.6168 229.335 45.7148 229.335 46.2228C229.335 46.7308 236.449 55.5388 236.449 55.5388L230.26 43.9388L219.127 32.6938L193.213 17.5068Z" fill="#FF725E"/>
<path opacity="0.3" fill-rule="evenodd" clip-rule="evenodd" d="M369.999 72.6C370.113 72.351 378.527 57.089 378.527 57.089L376.821 63.456L377.162 68.232C377.162 68.232 377.844 63.572 377.958 62.945C378.072 62.319 381.711 53.449 381.711 53.449L385.122 50.379L383.189 57.089L387.624 48.333L391.006 43L378.811 53.306L369.999 72.6Z" fill="#FF725E"/>
<path opacity="0.3" fill-rule="evenodd" clip-rule="evenodd" d="M382.717 58.8223C382.516 58.9023 381.431 61.8373 381.431 61.8373L381.672 63.8073L382.717 58.8223Z" fill="#FF725E"/>
<path opacity="0.3" fill-rule="evenodd" clip-rule="evenodd" d="M208.968 43.9395L213.251 51.7775L220.609 58.9915L208.968 43.9395Z" fill="#FF725E"/>
<path opacity="0.1" fill-rule="evenodd" clip-rule="evenodd" d="M386.598 82.5049C385.998 82.7049 372.628 90.9069 372.628 90.9069L370.994 95.7379L386.598 82.5049Z" fill="#FF725E"/>
<path d="M190.91 57.089C190.91 57.089 191.026 57.152 191.244 57.291C191.472 57.44 191.793 57.648 192.211 57.92C193.072 58.49 194.327 59.32 195.959 60.399C199.244 62.591 204.036 65.788 210.124 69.85C222.308 78.017 239.663 89.651 260.403 103.553L260.326 103.52C274.35 106.69 289.902 110.205 306.371 113.928L306.203 113.947C315.471 109.452 325.079 104.791 334.913 100.021C340.279 97.596 345.257 94.584 350.25 91.798C355.231 88.987 360.133 86.22 364.942 83.506C374.561 78.08 383.808 72.865 392.564 67.927L392.593 67.91L392.626 67.902C409.952 63.782 425.565 60.069 438.863 56.906L438.786 56.945C450.371 47.116 459.747 39.16 466.239 33.652C469.48 30.917 471.999 28.792 473.72 27.34C474.571 26.63 475.223 26.085 475.674 25.709C476.116 25.344 476.351 25.167 476.351 25.167C476.351 25.167 476.139 25.371 475.709 25.75C475.266 26.136 474.625 26.693 473.789 27.421C472.082 28.891 469.585 31.041 466.372 33.809C459.905 39.348 450.566 47.346 439.027 57.229L438.993 57.258L438.949 57.268C425.657 60.459 410.052 64.207 392.736 68.364L392.797 68.34C384.044 73.289 374.8 78.515 365.184 83.952C360.375 86.669 355.473 89.439 350.492 92.254C345.498 95.042 340.52 98.055 335.151 100.482C325.311 105.251 315.697 109.911 306.424 114.405L306.343 114.444L306.256 114.424C289.791 110.682 274.244 107.148 260.223 103.961L260.181 103.952L260.146 103.928C239.449 89.961 222.13 78.274 209.971 70.069C203.914 65.963 199.145 62.73 195.877 60.514C194.262 59.409 193.019 58.56 192.167 57.977C191.757 57.692 191.444 57.474 191.22 57.319C191.012 57.173 190.91 57.089 190.91 57.089Z" fill="#FF725E"/>
<path opacity="0.1" d="M258.774 103.943L218.416 83.9538L226.724 95.7378L237.76 99.2568L225.647 97.5538L209.769 83.0318L207.216 81.2328L207.217 87.6858L192.029 57.8408L260.276 103.742L258.774 103.943Z" fill="#FF725E"/>
<path opacity="0.1" d="M106.198 0.000102124C106.198 0.000102124 131.256 34.2081 131.383 33.8251C131.51 33.4431 125.391 16.9141 125.391 16.9141L135.08 19.2921L137.757 29.6191L164.657 44.9171L151.016 31.6581L151.908 27.7061L165.422 36.4471L167.207 32.4231C167.207 32.4231 189.886 55.7801 189.555 55.3571C189.224 54.9341 168.812 28.8511 168.812 28.8511L151.624 25.7821L142.416 12.2771C142.416 12.2771 105.618 -0.0408979 106.198 0.000102124Z" fill="#FF725E"/>
<path opacity="0.1" d="M156.298 51.7767C157.641 52.8147 166.047 58.9907 166.047 58.9907L179.933 83.9507L164.763 65.8657L161.766 65.4237L146.72 44.8027L153.828 51.7767H156.298Z" fill="#FF725E"/>
<path opacity="0.1" d="M425.274 70.0018C423.724 70.6958 414.105 74.7288 414.105 74.7288L394.755 95.7378L413.741 81.7128L416.758 81.9858L436.219 65.4668L427.674 70.5798L425.274 70.0018Z" fill="#FF725E"/>
<path opacity="0.1" d="M147.13 74.3451C148.474 75.3831 156.879 81.5591 156.879 81.5591L158.902 92.3761L155.288 85.2581L152.596 85.7191L142.542 67.0801L147.292 71.6521L147.13 74.3451Z" fill="#FF725E"/>
<path opacity="0.1" d="M215.761 98.6045C217.256 99.4095 226.556 104.132 226.556 104.132L230.316 114.474L225.589 108.041L223.008 108.935L210.049 92.1855L215.481 95.9215L215.761 98.6045Z" fill="#FF725E"/>
<path opacity="0.1" d="M399.956 123.41L423.273 113.08C423.273 113.08 423.709 104.621 424.295 104.606C424.881 104.591 433.892 106.412 433.892 106.412V92.5807L453.649 69.1797L465.252 65.3247C465.252 65.3247 457.412 71.1607 456.471 71.5957C455.53 72.0307 452.394 83.5567 452.394 83.5567L472.151 71.5957L479.364 58.4207L490.967 52.8087H480.618L494.085 38.4757L480.12 33.4287L510.464 39.5857L559.648 69.1807L612.887 78.7497L665.124 121.117L399.956 123.41Z" fill="black"/>
<path d="M476.619 75.4482C476.043 75.6342 470.718 82.7172 470.718 82.7172C470.718 82.7172 469.423 89.1643 469.855 88.8763C470.287 88.5883 478.347 78.9392 478.347 78.9392L476.619 75.4482Z" fill="#455A64"/>
<path opacity="0.1" d="M328.653 125.089L359.449 119.258V123.265L386.598 103.33L375.563 119.088L386.598 122.478L411.205 125.259L328.653 125.089Z" fill="black"/>
</svg>
