<svg width="107" height="107" viewBox="0 0 107 107" fill="none" xmlns="http://www.w3.org/2000/svg">
<path d="M60.3171 98.9276C85.637 94.9315 102.923 71.1661 98.9272 45.8462C94.9311 20.5263 71.1657 3.23992 45.8458 7.23605C20.5259 11.2322 3.2395 34.9975 7.23563 60.3175C11.2318 85.6374 34.9971 102.924 60.3171 98.9276Z" fill="#FF725E"/>
<g opacity="0.9">
<path d="M60.3171 98.9276C85.637 94.9315 102.923 71.1661 98.9272 45.8462C94.9311 20.5263 71.1657 3.23992 45.8458 7.23605C20.5259 11.2322 3.2395 34.9975 7.23563 60.3175C11.2318 85.6374 34.9971 102.924 60.3171 98.9276Z" fill="white"/>
</g>
<path d="M53.0644 94.4842C75.9245 94.4842 94.4564 75.9524 94.4564 53.0922C94.4564 30.232 75.9245 11.7002 53.0644 11.7002C30.2042 11.7002 11.6724 30.232 11.6724 53.0922C11.6724 75.9524 30.2042 94.4842 53.0644 94.4842Z" fill="#FF725E"/>
<g opacity="0.6">
<path d="M53.0644 94.4842C75.9245 94.4842 94.4564 75.9524 94.4564 53.0922C94.4564 30.232 75.9245 11.7002 53.0644 11.7002C30.2042 11.7002 11.6724 30.232 11.6724 53.0922C11.6724 75.9524 30.2042 94.4842 53.0644 94.4842Z" fill="white"/>
</g>
<path d="M87.4077 55.5672C88.7754 36.5943 74.5036 20.105 55.5307 18.7373C36.5578 17.3696 20.0685 31.6414 18.7008 50.6143C17.3331 69.5872 31.6049 86.0765 50.5778 87.4442C69.5507 88.8119 86.04 74.5401 87.4077 55.5672Z" fill="#FF725E"/>
<g opacity="0.3">
<path d="M87.4077 55.5672C88.7754 36.5943 74.5036 20.105 55.5307 18.7373C36.5578 17.3696 20.0685 31.6414 18.7008 50.6143C17.3331 69.5872 31.6049 86.0765 50.5778 87.4442C69.5507 88.8119 86.04 74.5401 87.4077 55.5672Z" fill="white"/>
</g>
<path d="M53.0643 80.6707C68.2952 80.6707 80.6423 68.3236 80.6423 53.0927C80.6423 37.8617 68.2952 25.5146 53.0643 25.5146C37.8334 25.5146 25.4863 37.8617 25.4863 53.0927C25.4863 68.3236 37.8334 80.6707 53.0643 80.6707Z" fill="#FF725E"/>
</svg>
