<svg width="218" height="321" viewBox="0 0 218 321" fill="none" xmlns="http://www.w3.org/2000/svg">
<path d="M214.432 275.768C214.432 275.768 213.454 275.117 215.606 272.298C216.289 271.403 216.42 270.64 216.281 270.014C215.99 268.702 214.453 268.013 213.237 268.584C208.57 270.776 203.201 270.603 199.021 269.89C196.772 269.507 196.458 266.421 198.572 265.562C203.023 263.754 208.261 261.161 209.346 258.635C209.764 257.663 209.851 256.938 209.731 256.399C209.513 255.419 209.823 254.362 210.749 253.975C211.655 253.596 212.451 253.071 212.868 252.346C213.783 250.753 211.687 248.966 210.194 247.955C209.539 247.512 209.129 246.753 209.221 245.968C209.293 245.356 209.248 244.512 208.858 243.455C208.336 242.039 201.019 240.24 195.16 239.012C193.423 238.648 192.834 236.547 194.036 235.241C194.596 234.632 195.014 234.007 195.307 233.498C195.695 232.822 196.388 232.405 197.168 232.378C199.961 232.283 206.355 231.731 208.173 228.708C210.521 224.805 206.608 223.72 199.955 220.467C195.933 218.5 188.987 213.289 184.116 209.471C184.981 209.45 185.846 209.379 186.702 209.242C185.203 208.095 183.797 206.994 182.588 206.035C182.381 205.871 182.217 205.682 182.087 205.48C182.385 204.923 182.915 204.484 183.637 204.348C186.23 203.86 189.11 203.106 190.367 202.034C190.912 201.569 191.233 201.184 191.4 200.866C191.793 200.117 192.483 199.576 193.329 199.563C200.84 199.445 197.802 194.66 197.802 194.66C188.004 191.619 181.259 186.162 177.858 182.871C176.654 181.705 177.109 179.687 178.692 179.134C180.927 178.354 183.779 177.107 185.671 175.36C186.728 174.384 186.886 173.623 186.591 173.035C186.021 171.902 186.337 170.517 187.527 170.076C190.226 169.074 192.317 167.366 188.216 164.734C185.418 162.938 181.789 160.836 178.496 158.993C176.619 157.942 177.155 155.104 179.284 154.79C180.194 154.656 180.781 154.542 180.781 154.542C184.907 152.691 184.889 150.402 183.849 148.582C183.929 147.888 183.756 147.208 183.443 146.575C183.321 146.877 183.153 147.131 182.962 147.36C181.947 146.204 180.781 145.433 180.781 145.433C175.688 142.553 169.326 137.348 164.479 133.101C162.871 131.692 163.938 129.125 166.076 129.151C166.655 129.158 167.196 129.098 167.672 128.952C171.193 127.868 163.759 123.531 163.759 123.531C163.759 123.531 167.476 124.616 169.041 123.531C170.606 122.447 164.933 117.459 164.933 117.459C157.516 112.64 148.581 100.936 143.576 93.981C142.675 92.729 140.829 92.729 139.928 93.981C134.923 100.936 125.987 112.64 118.57 117.459C118.57 117.459 117.149 118.708 115.925 120.092L114.247 120.318C114.134 120.716 114.178 121.039 114.461 121.235C114.581 121.318 114.716 121.384 114.858 121.443C114.236 122.355 113.933 123.166 114.461 123.531C114.858 123.806 115.394 123.941 115.972 123.99C114.894 125.036 114.337 126.094 115.67 126.597C114.764 127.578 114.432 128.522 115.831 128.953C116.307 129.1 116.848 129.159 117.427 129.152C119.565 129.126 120.631 131.693 119.024 133.102C114.178 137.349 107.815 142.554 102.722 145.434C102.722 145.434 94.5051 150.855 102.722 154.542C102.722 154.542 103.31 154.656 104.22 154.79C106.348 155.104 106.885 157.942 105.008 158.993C101.715 160.836 98.0861 162.939 95.2881 164.734C91.1861 167.366 93.2781 169.074 95.9771 170.076C97.1661 170.518 97.4831 171.902 96.9121 173.035C96.6161 173.623 96.7751 174.384 97.8311 175.36C99.7231 177.108 102.576 178.355 104.81 179.134C106.393 179.686 106.848 181.705 105.644 182.871C102.243 186.162 95.4981 191.62 85.7001 194.66C85.7001 194.66 82.6621 199.445 90.1731 199.563C91.0191 199.576 91.7091 200.117 92.1031 200.866C92.2701 201.184 92.5911 201.569 93.1361 202.034C94.3921 203.105 97.2731 203.859 99.8661 204.348C101.758 204.704 102.344 207.135 100.835 208.331C95.9951 212.17 87.9871 218.297 83.5491 220.468C76.8971 223.721 72.9841 224.805 75.3311 228.709C77.1491 231.732 83.5441 232.284 86.3361 232.379C87.1151 232.406 87.8081 232.823 88.1971 233.499C88.4891 234.008 88.9071 234.633 89.4681 235.242C89.7781 235.579 89.9641 235.969 90.0471 236.368C89.7351 236.431 89.4191 236.495 89.0941 236.562C89.4221 236.688 89.7601 236.782 90.0951 236.884C90.0751 237.862 89.4401 238.784 88.3431 239.014C82.4841 240.242 75.1671 242.04 74.6451 243.457C74.2551 244.514 74.2111 245.358 74.2821 245.97C74.3741 246.755 73.9631 247.514 73.3091 247.957C71.8161 248.968 69.7201 250.755 70.6351 252.348C71.0511 253.073 71.8471 253.598 72.7531 253.977C73.6791 254.364 73.9891 255.421 73.7711 256.401C73.6511 256.94 73.7391 257.665 74.1561 258.637C75.2411 261.163 80.4791 263.755 84.9301 265.564C87.0441 266.423 86.7291 269.509 84.4801 269.892C80.2991 270.605 74.9311 270.778 70.2641 268.586C69.0481 268.015 67.5111 268.704 67.2201 270.016C67.0811 270.642 67.2121 271.405 67.8951 272.3C70.0471 275.119 69.0691 275.77 69.0691 275.77C69.0691 275.77 64.1781 272.083 66.3301 277.722C67.5451 280.904 71.6871 283.395 75.0661 284.961C76.5361 285.642 76.7661 287.509 75.6271 288.661C74.9601 289.336 74.6781 290.227 75.3301 291.384C77.2861 294.854 85.5041 298.974 94.5051 299.842C99.1271 300.287 104.574 299.646 108.781 298.917C110.363 298.643 111.491 300.109 111.14 301.675C110.939 302.572 111.391 303.463 113.093 304.179C116.348 305.547 119.86 304.347 122.263 303.075C123.408 302.469 124.854 302.914 125.366 304.104C125.765 305.031 126.696 305.619 128.745 304.786C130.94 303.894 132.958 302.616 134.491 301.505V319.222C134.491 319.699 134.877 320.085 135.354 320.085H153.502C153.979 320.085 154.365 319.699 154.365 319.222V304.615C154.497 304.672 154.627 304.732 154.76 304.786C156.809 305.618 157.74 305.031 158.139 304.104C158.651 302.914 160.098 302.469 161.242 303.075C163.646 304.347 167.158 305.548 170.412 304.179C172.114 303.463 172.566 302.572 172.365 301.675C172.014 300.109 173.142 298.643 174.724 298.917C178.93 299.646 184.378 300.288 189 299.842C198 298.974 206.218 294.854 208.174 291.384C208.826 290.227 208.544 289.336 207.877 288.661C206.738 287.509 206.969 285.642 208.438 284.961C211.817 283.394 215.96 280.903 217.174 277.722C219.324 272.081 214.432 275.768 214.432 275.768Z" fill="#263238"/>
<path d="M7.323 272.539L32.652 281.769V269.652C32.82 269.725 32.986 269.801 33.156 269.87C35.768 270.931 36.955 270.182 37.463 269.001C38.116 267.485 39.959 266.918 41.418 267.69C44.481 269.312 48.958 270.842 53.106 269.098C55.275 268.186 55.852 267.05 55.595 265.907C55.147 263.911 56.586 262.042 58.601 262.392C63.962 263.322 70.905 264.139 76.796 263.571C88.267 262.465 98.741 257.214 101.234 252.791C102.065 251.317 101.705 250.18 100.855 249.321C99.404 247.852 99.697 245.474 101.57 244.605C105.877 242.608 111.157 239.433 112.704 235.378C115.447 228.192 109.213 232.891 109.213 232.891C109.213 232.891 107.966 232.062 110.709 228.469C111.579 227.329 111.747 226.356 111.57 225.558C111.199 223.886 109.24 223.007 107.69 223.736C101.742 226.53 94.899 226.309 89.571 225.401C86.704 224.912 86.304 220.979 88.998 219.884C94.671 217.579 101.347 214.275 102.73 211.056C103.262 209.817 103.374 208.893 103.221 208.206C102.943 206.958 103.338 205.61 104.518 205.117C105.673 204.634 106.688 203.965 107.218 203.04C108.384 201.009 105.712 198.732 103.809 197.444C102.975 196.879 102.452 195.912 102.569 194.911C102.66 194.13 102.603 193.055 102.107 191.708C101.441 189.903 92.116 187.611 84.648 186.046C82.435 185.582 81.684 182.904 83.215 181.24C83.929 180.463 84.462 179.667 84.835 179.018C85.33 178.156 86.213 177.625 87.206 177.591C90.765 177.47 98.915 176.766 101.232 172.913C104.225 167.938 99.237 166.556 90.758 162.41C85.632 159.903 76.779 153.261 70.571 148.395C71.673 148.368 72.777 148.277 73.868 148.103C71.957 146.641 70.165 145.237 68.625 144.015C68.361 143.806 68.152 143.565 67.987 143.308C68.366 142.598 69.042 142.038 69.963 141.865C73.268 141.242 76.939 140.282 78.541 138.916C79.236 138.324 79.644 137.833 79.857 137.428C80.358 136.473 81.238 135.784 82.316 135.767C91.889 135.617 88.017 129.518 88.017 129.518C75.529 125.643 66.933 118.687 62.598 114.492C61.063 113.006 61.643 110.433 63.661 109.73C66.509 108.736 70.144 107.147 72.556 104.919C73.903 103.675 74.105 102.705 73.728 101.956C73.001 100.512 73.405 98.7472 74.92 98.1842C78.36 96.9062 81.025 94.7293 75.798 91.3753C72.232 89.0863 67.606 86.4072 63.41 84.0572C61.017 82.7172 61.701 79.1002 64.414 78.7002C65.573 78.5292 66.322 78.3843 66.322 78.3843C71.581 76.0243 71.558 73.1082 70.232 70.7882C70.334 69.9042 70.114 69.0362 69.715 68.2302C69.56 68.6152 69.345 68.9382 69.102 69.2302C67.809 67.7562 66.322 66.7752 66.322 66.7752C59.831 63.1052 51.722 56.4712 45.545 51.0572C43.496 49.2612 44.855 45.9902 47.58 46.0232C48.318 46.0322 49.007 45.9562 49.614 45.7692C54.102 44.3872 44.627 38.8592 44.627 38.8592C44.627 38.8592 49.365 40.2412 51.36 38.8592C53.355 37.4772 46.124 31.1202 46.124 31.1202C36.671 24.9782 25.283 10.0612 18.903 1.19625C17.755 -0.39875 15.402 -0.39875 14.254 1.19625C10.672 6.17325 5.511 13.0582 0 19.2272V269.87C2.798 268.734 5.369 267.104 7.324 265.689L7.323 272.539Z" fill="#263238"/>
</svg>
