<svg width="267" height="292" viewBox="0 0 267 292" fill="none" xmlns="http://www.w3.org/2000/svg">
<path d="M263.082 203.097C263.082 203.097 262.022 202.376 264.353 199.253C265.093 198.262 265.235 197.416 265.084 196.723C264.768 195.27 263.104 194.506 261.787 195.139C256.732 197.568 250.917 197.376 246.389 196.586C243.953 196.161 243.613 192.742 245.902 191.791C250.723 189.788 256.396 186.915 257.572 184.117C258.024 183.04 258.119 182.237 257.989 181.64C257.753 180.555 258.089 179.384 259.092 178.955C260.074 178.535 260.936 177.953 261.387 177.15C262.378 175.385 260.107 173.406 258.49 172.286C257.781 171.795 257.337 170.954 257.436 170.084C257.513 169.406 257.465 168.471 257.043 167.3C256.477 165.731 248.552 163.738 242.206 162.378C240.325 161.975 239.687 159.647 240.988 158.2C241.595 157.525 242.048 156.832 242.364 156.269C242.785 155.52 243.535 155.058 244.379 155.028C247.404 154.923 254.33 154.311 256.299 150.962C258.842 146.638 254.604 145.436 247.398 141.832C243.042 139.653 235.518 133.88 230.242 129.65C231.179 129.626 232.116 129.548 233.044 129.396C231.42 128.125 229.897 126.905 228.588 125.843C228.364 125.661 228.186 125.452 228.045 125.228C228.367 124.611 228.941 124.124 229.724 123.974C232.533 123.433 235.652 122.598 237.014 121.411C237.604 120.896 237.952 120.47 238.133 120.117C238.559 119.287 239.306 118.688 240.223 118.674C248.359 118.544 245.068 113.242 245.068 113.242C234.456 109.873 227.15 103.827 223.466 100.18C222.161 98.8885 222.655 96.6525 224.369 96.0405C226.789 95.1765 229.879 93.7955 231.928 91.8585C233.072 90.7775 233.244 89.9345 232.924 89.2825C232.306 88.0275 232.649 86.4935 233.937 86.0035C236.861 84.8925 239.125 83.0005 234.683 80.0845C231.652 78.0945 227.722 75.7655 224.155 73.7235C222.122 72.5585 222.703 69.4145 225.008 69.0675C225.993 68.9185 226.63 68.7925 226.63 68.7925C231.099 66.7415 231.079 64.2065 229.953 62.1895C230.04 61.4205 229.853 60.6665 229.513 59.9665C229.381 60.3015 229.199 60.5815 228.992 60.8355C227.893 59.5545 226.63 58.7015 226.63 58.7015C221.114 55.5105 214.222 49.7445 208.973 45.0385C207.231 43.4775 208.387 40.6335 210.702 40.6625C211.329 40.6705 211.915 40.6045 212.431 40.4415C216.245 39.2405 208.193 34.4355 208.193 34.4355C208.193 34.4355 212.22 35.6375 213.915 34.4355C215.61 33.2345 209.465 27.7085 209.465 27.7085C201.432 22.3695 191.753 9.40248 186.332 1.69748C185.356 0.310477 183.357 0.310477 182.381 1.69748C176.959 9.40248 167.281 22.3705 159.248 27.7085C159.248 27.7085 157.709 29.0925 156.383 30.6255L154.566 30.8755C154.444 31.3165 154.491 31.6745 154.797 31.8915C154.927 31.9835 155.073 32.0565 155.227 32.1225C154.553 33.1325 154.225 34.0305 154.797 34.4355C155.227 34.7405 155.807 34.8895 156.433 34.9435C155.265 36.1025 154.662 37.2735 156.106 37.8315C155.125 38.9185 154.765 39.9645 156.281 40.4415C156.797 40.6035 157.382 40.6695 158.009 40.6625C160.325 40.6345 161.48 43.4775 159.738 45.0385C154.489 49.7445 147.597 55.5115 142.081 58.7015C142.081 58.7015 133.18 64.7075 142.081 68.7925C142.081 68.7925 142.718 68.9185 143.703 69.0675C146.008 69.4155 146.589 72.5595 144.556 73.7235C140.99 75.7655 137.059 78.0945 134.028 80.0845C129.585 83.0005 131.85 84.8925 134.774 86.0035C136.062 86.4925 136.405 88.0265 135.787 89.2825C135.466 89.9335 135.638 90.7765 136.782 91.8585C138.832 93.7945 141.921 95.1765 144.341 96.0405C146.055 96.6525 146.549 98.8885 145.244 100.18C141.56 103.827 134.255 109.873 123.642 113.242C123.642 113.242 120.352 118.543 128.487 118.674C129.403 118.689 130.151 119.287 130.577 120.117C130.758 120.469 131.105 120.896 131.696 121.411C133.057 122.598 136.177 123.433 138.985 123.974C141.034 124.369 141.668 127.061 140.035 128.387C134.793 132.64 126.118 139.429 121.311 141.833C114.106 145.437 109.867 146.638 112.41 150.963C114.379 154.312 121.305 154.924 124.33 155.029C125.174 155.059 125.925 155.521 126.345 156.27C126.662 156.833 127.114 157.526 127.721 158.201C128.057 158.574 128.259 159.006 128.348 159.448C128.01 159.517 127.668 159.589 127.316 159.663C127.672 159.803 128.037 159.907 128.4 160.019C128.379 161.102 127.691 162.124 126.503 162.379C120.157 163.739 112.232 165.732 111.667 167.301C111.245 168.472 111.197 169.407 111.274 170.085C111.373 170.955 110.929 171.796 110.22 172.287C108.603 173.407 106.333 175.387 107.324 177.151C107.775 177.955 108.637 178.536 109.618 178.956C110.621 179.385 110.957 180.556 110.721 181.641C110.591 182.238 110.686 183.042 111.138 184.118C112.313 186.916 117.987 189.789 122.808 191.792C125.097 192.743 124.757 196.162 122.321 196.587C117.793 197.377 111.978 197.569 106.923 195.14C105.606 194.507 103.941 195.271 103.626 196.724C103.475 197.417 103.618 198.263 104.357 199.254C106.688 202.377 105.629 203.098 105.629 203.098C105.629 203.098 100.331 199.013 102.662 205.26C103.977 208.785 108.464 211.545 112.124 213.28C113.716 214.035 113.965 216.103 112.732 217.379C112.01 218.126 111.704 219.114 112.41 220.396C114.529 224.24 123.43 228.805 133.179 229.766C138.185 230.259 144.085 229.549 148.641 228.741C150.354 228.437 151.577 230.061 151.196 231.797C150.978 232.791 151.467 233.779 153.311 234.571C156.836 236.087 160.64 234.757 163.243 233.347C164.483 232.676 166.05 233.169 166.604 234.487C167.036 235.514 168.045 236.165 170.264 235.243C172.642 234.255 174.827 232.839 176.488 231.608V251.236C176.488 251.764 176.906 261.625 177.423 261.625L197.079 252.192C197.595 252.192 198.014 251.764 198.014 251.236V235.053C198.157 235.116 198.298 235.183 198.442 235.243C200.661 236.165 201.67 235.514 202.102 234.487C202.657 233.169 204.224 232.676 205.463 233.347C208.066 234.757 211.87 236.087 215.395 234.571C217.239 233.778 217.728 232.791 217.51 231.797C217.129 230.062 218.352 228.438 220.065 228.741C224.621 229.549 230.522 230.259 235.528 229.766C245.277 228.805 254.177 224.24 256.296 220.396C257.002 219.115 256.696 218.127 255.974 217.379C254.741 216.103 254.99 214.035 256.582 213.28C260.242 211.544 264.729 208.784 266.044 205.26C268.38 199.012 263.082 203.097 263.082 203.097Z" fill="#263238"/>
<path d="M148.653 247.085C148.653 247.085 147.675 246.434 149.827 243.615C150.51 242.72 150.641 241.957 150.502 241.331C150.211 240.019 148.674 239.33 147.458 239.901C142.791 242.093 137.422 241.92 133.242 241.207C130.993 240.823 130.679 237.737 132.792 236.879C137.243 235.071 142.481 232.478 143.566 229.952C143.983 228.98 144.071 228.255 143.951 227.716C143.733 226.737 144.043 225.679 144.969 225.292C145.875 224.913 146.671 224.388 147.088 223.663C148.003 222.07 145.907 220.283 144.414 219.272C143.759 218.829 143.349 218.07 143.441 217.285C143.512 216.673 143.468 215.829 143.078 214.772C142.556 213.356 135.239 211.557 129.38 210.329C127.643 209.965 127.054 207.864 128.256 206.558C128.816 205.949 129.235 205.324 129.527 204.815C129.915 204.139 130.608 203.722 131.387 203.695C134.18 203.6 140.574 203.048 142.392 200.025C144.74 196.122 140.827 195.037 134.174 191.785C130.152 189.818 123.206 184.607 118.335 180.789C119.2 180.767 120.065 180.697 120.921 180.56C119.422 179.413 118.016 178.312 116.807 177.353C116.6 177.189 116.436 177 116.306 176.798C116.604 176.241 117.134 175.802 117.856 175.666C120.449 175.178 123.329 174.424 124.586 173.352C125.131 172.887 125.452 172.502 125.619 172.184C126.012 171.435 126.702 170.894 127.548 170.881C135.059 170.763 132.021 165.978 132.021 165.978C122.223 162.937 115.478 157.48 112.077 154.188C110.872 153.022 111.328 151.004 112.911 150.451C115.145 149.671 117.998 148.424 119.89 146.677C120.947 145.701 121.105 144.94 120.809 144.352C120.239 143.219 120.555 141.834 121.745 141.393C124.444 140.391 126.535 138.683 122.433 136.051C119.635 134.255 116.006 132.153 112.713 130.31C110.836 129.259 111.372 126.421 113.501 126.107C114.411 125.973 114.998 125.859 114.998 125.859C119.124 124.008 119.106 121.719 118.066 119.899C118.146 119.205 117.973 118.525 117.66 117.892C117.538 118.194 117.37 118.448 117.179 118.677C116.164 117.521 114.998 116.75 114.998 116.75C109.905 113.87 103.543 108.665 98.6961 104.418C97.0881 103.009 98.1551 100.442 100.293 100.468C100.872 100.475 101.413 100.415 101.889 100.269C105.41 99.1854 97.9761 94.8484 97.9761 94.8484C97.9761 94.8484 101.694 95.9334 103.258 94.8484C104.823 93.7644 99.1491 88.7764 99.1491 88.7764C91.7321 83.9574 82.7971 72.2534 77.7921 65.2984C76.8911 64.0464 75.0451 64.0464 74.1441 65.2984C69.1391 72.2534 60.2031 83.9574 52.7861 88.7764C52.7861 88.7764 51.3651 90.0254 50.1411 91.4094L48.4631 91.6354C48.3501 92.0334 48.3941 92.3564 48.6771 92.5524C48.7971 92.6354 48.9321 92.7014 49.0741 92.7604C48.4521 93.6724 48.1491 94.4834 48.6771 94.8484C49.0741 95.1234 49.6101 95.2584 50.1881 95.3074C49.1101 96.3534 48.5531 97.4114 49.8861 97.9144C48.9801 98.8954 48.6481 99.8394 50.0471 100.27C50.5231 100.417 51.0641 100.476 51.6431 100.469C53.7811 100.443 54.8471 103.01 53.2401 104.419C48.3941 108.666 42.0311 113.871 36.9381 116.751C36.9381 116.751 28.7211 122.172 36.9381 125.859C36.9381 125.859 37.5261 125.973 38.4351 126.107C40.5641 126.421 41.1001 129.259 39.2231 130.31C35.9301 132.153 32.3011 134.256 29.5031 136.051C25.4011 138.683 27.4921 140.391 30.1921 141.393C31.3811 141.835 31.6981 143.219 31.1271 144.352C30.8311 144.94 30.9901 145.701 32.0461 146.677C33.9381 148.425 36.7911 149.672 39.0251 150.451C40.6071 151.003 41.0631 153.022 39.8591 154.188C36.4581 157.479 29.7131 162.937 19.9161 165.978C19.9161 165.978 16.8781 170.763 24.3891 170.881C25.2351 170.894 25.9251 171.435 26.3191 172.184C26.4861 172.502 26.8071 172.887 27.3521 173.352C28.6081 174.423 31.4891 175.177 34.0821 175.666C35.9741 176.022 36.5591 178.453 35.0511 179.649C30.2111 183.488 22.2031 189.615 17.7651 191.786C11.1131 195.039 7.2001 196.123 9.5471 200.026C11.3651 203.049 17.7591 203.601 20.5521 203.696C21.3311 203.723 22.0241 204.14 22.4131 204.816C22.7051 205.325 23.1231 205.95 23.6841 206.559C23.9941 206.896 24.1801 207.286 24.2631 207.685C23.9511 207.748 23.6351 207.812 23.3101 207.879C23.6381 208.005 23.9761 208.099 24.3111 208.201C24.2911 209.179 23.6561 210.101 22.5591 210.331C16.7001 211.559 9.3841 213.357 8.8611 214.774C8.4711 215.831 8.42709 216.675 8.49809 217.287C8.59009 218.072 8.1791 218.831 7.5251 219.274C6.0321 220.285 3.93609 222.072 4.85109 223.665C5.26709 224.39 6.0631 224.915 6.9691 225.294C7.8951 225.681 8.2051 226.738 7.9871 227.718C7.8671 228.257 7.95508 228.982 8.37208 229.954C9.45708 232.48 14.6951 235.072 19.1461 236.881C21.2601 237.74 20.9461 240.826 18.6971 241.209C14.5161 241.922 9.14809 242.095 4.48109 239.903C3.26509 239.332 1.72809 240.021 1.43709 241.333C1.29809 241.959 1.4291 242.722 2.1121 243.617C4.2641 246.436 3.28609 247.087 3.28609 247.087C3.28609 247.087 -1.6049 243.4 0.547102 249.039C1.7621 252.221 5.9041 254.711 9.2831 256.278C10.7531 256.959 10.9831 258.826 9.8441 259.978C9.1771 260.653 8.8951 261.544 9.5471 262.701C11.5041 266.171 19.7211 270.291 28.7221 271.159C33.3441 271.604 38.7911 270.963 42.9981 270.234C44.5801 269.96 45.7081 271.426 45.3571 272.992C45.1561 273.889 45.6081 274.781 47.3101 275.496C50.5651 276.864 54.0771 275.664 56.4801 274.392C57.6241 273.786 59.0711 274.231 59.5831 275.421C59.9821 276.348 60.9131 276.936 62.9621 276.103C65.1571 275.211 67.1751 273.933 68.7081 272.822V290.539C68.7081 291.015 69.0941 291.402 69.5711 291.402H87.7191C88.1961 291.402 88.5821 291.016 88.5821 290.539V275.932C88.7141 275.989 88.8441 276.049 88.9771 276.103C91.0261 276.936 91.9581 276.348 92.3561 275.421C92.8681 274.231 94.3151 273.786 95.4591 274.392C97.8631 275.664 101.375 276.865 104.629 275.496C106.331 274.78 106.783 273.889 106.582 272.992C106.231 271.426 107.359 269.96 108.941 270.234C113.147 270.963 118.595 271.605 123.217 271.159C132.217 270.291 140.435 266.171 142.391 262.701C143.043 261.544 142.76 260.653 142.094 259.978C140.955 258.826 141.186 256.959 142.655 256.278C146.034 254.711 150.177 252.22 151.391 249.039C153.544 243.399 148.653 247.085 148.653 247.085Z" fill="#263238"/>
</svg>
