<svg width="750" height="500" viewBox="0 0 750 500" fill="none" xmlns="http://www.w3.org/2000/svg">
<path d="M353.749 228.046C342.317 224.581 336.896 228.949 336.896 228.949C336.896 228.949 336.557 223.182 331.268 220.591C327.554 218.772 322.741 217.884 319.573 220.544C322.281 215.316 321.147 208.371 316.916 204.277C312.685 200.183 305.707 199.277 300.571 202.156C307.976 183.562 297.93 159.918 279.405 152.341C260.881 144.764 237.144 154.59 229.395 173.043C228.674 164.159 218.554 157.372 210.062 160.076C213.417 153.646 207.492 144.595 200.257 145.098C203.778 132.753 199.13 118.489 189.012 110.588C178.894 102.687 163.93 101.635 152.806 108.042C141.682 114.45 135.084 127.923 136.843 140.639C130.744 136.269 121.24 137.778 116.795 143.824C113.099 126.355 94.036 114.171 76.375 116.806C58.714 119.44 44.399 135.449 42.284 153.179C40.169 170.909 49.505 189.118 64.323 199.08L360.27 252.962C367.689 245.682 363.697 231.062 353.749 228.046Z" fill="#EBEBEB"/>
<g opacity="0.72">
<path d="M185.757 144.48C190.031 147.234 192.656 152.365 192.39 157.442C195.665 156.582 199.291 157.161 202.135 158.999C204.979 160.837 206.997 163.905 207.558 167.244C206.201 164.039 202.963 160.796 199.662 159.691C194.899 158.097 191.205 159.513 189.113 161.991C190.213 157.063 188.656 151.622 185.114 148.022C181.573 144.422 176.158 142.776 171.213 143.796C175.726 141.455 181.483 141.726 185.757 144.48Z" fill="white"/>
</g>
<g opacity="0.72">
<path d="M166.965 146.489C169.271 147.975 170.688 150.744 170.544 153.483C172.311 153.019 174.268 153.332 175.802 154.323C177.336 155.314 178.425 156.97 178.728 158.772C177.996 157.043 176.248 155.293 174.468 154.697C171.898 153.837 169.905 154.601 168.776 155.938C169.37 153.279 168.529 150.343 166.618 148.401C164.707 146.459 161.785 145.57 159.117 146.12C161.552 144.857 164.659 145.003 166.965 146.489Z" fill="white"/>
</g>
<path d="M296.454 145.268C296.454 145.276 296.361 145.282 296.211 145.283C296.061 145.284 295.854 145.279 295.625 145.265C295.397 145.25 295.19 145.229 295.042 145.208C294.893 145.188 294.802 145.169 294.803 145.162C294.804 145.154 294.897 145.158 295.046 145.168C295.218 145.18 295.413 145.193 295.629 145.208C295.845 145.221 296.04 145.233 296.212 145.243C296.362 145.252 296.454 145.26 296.454 145.268Z" fill="#E0E0E0"/>
<path d="M296.589 145.02C296.589 145.028 296.496 145.034 296.346 145.035C296.196 145.036 295.989 145.031 295.76 145.017C295.532 145.002 295.325 144.981 295.177 144.96C295.028 144.94 294.937 144.921 294.938 144.914C294.939 144.906 295.032 144.91 295.181 144.92C295.353 144.932 295.548 144.945 295.764 144.96C295.98 144.973 296.175 144.985 296.347 144.995C296.497 145.004 296.589 145.012 296.589 145.02Z" fill="#E0E0E0"/>
<path d="M290.163 144.807C290.163 144.807 290.409 144.346 290.677 144.218C290.945 144.09 293.352 143.83 293.352 143.83L297.469 144.2C297.469 144.2 297.339 144.629 296.694 144.684C296.049 144.739 295.315 144.729 295.315 144.729C295.315 144.729 294.881 145.22 294.184 145.407C293.487 145.594 292.563 145.673 291.898 145.27C291.233 144.867 290.707 145.4 290.451 144.97C290.338 144.781 290.163 144.807 290.163 144.807Z" fill="#E0E0E0"/>
<path d="M298.135 138.17C297.993 138.562 297.82 138.943 297.617 139.307C297.555 139.418 297.48 139.537 297.358 139.576C297.605 138.992 297.737 138.359 297.745 137.725C297.676 137.937 297.599 138.147 297.513 138.353C297.449 138.507 297.379 138.66 297.297 138.806C297.08 139.189 296.775 139.515 296.474 139.837C296.242 140.085 296.026 140.352 295.759 140.561C295.22 140.983 295.181 140.955 294.59 141.354C294.408 141.477 294.057 141.664 293.932 141.844C293.869 141.935 293.833 142.04 293.794 142.144C293.477 142.983 292.962 143.747 292.302 144.355L293.667 144.613C294.217 144.553 294.721 144.24 295.081 143.82C295.441 143.4 295.667 142.878 295.808 142.343C295.842 142.213 295.874 142.076 295.963 141.976C296.037 141.893 296.141 141.844 296.234 141.784C296.394 141.681 296.529 141.539 296.623 141.374C296.519 141.451 296.389 141.492 296.259 141.488C296.599 141.24 296.924 140.972 297.232 140.684C297.518 140.417 297.797 140.121 297.922 139.75C297.813 139.904 297.664 140.03 297.493 140.112C297.89 139.545 298.117 138.861 298.135 138.17Z" fill="#E0E0E0"/>
<path d="M290.739 144.521C290.712 144.513 290.682 144.525 290.664 144.546C290.646 144.568 290.641 144.597 290.645 144.625C290.653 144.679 290.701 144.725 290.756 144.729C290.81 144.733 290.865 144.695 290.879 144.642C290.892 144.589 290.861 144.528 290.809 144.51C290.775 144.498 290.736 144.503 290.7 144.509" fill="#E0E0E0"/>
<path d="M290.236 144.682C290.236 144.682 289.885 144.748 289.755 144.957C289.625 145.166 289.611 145.348 289.641 145.357C289.641 145.357 289.694 145.245 289.96 145.148C290.226 145.051 290.494 144.993 290.494 144.993L290.236 144.682Z" fill="#E0E0E0"/>
<path d="M292.883 143.51C292.418 143.101 291.953 142.692 291.489 142.283C291.328 142.141 291.165 141.998 291.04 141.823C290.779 141.459 290.701 140.987 290.439 140.623C290.412 140.728 290.386 140.834 290.359 140.939C290.284 140.669 290.172 140.41 290.026 140.172C289.997 140.293 289.969 140.415 289.94 140.536C289.856 140.161 289.695 139.803 289.471 139.491C289.357 139.628 289.297 139.808 289.305 139.986C289.182 139.658 289.035 139.34 288.865 139.033C288.535 139.874 288.678 140.823 288.901 141.698C288.945 141.869 288.992 142.041 289.081 142.194C289.179 142.362 289.324 142.498 289.472 142.624C290.108 143.168 290.856 143.603 291.352 144.277L293.406 144.174C293.313 144.13 292.94 143.561 292.883 143.51Z" fill="#E0E0E0"/>
<path d="M293.428 144.174L293.408 144.175C293.417 144.179 293.425 144.18 293.428 144.174Z" fill="#E0E0E0"/>
<path d="M295.807 142.34C295.841 142.21 295.873 142.073 295.962 141.973C296.036 141.89 296.14 141.841 296.233 141.781C296.393 141.678 296.528 141.536 296.622 141.371C296.518 141.448 296.388 141.489 296.258 141.485C296.598 141.237 296.923 140.969 297.231 140.681C297.517 140.414 297.796 140.118 297.921 139.747C297.812 139.901 297.663 140.027 297.492 140.109C297.89 139.544 298.117 138.86 298.135 138.169C297.993 138.561 297.82 138.942 297.617 139.306C297.555 139.417 297.48 139.536 297.358 139.575C297.605 138.991 297.737 138.358 297.745 137.724C297.676 137.936 297.599 138.146 297.513 138.352C297.449 138.506 297.379 138.659 297.297 138.805C297.08 139.188 296.775 139.514 296.474 139.836C296.242 140.084 296.01 140.332 295.759 140.56L296.952 139.986L296.348 140.735L297.018 140.421C297.018 140.421 295.927 141.349 295.754 141.811C295.581 142.273 295.736 142.594 295.736 142.594L295.807 142.34Z" fill="#E0E0E0"/>
<path d="M291.04 141.824C290.779 141.46 290.701 140.988 290.439 140.624C290.412 140.729 290.386 140.835 290.359 140.94C290.284 140.67 290.172 140.411 290.026 140.173C289.997 140.294 289.969 140.416 289.94 140.537C289.856 140.162 289.695 139.804 289.471 139.492C289.357 139.629 289.297 139.809 289.305 139.987C289.182 139.659 289.035 139.341 288.865 139.034C288.535 139.875 288.678 140.824 288.901 141.699C288.945 141.87 288.992 142.042 289.081 142.195L289.137 141.47C289.137 141.47 289.168 140.525 289.427 140.895C289.686 141.265 290.201 141.865 290.201 141.865L290.091 141.222C290.091 141.222 290.454 141.777 290.681 141.846C290.911 141.913 291.04 141.824 291.04 141.824Z" fill="#E0E0E0"/>
<path d="M293.874 141.945C293.874 141.945 293.874 141.944 293.874 141.941C293.883 141.938 293.876 141.947 293.876 141.949C293.874 141.957 293.869 141.97 293.863 141.985C293.851 142.016 293.832 142.062 293.806 142.12C293.754 142.237 293.676 142.404 293.576 142.609C293.475 142.814 293.352 143.056 293.204 143.32C293.13 143.451 293.05 143.589 292.956 143.725C292.908 143.793 292.86 143.862 292.792 143.923C292.742 143.953 292.701 143.955 292.658 143.966C292.615 143.974 292.572 143.983 292.529 143.989C291.84 144.094 291.211 144.147 290.762 144.213C290.651 144.225 290.57 144.29 290.504 144.349C290.439 144.41 290.39 144.471 290.352 144.521C290.276 144.622 290.24 144.684 290.236 144.681C290.234 144.68 290.241 144.664 290.257 144.634C290.273 144.604 290.298 144.561 290.334 144.508C290.37 144.455 290.417 144.392 290.482 144.326C290.546 144.264 290.635 144.189 290.755 144.173C291.207 144.096 291.834 144.037 292.521 143.932C292.564 143.926 292.606 143.917 292.647 143.91C292.687 143.901 292.732 143.892 292.756 143.879C292.815 143.827 292.864 143.758 292.911 143.693C293.003 143.56 293.084 143.424 293.159 143.294C293.309 143.033 293.435 142.793 293.54 142.591C293.641 142.394 293.724 142.232 293.786 142.111C293.812 142.059 293.834 142.016 293.853 141.98C293.86 141.968 293.865 141.957 293.871 141.946C293.874 141.943 293.873 141.937 293.876 141.942C293.875 141.944 293.874 141.945 293.874 141.945Z" fill="#E0E0E0"/>
<path d="M296.344 140.679C296.346 140.68 296.34 140.694 296.327 140.721C296.315 140.748 296.293 140.785 296.262 140.832C296.2 140.925 296.096 141.052 295.943 141.181C295.79 141.311 295.591 141.442 295.363 141.574C295.25 141.64 295.131 141.708 295.019 141.794C294.907 141.879 294.806 141.984 294.725 142.108C294.559 142.357 294.469 142.634 294.367 142.876C294.269 143.121 294.153 143.332 294.038 143.495C293.924 143.659 293.815 143.78 293.737 143.859C293.698 143.899 293.666 143.928 293.644 143.947C293.622 143.966 293.608 143.974 293.608 143.974C293.605 143.971 293.648 143.927 293.721 143.843C293.794 143.76 293.897 143.636 294.005 143.471C294.114 143.306 294.224 143.099 294.319 142.854C294.418 142.613 294.507 142.333 294.679 142.074C294.763 141.945 294.871 141.834 294.987 141.747C295.103 141.659 295.225 141.592 295.339 141.526C295.567 141.397 295.766 141.271 295.92 141.147C296.074 141.024 296.18 140.904 296.247 140.816C296.31 140.73 296.339 140.676 296.344 140.679Z" fill="#E0E0E0"/>
<path d="M293.597 145.081C293.603 145.095 293.491 145.145 293.347 145.123C293.203 145.102 293.11 145.022 293.12 145.01C293.129 144.996 293.225 145.048 293.355 145.066C293.485 145.087 293.592 145.065 293.597 145.081Z" fill="#E0E0E0"/>
<path d="M294.141 144.998C294.148 145.011 293.964 145.092 293.722 145.072C293.481 145.055 293.311 144.948 293.319 144.936C293.326 144.92 293.498 145 293.726 145.015C293.954 145.034 294.136 144.982 294.141 144.998Z" fill="#E0E0E0"/>
<path d="M295.63 145.208C295.414 145.193 295.219 145.18 295.047 145.168C294.898 145.158 294.805 145.154 294.804 145.162C294.803 145.17 294.894 145.188 295.043 145.208C295.192 145.228 295.398 145.25 295.626 145.265C295.854 145.28 296.061 145.285 296.212 145.283C296.362 145.282 296.455 145.275 296.455 145.268C296.455 145.26 296.363 145.252 296.213 145.243C296.041 145.233 295.845 145.221 295.63 145.208Z" fill="#E0E0E0"/>
</svg>
