<svg width="750" height="500" viewBox="0 0 750 500" fill="none" xmlns="http://www.w3.org/2000/svg">
<path d="M717.532 241.478C728.362 230.24 732.349 212.877 727.508 198.039C722.667 183.202 709.206 171.532 693.832 168.844C678.458 166.156 661.836 172.565 652.247 184.879L636.894 216.433C658.988 232.446 681.081 248.459 703.175 264.471C710.566 269.828 720.932 275.203 728.044 269.481C731.002 267.1 732.473 263.213 732.578 259.417C732.813 250.887 725.973 242.731 717.532 241.478Z" fill="#EBEBEB"/>
<path d="M368.542 230.583C379.974 227.118 385.395 231.486 385.395 231.486C385.395 231.486 385.734 225.719 391.023 223.128C394.737 221.309 399.55 220.421 402.718 223.081C400.01 217.853 401.144 210.908 405.375 206.814C409.606 202.72 416.584 201.814 421.72 204.693C414.315 186.099 424.361 162.455 442.886 154.878C461.41 147.301 485.147 157.127 492.896 175.58C493.617 166.696 503.737 159.909 512.229 162.613C508.874 156.183 514.799 147.132 522.034 147.635C518.513 135.29 523.161 121.026 533.279 113.125C543.397 105.224 558.362 104.172 569.485 110.579C580.609 116.987 587.207 130.46 585.448 143.176C591.547 138.806 601.051 140.315 605.496 146.361C609.192 128.892 628.255 116.708 645.916 119.343C663.577 121.977 677.892 137.986 680.007 155.716C682.122 173.446 672.786 191.655 657.968 201.617L362.022 255.5C354.602 248.219 358.594 233.599 368.542 230.583Z" fill="#EBEBEB"/>
<g opacity="0.72">
<path d="M449.286 202.682C448.289 200.059 451.671 194.578 455.288 190.135C457.06 187.959 459.59 186.523 462.215 185.531C471.761 181.924 482.227 186.714 490.231 193.044C489.844 188.948 493.983 185.077 498.043 185.737C495.233 182.779 489.652 185.117 488.259 188.952C482.99 185.718 476.959 181.965 470.805 181.382C464.65 180.799 459.774 182.258 455.419 186.645C451.065 191.034 448.182 196.424 449.286 202.682Z" fill="white"/>
</g>
<g opacity="0.72">
<path d="M541.419 146.197C537.145 148.951 534.52 154.082 534.786 159.159C531.511 158.299 527.885 158.878 525.041 160.716C522.197 162.554 520.179 165.622 519.618 168.961C520.975 165.756 524.213 162.513 527.514 161.408C532.277 159.814 535.971 161.23 538.063 163.708C536.963 158.78 538.52 153.339 542.061 149.739C545.602 146.139 551.017 144.493 555.962 145.513C551.45 143.172 545.693 143.443 541.419 146.197Z" fill="white"/>
</g>
</svg>
