<svg width="750" height="500" viewBox="0 0 750 500" fill="none" xmlns="http://www.w3.org/2000/svg">
<path d="M522.709 257.936L517.374 248.173L501.749 245.461L481.55 234.07L470.879 220.51L451.824 201.526L431.625 195.017L419.43 205.323L409.521 227.019L394.658 231.901L383.606 244.919L359.215 248.174L346.257 240.038L338.635 242.208L311.958 234.614L294.046 223.766L282.232 207.223C282.232 207.223 277.659 200.985 271.561 196.646L259.747 184.713L233.832 169.526L225.829 180.916L218.969 184.17L181.239 212.917L148.464 219.968H126.74C126.74 219.968 95.009 268.131 93.866 268.673H544.432L522.709 257.936Z" fill="#455A64"/>
<path opacity="0.3" d="M522.709 257.936L517.374 248.173L501.749 245.461L481.55 234.07L470.879 220.51L451.824 201.526L431.625 195.017L419.43 205.323L409.521 227.019L394.658 231.901L383.606 244.919L359.215 248.174L346.257 240.038L338.635 242.208L311.958 234.614L294.046 223.766L282.232 207.223C282.232 207.223 277.659 200.985 271.561 196.646L259.747 184.713L233.832 169.526L225.829 180.916L218.969 184.17L181.239 212.917L148.464 219.968H126.74C126.74 219.968 95.009 268.131 93.866 268.673H544.432L522.709 257.936Z" fill="#FF725E"/>
<path d="M43.688 266.196C46.143 264.354 82.361 187.35 82.361 187.35L107.529 178.415L146.816 152.019L183.034 164.296L192.242 177.801L209.43 180.87L231.529 209.107L300.895 255.76L346.934 266.196L381.124 249.619L433.302 220.154L479.528 209.108C479.528 209.108 515.132 177.801 516.973 177.187C518.815 176.573 570.379 187.35 570.379 187.35L615.805 215.246L680.26 229.365L736.3 274.817L350.366 277.909L40.62 275.405L43.688 266.196Z" fill="#455A64"/>
<path opacity="0.1" d="M107.529 178.414L111.252 193.278L121.155 201.536L126.74 219.968L144.272 229.011L152.143 256.44L199.615 276.689L40.618 275.404L43.446 266.921L59.875 234.523L82.361 187.35L107.529 178.414Z" fill="black"/>
<path opacity="0.1" d="M346.933 266.196L398.538 247.379L434.915 222.755L431.168 230.249C431.168 230.249 481.025 208.749 479.527 209.107C478.029 209.465 433.301 220.153 433.301 220.153L381.123 249.618L346.933 266.196Z" fill="#FF725E"/>
<path opacity="0.1" d="M479.527 209.107L496.284 202.404L514.919 178.667L493.434 196.955L479.527 209.107Z" fill="#FF725E"/>
<path d="M218.968 184.17C218.968 184.17 219.111 184.086 219.401 183.941C219.706 183.791 220.137 183.579 220.7 183.301C221.866 182.738 223.571 181.914 225.792 180.841L225.76 180.868C227.746 178.019 230.439 174.155 233.72 169.447L233.791 169.345L233.899 169.408C240.892 173.487 249.663 178.602 259.846 184.541L259.868 184.554L259.886 184.573C263.559 188.273 267.534 192.278 271.716 196.49L271.687 196.466C273.885 198.041 275.973 199.884 277.954 201.921C279.923 203.962 281.853 206.169 283.522 208.623C286.967 213.439 290.553 218.454 294.247 223.62L294.174 223.552C299.897 227.015 305.92 230.659 312.09 234.392L312.027 234.365C318.916 236.325 326.137 238.379 333.488 240.471C335.235 240.968 336.975 241.464 338.705 241.956H338.563C341.124 241.227 343.665 240.504 346.185 239.787L346.296 239.755L346.394 239.816C350.787 242.576 355.11 245.292 359.349 247.955L359.18 247.918C367.613 246.797 375.767 245.714 383.572 244.676L383.419 244.759C387.245 240.26 390.937 235.919 394.482 231.751L394.524 231.702L394.585 231.682C399.793 229.978 404.741 228.359 409.453 226.817L409.327 226.93C412.998 218.928 416.326 211.67 419.271 205.251L419.287 205.215L419.316 205.19C424.001 201.251 428.04 197.854 431.536 194.914L431.593 194.866L431.663 194.889C438.141 197.005 443.179 198.651 446.615 199.773C448.313 200.336 449.611 200.766 450.503 201.062C450.93 201.208 451.256 201.319 451.491 201.399C451.712 201.476 451.82 201.524 451.82 201.524C451.82 201.524 451.704 201.499 451.479 201.433C451.241 201.361 450.911 201.261 450.48 201.13C449.584 200.85 448.278 200.441 446.571 199.907C443.126 198.812 438.075 197.207 431.58 195.143L431.707 195.118C428.225 198.075 424.202 201.491 419.537 205.453L419.582 205.393C416.658 211.822 413.353 219.091 409.709 227.105L409.671 227.189L409.583 227.218C404.874 228.77 399.929 230.4 394.726 232.116L394.829 232.047C391.291 236.221 387.607 240.568 383.788 245.074L383.728 245.145L383.635 245.157C375.831 246.202 367.678 247.294 359.246 248.424L359.155 248.436L359.077 248.387C354.836 245.726 350.512 243.012 346.117 240.254L346.326 240.284C343.806 241.002 341.265 241.725 338.704 242.454L338.633 242.474L338.562 242.454C336.833 241.962 335.093 241.466 333.345 240.969C325.994 238.876 318.775 236.819 311.885 234.858L311.852 234.848L311.822 234.83C305.654 231.091 299.635 227.442 293.915 223.975L293.871 223.948L293.841 223.906C290.154 218.736 286.575 213.717 283.138 208.897C281.48 206.449 279.579 204.271 277.625 202.236C275.663 200.211 273.598 198.381 271.431 196.821L271.415 196.809L271.402 196.796C267.232 192.573 263.267 188.558 259.604 184.848L259.644 184.879C249.486 178.898 240.736 173.746 233.76 169.638L233.939 169.599C230.623 174.281 227.9 178.125 225.893 180.958L225.88 180.976L225.861 180.985C223.624 182.027 221.908 182.826 220.734 183.373C220.162 183.634 219.726 183.834 219.417 183.975C219.123 184.112 218.968 184.17 218.968 184.17Z" fill="#FF725E"/>
<path opacity="0.3" d="M294.046 223.765L312.218 243.943L310.734 237.649L344.57 255.643L326.657 239.704L338.635 242.206L311.958 234.613L294.046 223.765Z" fill="#FF725E"/>
<path opacity="0.3" d="M383.605 244.918C384.117 244.314 395.948 233.315 395.948 233.315L394.496 237.649L399.126 232.226L406.479 229.866L404.754 232.226L404.663 234.314L405.843 231.772L409.521 227.019L394.658 231.901L383.605 244.918Z" fill="#FF725E"/>
<path opacity="0.3" d="M346.257 240.037L346.933 243.154L350.341 246.449L348.299 242.66L349.901 243.243L352.126 246.065L354.679 247.713L352.592 245.461L352.126 244.143L359.215 248.173L346.496 240.037" fill="#FF725E"/>
<path opacity="0.3" d="M351.056 247.756L352.736 249.52L355.722 250.438L351.056 247.756Z" fill="#FF725E"/>
<path opacity="0.3" fill-rule="evenodd" clip-rule="evenodd" d="M312.907 246.343C313.333 246.343 319.149 251.027 319.149 251.027L326.108 252.943L312.907 246.343Z" fill="#FF725E"/>
<path opacity="0.3" fill-rule="evenodd" clip-rule="evenodd" d="M233.831 169.525L241.798 187.721L247.835 193.836L244.816 186.722L245.9 182.702L255.216 187.722L260.128 199.935L268.84 206.372L261.263 194.672L260.467 191.635C260.467 191.635 269.953 197.733 269.953 198.241C269.953 198.749 277.067 207.557 277.067 207.557L270.878 195.957L259.745 184.712L233.831 169.525Z" fill="#FF725E"/>
<path opacity="0.3" fill-rule="evenodd" clip-rule="evenodd" d="M410.617 224.618C410.731 224.369 419.145 209.107 419.145 209.107L417.439 215.474L417.78 220.25C417.78 220.25 418.462 215.59 418.576 214.963C418.69 214.337 422.329 205.467 422.329 205.467L425.74 202.397L423.807 209.107L428.242 200.351L431.624 195.018L419.429 205.324L410.617 224.618Z" fill="#FF725E"/>
<path opacity="0.3" fill-rule="evenodd" clip-rule="evenodd" d="M423.335 210.84C423.134 210.92 422.049 213.855 422.049 213.855L422.29 215.825L423.335 210.84Z" fill="#FF725E"/>
<path opacity="0.3" fill-rule="evenodd" clip-rule="evenodd" d="M249.586 195.957L253.869 203.795L261.227 211.009L249.586 195.957Z" fill="#FF725E"/>
<path opacity="0.1" fill-rule="evenodd" clip-rule="evenodd" d="M427.216 234.523C426.616 234.723 413.246 242.925 413.246 242.925L411.612 247.756L427.216 234.523Z" fill="#FF725E"/>
<path d="M231.528 209.107C231.528 209.107 231.644 209.17 231.862 209.309C232.09 209.458 232.411 209.666 232.829 209.938C233.69 210.508 234.945 211.338 236.577 212.417C239.862 214.609 244.654 217.806 250.742 221.868C262.926 230.035 280.281 241.669 301.021 255.571L300.944 255.538C314.968 258.708 330.52 262.223 346.989 265.946L346.821 265.965C356.089 261.47 365.697 256.809 375.531 252.039C380.897 249.614 385.875 246.602 390.868 243.816C395.849 241.005 400.751 238.238 405.56 235.524C415.179 230.098 424.426 224.883 433.182 219.945L433.211 219.928L433.244 219.92C450.57 215.8 466.183 212.087 479.481 208.924L479.404 208.963C490.989 199.134 500.365 191.178 506.857 185.67C510.098 182.935 512.617 180.81 514.338 179.358C515.189 178.648 515.841 178.103 516.292 177.727C516.734 177.362 516.969 177.185 516.969 177.185C516.969 177.185 516.757 177.389 516.327 177.768C515.884 178.154 515.243 178.711 514.407 179.439C512.7 180.909 510.203 183.059 506.99 185.827C500.523 191.366 491.184 199.364 479.645 209.247L479.611 209.276L479.567 209.286C466.275 212.477 450.67 216.225 433.354 220.382L433.415 220.358C424.662 225.307 415.418 230.533 405.802 235.97C400.993 238.687 396.091 241.457 391.11 244.272C386.116 247.06 381.138 250.073 375.769 252.5C365.929 257.269 356.315 261.929 347.042 266.423L346.961 266.462L346.874 266.442C330.409 262.7 314.862 259.166 300.841 255.979L300.799 255.97L300.764 255.946C280.067 241.979 262.748 230.292 250.589 222.087C244.532 217.981 239.763 214.748 236.495 212.532C234.88 211.427 233.637 210.578 232.785 209.995C232.375 209.71 232.062 209.492 231.838 209.337C231.63 209.191 231.528 209.107 231.528 209.107Z" fill="#FF725E"/>
<path opacity="0.1" d="M299.392 255.961L259.034 235.972L267.342 247.756L278.378 251.275L266.265 249.572L250.387 235.05L247.834 233.251L247.835 239.704L232.647 209.859L300.894 255.76L299.392 255.961Z" fill="#FF725E"/>
<path opacity="0.1" d="M146.816 152.018C146.816 152.018 171.874 186.226 172.001 185.843C172.128 185.461 166.009 168.932 166.009 168.932L175.698 171.31L178.375 181.637L205.275 196.935L191.634 183.676L192.526 179.724L206.04 188.465L207.825 184.441C207.825 184.441 230.504 207.798 230.173 207.375C229.842 206.952 209.43 180.869 209.43 180.869L192.242 177.8L183.034 164.295C183.034 164.295 146.236 151.977 146.816 152.018Z" fill="#FF725E"/>
<path opacity="0.1" d="M196.916 203.795C198.259 204.833 206.665 211.009 206.665 211.009L220.551 235.969L205.381 217.884L202.384 217.442L187.338 196.821L194.446 203.795H196.916Z" fill="#FF725E"/>
<path opacity="0.1" d="M465.892 222.02C464.342 222.714 454.723 226.747 454.723 226.747L435.373 247.756L454.359 233.731L457.376 234.004L476.837 217.485L468.292 222.598L465.892 222.02Z" fill="#FF725E"/>
<path opacity="0.1" d="M187.748 226.363C189.092 227.401 197.497 233.577 197.497 233.577L199.52 244.394L195.906 237.276L193.214 237.737L183.16 219.098L187.91 223.67L187.748 226.363Z" fill="#FF725E"/>
<path opacity="0.1" d="M256.379 250.622C257.874 251.427 267.174 256.149 267.174 256.149L270.934 266.491L266.207 260.058L263.626 260.952L250.667 244.203L256.099 247.939L256.379 250.622Z" fill="#FF725E"/>
<path opacity="0.1" d="M440.574 275.428L463.891 265.098C463.891 265.098 464.327 256.639 464.913 256.624C465.499 256.609 474.51 258.43 474.51 258.43V244.599L494.267 221.198L505.87 217.343C505.87 217.343 498.03 223.179 497.089 223.614C496.148 224.049 493.012 235.575 493.012 235.575L512.769 223.614L519.982 210.439L531.585 204.827H521.236L534.703 190.494L520.738 185.447L551.082 191.604L600.266 221.199L653.505 230.768L705.742 273.135L440.574 275.428Z" fill="black"/>
<path d="M517.237 227.467C516.661 227.653 511.336 234.736 511.336 234.736C511.336 234.736 510.041 241.183 510.473 240.895C510.905 240.607 518.965 230.958 518.965 230.958L517.237 227.467Z" fill="#455A64"/>
<path opacity="0.1" d="M369.271 277.107L400.067 271.276V275.283L427.216 255.348L416.181 271.106L427.216 274.496L451.823 277.277L369.271 277.107Z" fill="black"/>
<g opacity="0.2">
<path d="M467.242 308.367C467.363 308.377 467.388 308.379 467.306 308.371C467.29 308.37 467.267 308.368 467.242 308.367Z" fill="#263238"/>
<path d="M285.185 308.422C285.523 308.508 285.875 308.597 286.238 308.69L286.148 308.236C285.842 308.295 285.522 308.357 285.185 308.422Z" fill="#263238"/>
<path d="M238.791 304.72C239.129 304.806 239.481 304.895 239.844 304.987L239.754 304.532C239.447 304.592 239.128 304.654 238.791 304.72Z" fill="#263238"/>
<path d="M184.427 304.709L184.572 304.746C184.568 304.725 184.564 304.704 184.56 304.683L184.427 304.709Z" fill="#263238"/>
<path d="M192.731 303.925L193.485 304.119L193.42 303.794L192.731 303.925Z" fill="#263238"/>
<path d="M318.954 308.187L318.865 308.458C319.024 308.498 319.189 308.54 319.352 308.582L319.262 308.127C319.159 308.147 319.061 308.166 318.954 308.187Z" fill="#263238"/>
<path d="M197.628 304.462L197.605 304.348L196.916 304.479L198.241 304.82L198.157 305.073L198.627 305.016L198.58 304.757L197.628 304.462Z" fill="#263238"/>
<path d="M135.982 279.273L17.129 274.816V296.736C17.129 296.736 79.58 297.582 145.324 298.482C145.632 300.071 146.057 302.265 146.567 304.899L146.574 304.937L146.619 304.951C146.965 305.059 147.323 305.17 147.683 305.283C147.379 305.319 147.076 305.356 146.762 305.394L146.683 305.404L146.693 305.47C147.088 308.041 147.531 310.929 148.002 313.993L148.063 314.393L148.189 314.009C148.309 313.643 148.43 313.273 148.552 312.9C149.12 311.161 149.671 309.473 150.187 307.891L150.209 307.822L150.126 307.797C149.74 307.682 149.364 307.569 149.002 307.461C149.408 307.39 149.809 307.32 150.178 307.256L150.229 307.247L150.243 307.206C150.88 305.279 151.469 303.5 151.985 301.94L152.201 303.027L153.287 303.363L152.306 303.483L153.357 310.273L154.951 305.399L153.817 305.059L154.999 304.854L156.581 300.116L155.158 299.75L156.638 299.468L156.917 298.642C157.682 298.652 158.446 298.663 159.211 298.673L160.245 303.128L162.05 303.606L160.42 303.776L162.167 313.443L164.816 306.504L162.931 306.02L164.896 305.728L166.837 300.749L167.379 303.085L168.465 303.373L167.484 303.475L168.535 309.29L170.129 305.116L168.995 304.824L170.177 304.648L171.759 300.59L170.336 300.277L171.816 300.036L172.284 298.851C172.741 298.857 173.199 298.864 173.656 298.87C173.951 300.176 174.334 301.87 174.783 303.855L174.79 303.888L174.835 303.9C175.181 303.992 175.539 304.088 175.899 304.184C175.595 304.215 175.292 304.247 174.977 304.279L174.898 304.287L174.908 304.343C175.303 306.545 175.746 309.018 176.217 311.642L176.278 311.985L176.404 311.656C176.524 311.342 176.645 311.025 176.767 310.707C177.335 309.217 177.886 307.772 178.402 306.417L178.424 306.358L178.341 306.337C177.955 306.238 177.579 306.142 177.217 306.049C177.624 305.988 178.024 305.929 178.393 305.873L178.444 305.865L178.458 305.83C179.19 303.934 179.859 302.204 180.427 300.734L180.445 300.686L180.377 300.671C179.833 300.553 179.316 300.44 178.819 300.332C179.399 300.235 179.947 300.144 180.444 300.061L180.475 300.056L180.483 300.034C180.559 299.837 180.63 299.65 180.7 299.469L181.47 302.786L182.556 303.074L181.575 303.176L182.626 308.991L184.22 304.817L183.086 304.525L184.268 304.349L185.081 302.263C185.145 302.546 185.21 302.835 185.278 303.134L185.284 303.163L185.323 303.173C185.623 303.253 185.934 303.336 186.246 303.419C185.982 303.446 185.719 303.473 185.447 303.501L185.378 303.508L185.387 303.557C185.729 305.467 186.114 307.613 186.522 309.89L186.575 310.187L186.684 309.901C186.788 309.629 186.893 309.354 186.999 309.077C187.491 307.785 187.969 306.53 188.417 305.355L188.436 305.304L188.364 305.286C188.029 305.2 187.703 305.117 187.389 305.036C187.665 304.995 187.933 304.955 188.192 304.916L188.237 305.166L188.341 304.894C188.363 304.891 188.387 304.887 188.409 304.884L188.453 304.877L188.465 304.847C189.018 303.415 189.528 302.094 189.976 300.934L190.163 301.741L191.105 301.991L190.254 302.08L191.166 307.125L192.548 303.504L191.564 303.251L192.59 303.099L193.676 300.312L194.159 302.395L195.17 302.663L194.257 302.759L195.236 308.174L196.72 304.287L195.664 304.016L196.765 303.852L197.891 300.963L198.576 304.755L199.191 304.945L198.623 305.014L199.292 308.716L201.59 302.696L199.954 302.276L201.659 302.023L202.733 299.269C203.059 299.273 203.384 299.278 203.71 299.282L203.814 299.73L204.756 299.98L203.905 300.069L204.817 305.114L206.2 301.493L205.216 301.24L206.242 301.088L206.928 299.327C207.952 299.341 208.978 299.355 210.005 299.369C210.081 299.703 210.157 300.043 210.238 300.399L210.245 300.428L210.284 300.438C210.584 300.518 210.895 300.601 211.207 300.684C210.944 300.711 210.68 300.738 210.408 300.766L210.339 300.773L210.348 300.822C210.69 302.732 211.075 304.878 211.483 307.154L211.536 307.451L211.645 307.165C211.749 306.893 211.854 306.618 211.96 306.341C212.452 305.049 212.93 303.794 213.378 302.619L213.397 302.568L213.325 302.55C212.99 302.464 212.664 302.381 212.35 302.3C212.703 302.247 213.05 302.195 213.37 302.147L213.414 302.14L213.426 302.109C213.792 301.161 214.139 300.264 214.462 299.427C214.986 299.434 215.51 299.441 216.034 299.449L216.039 299.469L216.981 299.719L216.13 299.808L217.042 304.853L218.425 301.232L217.441 300.979L218.467 300.827L218.988 299.491C219.841 299.503 220.694 299.515 221.548 299.526L221.911 301.536L222.672 299.542C224.014 299.561 225.357 299.579 226.702 299.598L227.912 306.294L229.812 301.318L228.46 300.97L229.869 300.761L230.303 299.648C231.712 299.668 233.121 299.687 234.532 299.707C234.748 300.663 235.002 301.786 235.286 303.043L235.292 303.072L235.331 303.082C235.631 303.162 235.942 303.245 236.254 303.328C235.99 303.355 235.727 303.382 235.455 303.41L235.386 303.417L235.395 303.466C235.737 305.376 236.122 307.522 236.53 309.798L236.583 310.095L236.692 309.809C236.796 309.537 236.901 309.262 237.007 308.985C237.5 307.693 237.978 306.438 238.425 305.263L238.445 305.212L238.373 305.194C238.038 305.108 237.712 305.025 237.398 304.944C237.751 304.891 238.098 304.839 238.419 304.792L238.463 304.785L238.475 304.755C239.028 303.323 239.539 302.002 239.986 300.842L240.174 301.65L241.116 301.9L240.265 301.989L241.177 307.034L242.56 303.413L241.576 303.16L242.602 303.008L243.839 299.836C245.387 299.857 246.935 299.879 248.482 299.9L249.203 300.091L247.789 300.239L249.305 308.625L251.603 302.605L249.967 302.185L251.672 301.932L252.443 299.955C252.942 299.962 253.441 299.969 253.941 299.976L253.918 299.978L254.83 305.023L256.213 301.402L255.229 301.149L256.255 300.997L256.638 300.014C257.824 300.03 259.01 300.047 260.195 300.063C260.214 300.146 260.232 300.225 260.251 300.309L260.258 300.338L260.297 300.348C260.597 300.428 260.908 300.511 261.22 300.594C260.956 300.621 260.693 300.648 260.421 300.676L260.352 300.683L260.361 300.732C260.703 302.642 261.088 304.788 261.496 307.064L261.549 307.361L261.658 307.075C261.762 306.803 261.867 306.528 261.973 306.251C262.465 304.959 262.943 303.704 263.391 302.529L263.411 302.478L263.339 302.46C263.004 302.374 262.678 302.291 262.364 302.21C262.717 302.157 263.064 302.106 263.385 302.058L263.429 302.051L263.441 302.021C263.696 301.361 263.941 300.726 264.176 300.117C264.858 300.126 265.54 300.136 266.222 300.145L267.057 304.763L268.44 301.142L267.456 300.889L268.482 300.737L268.699 300.18C269.701 300.194 270.703 300.208 271.705 300.222L271.926 301.446L272.39 300.231C273.881 300.252 275.371 300.272 276.859 300.293L277.927 306.203L279.827 301.227L278.475 300.88L279.884 300.671L280.014 300.338C280.131 300.34 280.248 300.341 280.364 300.343C280.422 300.608 280.49 300.919 280.57 301.285C280.839 302.475 281.222 304.17 281.684 306.215L281.69 306.244L281.729 306.254C282.029 306.334 282.34 306.417 282.652 306.5C282.388 306.527 282.125 306.554 281.853 306.582L281.784 306.589L281.793 306.638C282.135 308.548 282.52 310.694 282.928 312.97L282.981 313.267L283.09 312.981C283.194 312.709 283.299 312.434 283.405 312.157C283.897 310.865 284.375 309.61 284.823 308.435L284.843 308.384L284.771 308.366C284.436 308.28 284.11 308.197 283.796 308.116C284.149 308.063 284.496 308.011 284.817 307.964L284.861 307.957L284.873 307.927C285.426 306.495 285.937 305.174 286.384 304.014L286.571 304.822L287.513 305.072L286.662 305.161L287.574 310.206L288.957 306.585L287.973 306.332L288.999 306.18L290.371 302.66L289.137 302.388L290.421 302.179L291.087 300.493C291.891 300.504 292.694 300.515 293.496 300.527L294.035 302.848L295.601 303.263L294.187 303.411L295.702 311.797L298 305.777L296.364 305.357L298.069 305.104L299.753 300.785L300.223 302.812L301.165 303.062L300.314 303.151L301.226 308.196L302.609 304.575L301.625 304.322L302.651 304.17L304.013 300.675C304.682 300.684 305.351 300.694 306.019 300.703C306.206 301.529 306.417 302.462 306.647 303.481L306.654 303.51L306.693 303.52C306.993 303.6 307.304 303.683 307.616 303.766C307.353 303.793 307.089 303.82 306.817 303.848L306.748 303.855L306.757 303.904C307.099 305.814 307.484 307.96 307.892 310.236L307.945 310.533L308.054 310.247C308.158 309.975 308.263 309.7 308.368 309.423C308.861 308.131 309.338 306.876 309.786 305.701L309.806 305.65L309.734 305.631C309.399 305.545 309.073 305.462 308.759 305.381C309.112 305.328 309.459 305.276 309.78 305.228L309.824 305.221L309.836 305.191C310.47 303.549 311.049 302.051 311.541 300.777C311.707 300.779 311.873 300.782 312.039 300.784L312.449 302.551L313.391 302.801L312.54 302.89L313.452 307.935L314.556 305.044C314.635 305.392 314.715 305.749 314.8 306.121L314.806 306.15L314.845 306.16C315.145 306.24 315.456 306.323 315.768 306.406C315.505 306.433 315.241 306.46 314.969 306.488L314.9 306.495L314.909 306.544C315.251 308.454 315.636 310.6 316.044 312.876L316.097 313.173L316.206 312.887C316.31 312.615 316.415 312.34 316.521 312.063C317.014 310.771 317.491 309.516 317.939 308.341L317.959 308.29L317.887 308.271C317.552 308.185 317.226 308.102 316.912 308.021C317.265 307.968 317.612 307.916 317.933 307.869L317.977 307.862L317.989 307.832C318.542 306.4 319.053 305.079 319.5 303.919L319.687 304.727L320.629 304.977L319.778 305.066L320.69 310.111L322.073 306.49L321.089 306.237L322.115 306.085L323.217 303.257L323.957 307.354L324.238 307.441L323.978 307.473L324.321 309.374L326.221 304.398L324.869 304.05L326.278 303.841L326.982 302.035L327.149 302.752L328.715 303.167L327.301 303.315L328.817 311.701L331.115 305.681L329.479 305.261L331.184 305.008L332.717 301.074C332.797 301.075 332.877 301.076 332.958 301.077L333.338 302.715L334.28 302.965L333.429 303.054L334.341 308.099L335.724 304.478L334.74 304.225L335.766 304.073L336.912 301.134C337.697 301.145 338.48 301.156 339.261 301.167C339.415 301.848 339.582 302.589 339.762 303.385L339.768 303.414L339.807 303.424C340.107 303.504 340.418 303.587 340.73 303.67C340.466 303.697 340.203 303.724 339.931 303.752L339.862 303.759L339.871 303.808C340.213 305.718 340.598 307.864 341.006 310.14L341.059 310.437L341.168 310.151C341.272 309.879 341.377 309.604 341.483 309.327C341.975 308.035 342.453 306.78 342.901 305.605L342.921 305.554L342.849 305.536C342.514 305.45 342.188 305.367 341.874 305.286C342.227 305.233 342.574 305.181 342.894 305.133L342.938 305.126L342.95 305.096C343.494 303.687 343.997 302.384 344.44 301.238C344.722 301.242 345.002 301.246 345.283 301.25L345.563 302.455L346.505 302.705L345.654 302.794L346.566 307.839L347.948 304.218L346.964 303.965L347.99 303.813L348.968 301.303C349.599 301.312 350.228 301.321 350.857 301.33L351.434 304.522L352.504 301.719L351.742 301.523L352.536 301.405L352.556 301.354C353.846 301.372 355.131 301.391 356.408 301.409L356.573 302.118L357.45 302.35L356.658 302.433L357.507 307.131L358.794 303.759L357.878 303.523L358.833 303.381L359.584 301.453C360.726 301.057 466.245 296.644 468.647 296.768C461.821 296.299 135.982 279.273 135.982 279.273ZM150.603 300.785C150.99 300.71 151.361 300.638 151.713 300.569L151.817 301.093C151.398 300.987 150.992 300.884 150.603 300.785Z" fill="#263238"/>
<path d="M313.85 309.478L314.363 309.632C314.348 309.554 314.332 309.473 314.317 309.397L313.85 309.478Z" fill="#263238"/>
<path d="M323.418 307.193L322.251 307.415L323.074 307.626L323.068 307.589L323.977 307.478L323.956 307.359L323.418 307.193Z" fill="#263238"/>
</g>
</svg>
