<svg width="750" height="500" viewBox="0 0 750 500" fill="none" xmlns="http://www.w3.org/2000/svg">
<path d="M736.79 274.588H17.6211V491.136H736.79V274.588Z" fill="#FF725E"/>
<path opacity="0.5" d="M736.79 274.588H17.6211V491.136H736.79V274.588Z" fill="white"/>
<g opacity="0.3">
<path d="M623.841 410.597C622.326 399.01 609.759 392.64 598.594 389.188C517.605 364.151 430.165 388.029 345.57 382.576C386.533 375.593 427.496 368.61 468.46 361.627C474.394 360.615 482.22 356.129 479.348 350.839C477.717 347.835 473.624 347.477 470.206 347.495C447.284 347.614 424.362 347.733 401.44 347.852C390.121 347.911 378.801 347.97 367.482 348.028C361.822 348.057 356.163 348.087 350.503 348.116C345.378 348.143 338.246 347.041 333.551 348.435C354.019 355.463 377.149 357.366 398.637 356.099C371.205 358.655 343.591 361.366 316.005 360.665C288.714 359.971 261.65 355.615 235.058 349.624C215.289 345.17 195.74 339.805 176.248 334.279C128.384 320.71 80.3491 307.414 33.6861 290.134C28.5841 288.219 23.2641 286.326 18.0451 284.188V391.494C138.181 430.258 292.805 465.866 365.381 465.865C418.258 465.864 471.135 462.517 523.59 455.848C549.602 452.541 575.798 448.34 600.036 438.336C612.181 433.322 625.545 423.627 623.841 410.597Z" fill="#FF725E"/>
</g>
<path d="M260.875 311.7C334.988 313.527 409.027 313.984 482.83 311.475C408.866 311.989 334.854 312.064 260.875 311.7Z" fill="#FF725E"/>
<path d="M315.587 305.522C355.86 307.349 396.092 307.806 436.196 305.297C396.004 305.811 355.787 305.886 315.587 305.522Z" fill="#FF725E"/>
<path d="M311.437 319.319C351.71 321.146 391.942 321.603 432.046 319.094C391.854 319.608 351.637 319.683 311.437 319.319Z" fill="#FF725E"/>
<path d="M316.674 331.068C340.551 332.151 364.405 332.422 388.182 330.934C364.353 331.239 340.508 331.283 316.674 331.068Z" fill="#FF725E"/>
<path d="M495.254 439.898C495.254 439.898 494.691 439.524 495.93 437.901C496.323 437.386 496.399 436.947 496.319 436.587C496.151 435.832 495.267 435.435 494.567 435.764C491.881 437.026 488.792 436.926 486.386 436.516C485.092 436.295 484.911 434.519 486.127 434.025C488.688 432.985 491.702 431.493 492.327 430.039C492.567 429.48 492.618 429.063 492.549 428.752C492.423 428.188 492.602 427.58 493.135 427.357C493.656 427.139 494.115 426.837 494.354 426.419C494.88 425.502 493.674 424.474 492.815 423.893C492.438 423.638 492.202 423.201 492.255 422.749C492.296 422.397 492.27 421.911 492.046 421.303C491.745 420.488 487.535 419.453 484.164 418.747C483.165 418.538 482.826 417.328 483.517 416.577C483.839 416.226 484.08 415.867 484.248 415.574C484.471 415.185 484.87 414.945 485.319 414.93C486.926 414.875 490.605 414.558 491.652 412.818C493.003 410.572 490.751 409.948 486.923 408.076C484.609 406.944 480.612 403.946 477.809 401.749C478.307 401.737 478.805 401.696 479.297 401.617C478.434 400.957 477.625 400.323 476.93 399.771C476.811 399.677 476.717 399.568 476.642 399.452C476.813 399.132 477.118 398.879 477.534 398.8C479.026 398.519 480.684 398.085 481.407 397.469C481.721 397.202 481.905 396.98 482.001 396.797C482.227 396.366 482.624 396.055 483.111 396.047C487.433 395.979 485.685 393.226 485.685 393.226C480.047 391.476 476.166 388.336 474.209 386.442C473.516 385.771 473.778 384.61 474.689 384.292C475.975 383.843 477.616 383.126 478.705 382.12C479.313 381.558 479.404 381.12 479.234 380.782C478.906 380.13 479.088 379.333 479.772 379.079C481.325 378.502 482.528 377.519 480.168 376.005C478.558 374.972 476.47 373.762 474.575 372.701C473.495 372.096 473.803 370.463 475.028 370.283C475.551 370.206 475.89 370.14 475.89 370.14C478.265 369.075 478.254 367.758 477.655 366.711C477.701 366.312 477.602 365.92 477.422 365.556C477.352 365.73 477.255 365.876 477.145 366.008C476.561 365.342 475.89 364.899 475.89 364.899C472.959 363.242 469.298 360.247 466.509 357.803C465.584 356.992 466.198 355.515 467.428 355.53C467.761 355.534 468.072 355.5 468.346 355.415C470.372 354.791 466.094 352.295 466.094 352.295C466.094 352.295 468.233 352.919 469.134 352.295C470.035 351.671 466.77 348.801 466.77 348.801C462.502 346.028 457.36 339.293 454.48 335.291C453.962 334.571 452.899 334.571 452.381 335.291C449.501 339.293 444.359 346.028 440.091 348.801C440.091 348.801 439.273 349.52 438.569 350.316L437.603 350.446C437.538 350.675 437.563 350.861 437.726 350.974C437.795 351.022 437.873 351.06 437.955 351.094C437.597 351.619 437.423 352.085 437.726 352.295C437.954 352.453 438.263 352.531 438.595 352.559C437.975 353.161 437.654 353.769 438.421 354.059C437.9 354.624 437.709 355.167 438.514 355.415C438.788 355.499 439.099 355.534 439.432 355.53C440.662 355.515 441.276 356.992 440.351 357.803C437.562 360.247 433.901 363.242 430.971 364.899C430.971 364.899 426.242 368.019 430.971 370.14C430.971 370.14 431.309 370.206 431.833 370.283C433.058 370.464 433.366 372.097 432.286 372.701C430.391 373.762 428.303 374.972 426.693 376.005C424.333 377.519 425.536 378.502 427.089 379.079C427.773 379.333 427.956 380.13 427.627 380.782C427.457 381.12 427.548 381.558 428.156 382.12C429.245 383.126 430.886 383.843 432.172 384.292C433.083 384.61 433.345 385.771 432.652 386.442C430.695 388.336 426.814 391.476 421.176 393.226C421.176 393.226 419.428 395.979 423.75 396.047C424.237 396.055 424.634 396.366 424.86 396.797C424.956 396.98 425.141 397.202 425.454 397.469C426.177 398.085 427.834 398.519 429.326 398.8C430.415 399.005 430.752 400.404 429.884 401.092C427.099 403.301 422.491 406.827 419.937 408.076C416.109 409.948 413.857 410.572 415.208 412.818C416.254 414.558 419.934 414.875 421.541 414.93C421.989 414.945 422.388 415.185 422.612 415.574C422.78 415.867 423.021 416.226 423.343 416.577C423.521 416.771 423.629 416.995 423.676 417.225C423.497 417.261 423.315 417.298 423.128 417.336C423.317 417.409 423.511 417.463 423.704 417.521C423.693 418.084 423.327 418.615 422.696 418.747C419.325 419.454 415.114 420.489 414.814 421.303C414.59 421.911 414.564 422.397 414.605 422.749C414.658 423.201 414.422 423.638 414.045 423.893C413.186 424.475 411.98 425.503 412.506 426.419C412.746 426.837 413.204 427.138 413.725 427.357C414.258 427.58 414.436 428.188 414.311 428.752C414.242 429.062 414.292 429.479 414.533 430.039C415.157 431.492 418.172 432.984 420.733 434.025C421.949 434.519 421.768 436.295 420.474 436.516C418.068 436.926 414.979 437.026 412.293 435.764C411.593 435.435 410.709 435.832 410.541 436.587C410.461 436.947 410.537 437.386 410.93 437.901C412.168 439.523 411.605 439.898 411.605 439.898C411.605 439.898 408.79 437.777 410.029 441.021C410.728 442.852 413.111 444.285 415.056 445.187C415.902 445.579 416.034 446.653 415.379 447.316C414.995 447.704 414.833 448.217 415.208 448.883C416.334 450.88 421.063 453.251 426.242 453.75C428.902 454.006 432.036 453.637 434.457 453.218C435.367 453.06 436.017 453.904 435.814 454.805C435.698 455.321 435.958 455.834 436.938 456.246C438.811 457.033 440.832 456.343 442.215 455.611C442.874 455.262 443.706 455.518 444.001 456.203C444.231 456.736 444.767 457.075 445.946 456.596C447.209 456.083 448.37 455.347 449.252 454.708V464.903C449.252 465.177 449.474 465.399 449.748 465.399H460.191C460.465 465.399 460.687 465.177 460.687 464.903V456.498C460.763 456.531 460.838 456.565 460.915 456.596C462.094 457.075 462.63 456.737 462.86 456.203C463.155 455.518 463.987 455.262 464.646 455.611C466.029 456.343 468.05 457.034 469.923 456.246C470.902 455.834 471.163 455.321 471.047 454.805C470.845 453.904 471.494 453.06 472.404 453.218C474.824 453.638 477.959 454.007 480.619 453.75C485.798 453.251 490.527 450.88 491.653 448.883C492.028 448.217 491.866 447.704 491.482 447.316C490.827 446.653 490.959 445.579 491.805 445.187C493.75 444.286 496.133 442.852 496.832 441.021C498.069 437.777 495.254 439.898 495.254 439.898Z" fill="#263238"/>
<path d="M212.045 438.813C210.106 376.814 197.292 372.35 197.292 372.35C206.831 398.142 200.273 438.813 200.273 438.813H212.045Z" fill="#263238"/>
<path d="M216.238 438.813C217.604 395.131 226.633 391.986 226.633 391.986C219.912 410.158 224.533 438.813 224.533 438.813H216.238Z" fill="#263238"/>
<path d="M223.175 438.813C224.084 409.752 230.09 407.66 230.09 407.66C225.619 419.749 228.693 438.813 228.693 438.813H223.175Z" fill="#263238"/>
<path d="M203.444 438.813C202.494 408.451 196.219 406.265 196.219 406.265C200.89 418.896 197.679 438.813 197.679 438.813H203.444Z" fill="#263238"/>
<path d="M210.174 438.813C211.434 367.351 219.759 362.205 219.759 362.205C213.562 391.933 217.822 438.813 217.822 438.813H210.174Z" fill="#263238"/>
<path d="M250.642 457.487C248.624 403.698 235.287 399.825 235.287 399.825C245.215 422.201 238.389 457.487 238.389 457.487H250.642Z" fill="#263238"/>
<path d="M248.113 443.549C249.535 405.651 258.932 402.923 258.932 402.923C251.937 418.688 256.746 443.549 256.746 443.549H248.113Z" fill="#263238"/>
<path d="M256.722 439.526C257.668 414.314 263.919 412.498 263.919 412.498C259.265 422.986 262.465 439.526 262.465 439.526H256.722Z" fill="#263238"/>
<path d="M234.744 438.813C233.756 412.472 227.224 410.575 227.224 410.575C232.086 421.533 228.743 438.813 228.743 438.813H234.744Z" fill="#263238"/>
<path d="M240.387 438.813C239.046 403.082 230.187 400.509 230.187 400.509C236.782 415.373 232.248 438.813 232.248 438.813H240.387Z" fill="#263238"/>
<path d="M243.546 450.707C244.857 388.708 253.522 384.244 253.522 384.244C247.072 410.036 251.506 450.707 251.506 450.707H243.546Z" fill="#263238"/>
<path d="M285.024 444.352C281.904 416.507 288.208 412.961 288.208 412.961C285.008 425.606 291.088 442.921 291.088 442.921L285.024 444.352Z" fill="#263238"/>
<path d="M266.624 443.193C267.756 394.115 275.236 390.581 275.236 390.581C269.668 410.998 273.496 443.193 273.496 443.193H266.624Z" fill="#263238"/>
<path d="M269.329 438.813C268.618 419.864 263.92 418.5 263.92 418.5C267.417 426.383 265.013 438.813 265.013 438.813H269.329Z" fill="#263238"/>
<path d="M273.635 446.636C274.946 406.829 283.611 403.962 283.611 403.962C271.858 423.557 279.218 447.996 281.595 446.636H273.635Z" fill="#263238"/>
<path d="M302.375 475.166C300.436 413.167 287.622 408.703 287.622 408.703C297.161 434.495 290.603 475.166 290.603 475.166H302.375Z" fill="#263238"/>
<path d="M300.524 434.098C299.574 403.736 293.299 401.55 293.299 401.55C297.97 414.181 294.759 434.098 294.759 434.098H300.524Z" fill="#263238"/>
<path d="M296.912 469.729C298.172 398.267 306.497 393.121 306.497 393.121C300.3 422.849 304.56 469.729 304.56 469.729H296.912Z" fill="#263238"/>
<path d="M309.373 439.745C310.319 414.533 316.571 412.717 316.571 412.717C311.917 423.205 315.117 439.745 315.117 439.745H309.373Z" fill="#263238"/>
<path d="M283.796 439.745C282.808 413.404 276.276 411.507 276.276 411.507C281.138 422.465 277.795 439.745 277.795 439.745H283.796Z" fill="#263238"/>
<path d="M324.682 438.135C333.418 411.512 340.626 410.907 340.626 410.907C332.46 421.078 330.793 439.353 330.793 439.353L324.682 438.135Z" fill="#263238"/>
<path d="M318.381 439.745C317.67 420.796 312.972 419.432 312.972 419.432C316.469 427.315 314.065 439.745 314.065 439.745H318.381Z" fill="#263238"/>
<path d="M9.508 356.158C9.508 356.158 219.596 445.71 372.903 432.766C526.21 419.822 736.298 336.354 736.298 336.354V491.364H9.508V356.158Z" fill="#263238"/>
<path d="M304.257 446.143C303.933 446.194 303.195 443.895 302.82 440.028C302.624 438.097 302.576 435.78 302.703 433.212C302.862 430.647 303.215 427.831 303.848 424.927C304.504 422.027 305.378 419.327 306.321 416.935C307.294 414.554 308.319 412.475 309.315 410.809C311.292 407.465 312.935 405.696 313.206 405.879C313.883 406.297 308.805 414.306 306.391 425.491C303.84 436.644 305.047 446.052 304.257 446.143Z" fill="#263238"/>
<path d="M323.297 456.499C322.965 456.55 322.184 454.112 321.812 449.992C321.725 448.963 321.667 447.829 321.672 446.608C321.69 445.345 321.734 444.194 321.653 442.884C321.524 440.302 321.068 437.385 320.917 434.226C320.579 427.979 320.934 422.308 321.492 418.258C322.047 414.202 322.748 411.758 323.092 411.805C323.841 411.908 322.831 421.861 323.517 434.087C323.657 437.107 324.045 440.037 324.051 442.816C324.071 444.187 323.934 445.579 323.829 446.696C323.733 447.856 323.683 448.944 323.652 449.94C323.547 453.928 323.675 456.447 323.297 456.499Z" fill="#263238"/>
<path d="M319.292 407.827C320.011 407.828 320.587 414.668 320.578 423.103C320.569 431.541 319.979 438.379 319.26 438.378C318.541 438.377 317.965 431.539 317.974 423.101C317.983 414.665 318.573 407.826 319.292 407.827Z" fill="#263238"/>
<path d="M327.804 423.142C328.509 423.168 328.942 426.307 328.035 430.022C327.141 433.742 325.32 436.334 324.681 436.034C324.014 435.733 324.679 432.86 325.504 429.409C326.35 425.963 327.073 423.104 327.804 423.142Z" fill="#263238"/>
<path d="M252.081 409.757C252.776 410.048 251.325 414.765 250.738 420.705C250.091 426.641 250.54 431.554 249.8 431.696C249.459 431.757 248.891 430.574 248.469 428.535C248.044 426.502 247.822 423.604 248.148 420.436C248.48 417.269 249.294 414.48 250.128 412.577C250.962 410.668 251.76 409.627 252.081 409.757Z" fill="#263238"/>
<path d="M335.894 438.379L347.427 418.456L370.492 409.933L388.945 418.686L400.469 429.782L335.894 438.379Z" fill="#263238"/>
<path opacity="0.3" d="M400.469 429.782C404.187 432.101 417.017 438.095 417.289 439.354C417.06 438.295 413.726 427.358 413.726 427.358L400.469 429.782Z" fill="#FF725E"/>
<path opacity="0.3" d="M491.441 413.109L582.99 424.801C581.36 424.149 530.437 403.202 530.437 403.202L491.441 413.109Z" fill="#FF725E"/>
<path opacity="0.3" d="M591.178 385.974L673.242 386.833C671.769 386.342 647.552 368.632 647.552 368.632L591.178 385.974Z" fill="#FF725E"/>
<path opacity="0.3" d="M331.749 433.93L333.86 446.143L339.547 434.152L331.749 433.93Z" fill="#FF725E"/>
<path opacity="0.3" d="M304.398 432.508L301.731 446.69L309.795 432.972L304.398 432.508Z" fill="#FF725E"/>
<path opacity="0.3" d="M697.336 351.206L724.892 356.069C724.892 356.069 734.908 336.902 734.311 337.135C733.713 337.368 697.336 351.206 697.336 351.206Z" fill="#FF725E"/>
<path opacity="0.3" d="M163.87 407.448L122.912 434.152L194.446 415.112L163.87 407.448Z" fill="#FF725E"/>
<path opacity="0.3" d="M96.965 388.051L59.875 409.757L144.015 402.376L96.965 388.051Z" fill="#FF725E"/>
</svg>
