<svg width="750" height="500" viewBox="0 0 750 500" fill="none" xmlns="http://www.w3.org/2000/svg">
<path d="M355.612 272.854C380.932 268.857 398.218 245.092 394.222 219.772C390.226 194.452 366.461 177.166 341.141 181.162C315.821 185.158 298.534 208.924 302.53 234.243C306.527 259.563 330.292 276.85 355.612 272.854Z" fill="#FF725E"/>
<g opacity="0.9">
<path d="M355.612 272.854C380.932 268.857 398.218 245.092 394.222 219.772C390.226 194.452 366.461 177.166 341.141 181.162C315.821 185.158 298.534 208.924 302.53 234.243C306.527 259.563 330.292 276.85 355.612 272.854Z" fill="white"/>
</g>
<path d="M348.359 268.411C371.219 268.411 389.751 249.879 389.751 227.019C389.751 204.159 371.219 185.627 348.359 185.627C325.499 185.627 306.967 204.159 306.967 227.019C306.967 249.879 325.499 268.411 348.359 268.411Z" fill="#FF725E"/>
<g opacity="0.6">
<path d="M348.359 268.411C371.219 268.411 389.751 249.879 389.751 227.019C389.751 204.159 371.219 185.627 348.359 185.627C325.499 185.627 306.967 204.159 306.967 227.019C306.967 249.879 325.499 268.411 348.359 268.411Z" fill="white"/>
</g>
<path d="M382.702 229.494C384.07 210.521 369.798 194.032 350.825 192.664C331.853 191.296 315.363 205.568 313.996 224.541C312.628 243.514 326.9 260.003 345.873 261.371C364.845 262.739 381.335 248.467 382.702 229.494Z" fill="#FF725E"/>
<g opacity="0.3">
<path d="M382.702 229.494C384.07 210.521 369.798 194.032 350.825 192.664C331.853 191.296 315.363 205.568 313.996 224.541C312.628 243.514 326.9 260.003 345.873 261.371C364.845 262.739 381.335 248.467 382.702 229.494Z" fill="white"/>
</g>
<path d="M348.359 254.597C363.59 254.597 375.937 242.25 375.937 227.019C375.937 211.788 363.59 199.441 348.359 199.441C333.128 199.441 320.781 211.788 320.781 227.019C320.781 242.25 333.128 254.597 348.359 254.597Z" fill="#FF725E"/>
</svg>
