<svg width="750" height="500" viewBox="0 0 750 500" fill="none" xmlns="http://www.w3.org/2000/svg">
<path d="M223.941 363.997C223.941 363.997 222.963 363.346 225.115 360.527C225.798 359.632 225.929 358.869 225.79 358.243C225.499 356.931 223.962 356.242 222.746 356.813C218.079 359.005 212.71 358.832 208.53 358.119C206.281 357.736 205.967 354.65 208.081 353.791C212.532 351.983 217.77 349.39 218.855 346.864C219.273 345.892 219.36 345.167 219.24 344.628C219.022 343.648 219.332 342.591 220.258 342.204C221.164 341.825 221.96 341.3 222.377 340.575C223.292 338.982 221.196 337.195 219.703 336.184C219.048 335.741 218.638 334.982 218.73 334.197C218.802 333.585 218.757 332.741 218.367 331.684C217.845 330.268 210.528 328.469 204.669 327.241C202.932 326.877 202.343 324.776 203.545 323.47C204.105 322.861 204.523 322.236 204.816 321.727C205.204 321.051 205.897 320.634 206.677 320.607C209.47 320.512 215.864 319.96 217.682 316.937C220.03 313.034 216.117 311.949 209.464 308.696C205.442 306.729 198.496 301.518 193.625 297.7C194.49 297.679 195.355 297.608 196.211 297.471C194.712 296.324 193.306 295.223 192.097 294.264C191.89 294.1 191.726 293.911 191.596 293.709C191.894 293.152 192.424 292.713 193.146 292.577C195.739 292.089 198.619 291.335 199.876 290.263C200.421 289.798 200.742 289.413 200.909 289.095C201.302 288.346 201.992 287.805 202.838 287.792C210.349 287.674 207.311 282.889 207.311 282.889C197.513 279.848 190.768 274.391 187.367 271.1C186.163 269.934 186.618 267.916 188.201 267.363C190.436 266.583 193.288 265.336 195.18 263.589C196.237 262.613 196.395 261.852 196.1 261.264C195.53 260.131 195.846 258.746 197.036 258.305C199.735 257.303 201.826 255.595 197.725 252.963C194.927 251.167 191.298 249.065 188.005 247.222C186.128 246.171 186.664 243.333 188.793 243.019C189.703 242.885 190.29 242.771 190.29 242.771C194.416 240.92 194.398 238.631 193.358 236.811C193.438 236.117 193.265 235.437 192.952 234.804C192.83 235.106 192.662 235.36 192.471 235.589C191.456 234.433 190.29 233.662 190.29 233.662C185.197 230.782 178.835 225.577 173.988 221.33C172.38 219.921 173.447 217.354 175.585 217.38C176.164 217.387 176.705 217.327 177.181 217.181C180.702 216.097 173.268 211.76 173.268 211.76C173.268 211.76 176.985 212.845 178.55 211.76C180.115 210.676 174.442 205.688 174.442 205.688C167.025 200.869 158.09 189.165 153.085 182.21C152.184 180.958 150.338 180.958 149.437 182.21C144.432 189.165 135.496 200.869 128.079 205.688C128.079 205.688 126.658 206.937 125.434 208.321L123.756 208.547C123.643 208.945 123.687 209.268 123.97 209.464C124.09 209.547 124.225 209.613 124.367 209.672C123.745 210.584 123.442 211.395 123.97 211.76C124.367 212.035 124.903 212.17 125.481 212.219C124.403 213.265 123.846 214.323 125.179 214.826C124.273 215.807 123.941 216.751 125.34 217.182C125.816 217.329 126.357 217.388 126.936 217.381C129.074 217.355 130.14 219.922 128.533 221.331C123.687 225.578 117.324 230.783 112.231 233.663C112.231 233.663 104.014 239.084 112.231 242.771C112.231 242.771 112.819 242.885 113.729 243.019C115.857 243.333 116.394 246.171 114.517 247.222C111.224 249.065 107.595 251.168 104.797 252.963C100.695 255.595 102.787 257.303 105.486 258.305C106.675 258.747 106.992 260.131 106.421 261.264C106.125 261.852 106.284 262.613 107.34 263.589C109.232 265.337 112.085 266.584 114.319 267.363C115.902 267.915 116.357 269.934 115.153 271.1C111.752 274.391 105.007 279.849 95.209 282.889C95.209 282.889 92.171 287.674 99.682 287.792C100.528 287.805 101.218 288.346 101.612 289.095C101.779 289.413 102.1 289.798 102.645 290.263C103.901 291.334 106.782 292.088 109.375 292.577C111.267 292.933 111.853 295.364 110.344 296.56C105.504 300.399 97.496 306.526 93.058 308.697C86.406 311.95 82.493 313.034 84.84 316.938C86.658 319.961 93.053 320.513 95.845 320.608C96.624 320.635 97.317 321.052 97.706 321.728C97.998 322.237 98.416 322.862 98.977 323.471C99.287 323.808 99.473 324.198 99.556 324.597C99.244 324.66 98.928 324.724 98.603 324.791C98.931 324.917 99.269 325.011 99.604 325.113C99.584 326.091 98.949 327.013 97.852 327.243C91.993 328.471 84.676 330.269 84.154 331.686C83.764 332.743 83.72 333.587 83.791 334.199C83.883 334.984 83.472 335.743 82.818 336.186C81.325 337.197 79.229 338.984 80.144 340.577C80.56 341.302 81.356 341.827 82.262 342.206C83.188 342.593 83.498 343.65 83.28 344.63C83.16 345.169 83.248 345.894 83.665 346.866C84.75 349.392 89.988 351.984 94.439 353.793C96.553 354.652 96.238 357.738 93.989 358.121C89.808 358.834 84.44 359.007 79.773 356.815C78.557 356.244 77.02 356.933 76.729 358.245C76.59 358.871 76.721 359.634 77.404 360.529C79.556 363.348 78.578 363.999 78.578 363.999C78.578 363.999 73.687 360.312 75.839 365.951C77.054 369.133 81.196 371.624 84.575 373.19C86.045 373.871 86.275 375.738 85.136 376.89C84.469 377.565 84.187 378.456 84.839 379.613C86.795 383.083 95.013 387.203 104.014 388.071C108.636 388.516 114.083 387.875 118.29 387.146C119.872 386.872 121 388.338 120.649 389.904C120.448 390.801 120.9 391.692 122.602 392.408C125.857 393.776 129.369 392.576 131.772 391.304C132.917 390.698 134.363 391.143 134.875 392.333C135.274 393.26 136.205 393.848 138.254 393.015C140.449 392.123 142.467 390.845 144 389.734V407.451C144 407.928 144.386 408.314 144.863 408.314H163.011C163.488 408.314 163.874 407.928 163.874 407.451V392.844C164.006 392.901 164.136 392.961 164.269 393.015C166.318 393.847 167.249 393.26 167.648 392.333C168.16 391.143 169.607 390.698 170.751 391.304C173.155 392.576 176.667 393.777 179.921 392.408C181.623 391.692 182.075 390.801 181.874 389.904C181.523 388.338 182.651 386.872 184.233 387.146C188.439 387.875 193.887 388.517 198.509 388.071C207.509 387.203 215.727 383.083 217.683 379.613C218.335 378.456 218.053 377.565 217.386 376.89C216.247 375.738 216.478 373.871 217.947 373.19C221.326 371.623 225.469 369.132 226.683 365.951C228.833 360.31 223.941 363.997 223.941 363.997Z" fill="#263238"/>
<path d="M16.832 360.768L42.161 369.998V357.881C42.329 357.954 42.495 358.03 42.665 358.099C45.277 359.16 46.464 358.411 46.972 357.23C47.625 355.714 49.468 355.147 50.927 355.919C53.99 357.541 58.467 359.071 62.615 357.327C64.784 356.415 65.361 355.279 65.104 354.136C64.656 352.14 66.095 350.271 68.11 350.621C73.471 351.551 80.414 352.368 86.305 351.8C97.776 350.694 108.25 345.443 110.743 341.02C111.574 339.546 111.214 338.409 110.364 337.55C108.913 336.081 109.206 333.703 111.079 332.834C115.386 330.837 120.666 327.662 122.213 323.607C124.956 316.421 118.722 321.12 118.722 321.12C118.722 321.12 117.475 320.291 120.218 316.698C121.088 315.558 121.256 314.585 121.079 313.787C120.708 312.115 118.749 311.236 117.199 311.965C111.251 314.759 104.408 314.538 99.08 313.63C96.213 313.141 95.813 309.208 98.507 308.113C104.18 305.808 110.856 302.504 112.239 299.285C112.771 298.046 112.883 297.122 112.73 296.435C112.452 295.187 112.847 293.839 114.027 293.346C115.182 292.863 116.197 292.194 116.727 291.269C117.893 289.238 115.221 286.961 113.318 285.673C112.484 285.108 111.961 284.141 112.078 283.14C112.169 282.359 112.112 281.284 111.616 279.937C110.95 278.132 101.625 275.84 94.157 274.275C91.944 273.811 91.193 271.133 92.724 269.469C93.438 268.692 93.971 267.896 94.344 267.247C94.839 266.385 95.722 265.854 96.715 265.82C100.274 265.699 108.424 264.995 110.741 261.142C113.734 256.167 108.746 254.785 100.267 250.639C95.141 248.132 86.288 241.49 80.08 236.624C81.182 236.597 82.286 236.506 83.377 236.332C81.466 234.87 79.674 233.466 78.134 232.244C77.87 232.035 77.661 231.794 77.496 231.537C77.875 230.827 78.551 230.267 79.472 230.094C82.777 229.471 86.448 228.511 88.05 227.145C88.745 226.553 89.153 226.062 89.366 225.657C89.867 224.702 90.747 224.013 91.825 223.996C101.398 223.846 97.526 217.747 97.526 217.747C85.038 213.872 76.442 206.916 72.107 202.721C70.572 201.235 71.152 198.662 73.17 197.959C76.018 196.965 79.653 195.376 82.065 193.148C83.412 191.904 83.614 190.934 83.237 190.185C82.51 188.741 82.914 186.976 84.429 186.413C87.869 185.135 90.534 182.958 85.307 179.604C81.741 177.315 77.115 174.636 72.919 172.286C70.526 170.946 71.21 167.329 73.923 166.929C75.082 166.758 75.831 166.613 75.831 166.613C81.09 164.253 81.067 161.337 79.741 159.017C79.843 158.133 79.623 157.265 79.224 156.459C79.069 156.844 78.854 157.167 78.611 157.459C77.318 155.985 75.831 155.004 75.831 155.004C69.34 151.334 61.231 144.7 55.054 139.286C53.005 137.49 54.364 134.219 57.089 134.252C57.827 134.261 58.516 134.185 59.123 133.998C63.611 132.616 54.136 127.088 54.136 127.088C54.136 127.088 58.874 128.47 60.869 127.088C62.864 125.706 55.633 119.349 55.633 119.349C46.18 113.207 34.792 98.2898 28.412 89.4248C27.264 87.8298 24.911 87.8298 23.763 89.4248C20.181 94.4018 15.02 101.287 9.50897 107.456V358.099C12.307 356.963 14.878 355.333 16.833 353.918L16.832 360.768Z" fill="#263238"/>
</svg>
